<?xml version="1.0" encoding="UTF-8"?>
<svg xmlns="http://www.w3.org/2000/svg" version="1.1" width="400" height="400" viewBox="0 0 400 400"><rect x="0" y="0" width="400" height="400" fill="#ffffff"/><g transform="scale(9.756)"><g transform="translate(2,2)"><path fill-rule="evenodd" d="M8 0L8 4L9 4L9 5L8 5L8 7L9 7L9 6L10 6L10 9L11 9L11 8L12 8L12 9L13 9L13 10L14 10L14 11L17 11L17 12L16 12L16 13L14 13L14 12L13 12L13 11L12 11L12 12L9 12L9 13L10 13L10 14L8 14L8 15L9 15L9 16L10 16L10 17L11 17L11 16L12 16L12 17L13 17L13 18L14 18L14 17L15 17L15 20L14 20L14 21L15 21L15 20L16 20L16 22L15 22L15 23L14 23L14 24L12 24L12 23L13 23L13 21L12 21L12 20L13 20L13 19L12 19L12 20L11 20L11 19L10 19L10 18L9 18L9 17L8 17L8 16L6 16L6 15L7 15L7 14L5 14L5 15L4 15L4 14L3 14L3 13L4 13L4 11L5 11L5 13L7 13L7 12L6 12L6 11L8 11L8 10L9 10L9 9L7 9L7 8L4 8L4 9L5 9L5 10L3 10L3 9L2 9L2 8L0 8L0 9L2 9L2 10L1 10L1 11L2 11L2 10L3 10L3 12L0 12L0 13L1 13L1 16L2 16L2 17L1 17L1 18L4 18L4 19L5 19L5 22L4 22L4 20L3 20L3 19L1 19L1 20L0 20L0 21L2 21L2 22L0 22L0 26L1 26L1 25L3 25L3 26L2 26L2 27L3 27L3 26L4 26L4 25L5 25L5 24L6 24L6 25L7 25L7 26L6 26L6 27L7 27L7 28L5 28L5 29L8 29L8 30L10 30L10 31L8 31L8 33L9 33L9 35L8 35L8 37L9 37L9 35L10 35L10 37L11 37L11 35L12 35L12 32L13 32L13 31L14 31L14 30L15 30L15 31L16 31L16 32L17 32L17 33L18 33L18 34L19 34L19 33L20 33L20 31L21 31L21 33L22 33L22 32L25 32L25 31L24 31L24 30L26 30L26 31L27 31L27 32L26 32L26 33L23 33L23 34L22 34L22 35L21 35L21 34L20 34L20 35L19 35L19 36L18 36L18 35L17 35L17 34L16 34L16 33L15 33L15 32L14 32L14 33L13 33L13 35L16 35L16 36L14 36L14 37L20 37L20 35L21 35L21 37L24 37L24 36L23 36L23 35L24 35L24 34L25 34L25 35L26 35L26 34L27 34L27 32L28 32L28 33L29 33L29 34L28 34L28 35L27 35L27 36L26 36L26 37L28 37L28 35L29 35L29 37L32 37L32 36L33 36L33 37L37 37L37 36L36 36L36 35L34 35L34 34L33 34L33 35L32 35L32 36L31 36L31 33L33 33L33 32L34 32L34 33L35 33L35 30L36 30L36 29L35 29L35 27L36 27L36 28L37 28L37 27L36 27L36 26L35 26L35 24L36 24L36 25L37 25L37 23L34 23L34 29L33 29L33 28L32 28L32 27L33 27L33 25L31 25L31 24L30 24L30 23L29 23L29 22L30 22L30 21L31 21L31 22L32 22L32 23L33 23L33 22L36 22L36 21L37 21L37 20L36 20L36 19L35 19L35 18L34 18L34 17L35 17L35 14L34 14L34 13L35 13L35 11L34 11L34 13L32 13L32 10L33 10L33 9L34 9L34 10L35 10L35 9L37 9L37 8L33 8L33 9L32 9L32 8L31 8L31 9L32 9L32 10L31 10L31 11L29 11L29 10L30 10L30 9L29 9L29 10L28 10L28 9L27 9L27 11L26 11L26 9L25 9L25 5L26 5L26 7L27 7L27 5L29 5L29 4L28 4L28 3L29 3L29 2L26 2L26 1L29 1L29 0L25 0L25 1L24 1L24 2L23 2L23 0L21 0L21 3L22 3L22 2L23 2L23 4L22 4L22 7L21 7L21 6L20 6L20 5L19 5L19 3L20 3L20 1L19 1L19 0L16 0L16 1L17 1L17 3L15 3L15 4L16 4L16 7L17 7L17 8L16 8L16 9L14 9L14 8L15 8L15 5L14 5L14 3L13 3L13 1L15 1L15 0L13 0L13 1L11 1L11 2L12 2L12 5L14 5L14 8L12 8L12 7L13 7L13 6L12 6L12 7L11 7L11 3L10 3L10 2L9 2L9 0ZM25 2L25 3L26 3L26 2ZM17 3L17 7L18 7L18 6L19 6L19 8L18 8L18 9L16 9L16 10L19 10L19 11L18 11L18 12L17 12L17 13L16 13L16 18L17 18L17 19L16 19L16 20L17 20L17 19L19 19L19 20L18 20L18 21L19 21L19 23L20 23L20 24L21 24L21 22L22 22L22 25L21 25L21 27L20 27L20 25L19 25L19 24L18 24L18 25L17 25L17 24L16 24L16 23L18 23L18 22L16 22L16 23L15 23L15 24L14 24L14 25L15 25L15 26L16 26L16 25L17 25L17 26L18 26L18 25L19 25L19 27L18 27L18 29L17 29L17 30L18 30L18 29L19 29L19 31L20 31L20 30L21 30L21 31L22 31L22 30L21 30L21 27L22 27L22 26L23 26L23 25L24 25L24 24L25 24L25 26L24 26L24 27L25 27L25 29L27 29L27 31L28 31L28 27L27 27L27 26L26 26L26 25L27 25L27 24L28 24L28 23L27 23L27 24L26 24L26 23L25 23L25 22L27 22L27 21L28 21L28 22L29 22L29 21L28 21L28 20L27 20L27 19L25 19L25 20L26 20L26 21L24 21L24 20L23 20L23 21L21 21L21 22L20 22L20 19L21 19L21 18L20 18L20 17L19 17L19 16L18 16L18 17L17 17L17 15L18 15L18 14L19 14L19 15L20 15L20 16L21 16L21 14L22 14L22 15L23 15L23 17L22 17L22 19L23 19L23 17L24 17L24 18L26 18L26 17L27 17L27 16L26 16L26 15L25 15L25 14L26 14L26 13L27 13L27 12L26 12L26 11L25 11L25 13L24 13L24 12L23 12L23 11L22 11L22 12L23 12L23 13L24 13L24 15L23 15L23 14L22 14L22 13L21 13L21 12L20 12L20 11L21 11L21 9L20 9L20 8L21 8L21 7L20 7L20 6L19 6L19 5L18 5L18 3ZM24 4L24 5L23 5L23 8L24 8L24 5L25 5L25 4ZM26 4L26 5L27 5L27 4ZM28 6L28 8L29 8L29 6ZM6 9L6 10L7 10L7 9ZM22 9L22 10L23 10L23 9ZM24 9L24 10L25 10L25 9ZM28 11L28 14L29 14L29 16L32 16L32 17L33 17L33 16L34 16L34 14L33 14L33 15L32 15L32 13L29 13L29 11ZM36 11L36 13L37 13L37 11ZM12 12L12 13L11 13L11 14L12 14L12 13L13 13L13 12ZM19 12L19 13L20 13L20 12ZM17 13L17 14L18 14L18 13ZM13 14L13 15L12 15L12 16L13 16L13 17L14 17L14 15L15 15L15 14ZM10 15L10 16L11 16L11 15ZM24 15L24 16L25 16L25 15ZM4 16L4 17L6 17L6 18L7 18L7 19L6 19L6 20L7 20L7 21L6 21L6 22L7 22L7 21L8 21L8 22L9 22L9 20L10 20L10 21L11 21L11 22L10 22L10 23L9 23L9 24L8 24L8 23L6 23L6 24L7 24L7 25L8 25L8 26L9 26L9 25L10 25L10 24L11 24L11 27L8 27L8 28L9 28L9 29L10 29L10 30L12 30L12 29L10 29L10 28L12 28L12 27L13 27L13 28L14 28L14 29L15 29L15 30L16 30L16 28L17 28L17 27L16 27L16 28L14 28L14 26L13 26L13 25L12 25L12 24L11 24L11 22L12 22L12 21L11 21L11 20L10 20L10 19L8 19L8 18L7 18L7 17L6 17L6 16ZM18 17L18 18L19 18L19 17ZM28 17L28 19L30 19L30 18L31 18L31 19L33 19L33 20L32 20L32 21L33 21L33 20L34 20L34 21L35 21L35 20L34 20L34 19L33 19L33 18L31 18L31 17ZM23 21L23 23L24 23L24 21ZM15 24L15 25L16 25L16 24ZM28 25L28 26L29 26L29 28L30 28L30 26L29 26L29 25ZM19 27L19 29L20 29L20 27ZM26 27L26 28L27 28L27 27ZM0 28L0 29L2 29L2 28ZM3 28L3 29L4 29L4 28ZM22 28L22 29L23 29L23 28ZM29 29L29 32L32 32L32 29ZM34 29L34 30L35 30L35 29ZM30 30L30 31L31 31L31 30ZM10 31L10 32L9 32L9 33L10 33L10 32L11 32L11 31ZM36 32L36 33L37 33L37 32ZM14 33L14 34L15 34L15 33ZM10 34L10 35L11 35L11 34ZM12 36L12 37L13 37L13 36ZM0 0L0 7L7 7L7 0ZM1 1L1 6L6 6L6 1ZM2 2L2 5L5 5L5 2ZM30 0L30 7L37 7L37 0ZM31 1L31 6L36 6L36 1ZM32 2L32 5L35 5L35 2ZM0 30L0 37L7 37L7 30ZM1 31L1 36L6 36L6 31ZM2 32L2 35L5 35L5 32Z" fill="#000000"/></g></g></svg>
