<?xml version="1.0" encoding="UTF-8"?>
<svg xmlns="http://www.w3.org/2000/svg" version="1.1" width="400" height="400" viewBox="0 0 400 400"><rect x="0" y="0" width="400" height="400" fill="#ffffff"/><g transform="scale(9.756)"><g transform="translate(2,2)"><path fill-rule="evenodd" d="M9 0L9 1L8 1L8 2L9 2L9 3L8 3L8 4L10 4L10 7L11 7L11 4L12 4L12 5L13 5L13 4L12 4L12 2L13 2L13 1L11 1L11 2L10 2L10 0ZM14 0L14 2L16 2L16 1L15 1L15 0ZM17 0L17 2L19 2L19 3L20 3L20 2L21 2L21 3L22 3L22 4L18 4L18 3L14 3L14 4L18 4L18 5L20 5L20 7L21 7L21 8L22 8L22 9L23 9L23 10L24 10L24 9L26 9L26 10L25 10L25 11L26 11L26 12L24 12L24 13L23 13L23 11L22 11L22 10L21 10L21 9L20 9L20 8L19 8L19 10L21 10L21 11L20 11L20 13L19 13L19 14L21 14L21 16L22 16L22 17L23 17L23 18L21 18L21 19L20 19L20 20L19 20L19 21L18 21L18 20L17 20L17 19L19 19L19 18L20 18L20 17L18 17L18 16L17 16L17 15L18 15L18 13L17 13L17 10L15 10L15 9L18 9L18 8L15 8L15 6L16 6L16 7L17 7L17 6L16 6L16 5L14 5L14 8L13 8L13 6L12 6L12 9L14 9L14 10L10 10L10 9L11 9L11 8L6 8L6 9L5 9L5 8L0 8L0 9L3 9L3 10L4 10L4 9L5 9L5 11L4 11L4 12L2 12L2 16L1 16L1 17L2 17L2 18L1 18L1 19L2 19L2 18L4 18L4 19L3 19L3 20L6 20L6 21L4 21L4 22L3 22L3 21L2 21L2 22L3 22L3 27L2 27L2 28L4 28L4 27L5 27L5 29L8 29L8 31L9 31L9 32L8 32L8 37L9 37L9 36L10 36L10 34L12 34L12 35L11 35L11 36L12 36L12 37L14 37L14 36L13 36L13 34L15 34L15 35L16 35L16 34L15 34L15 33L16 33L16 32L15 32L15 33L14 33L14 32L13 32L13 34L12 34L12 32L10 32L10 31L9 31L9 30L10 30L10 29L9 29L9 28L6 28L6 27L7 27L7 26L8 26L8 24L10 24L10 25L9 25L9 27L11 27L11 29L12 29L12 30L13 30L13 31L14 31L14 30L13 30L13 28L12 28L12 27L14 27L14 26L15 26L15 28L14 28L14 29L15 29L15 31L16 31L16 30L17 30L17 29L18 29L18 30L21 30L21 29L18 29L18 28L19 28L19 27L18 27L18 28L17 28L17 27L16 27L16 26L17 26L17 25L18 25L18 26L20 26L20 25L18 25L18 24L17 24L17 25L14 25L14 24L13 24L13 23L12 23L12 25L14 25L14 26L10 26L10 25L11 25L11 21L12 21L12 22L15 22L15 23L18 23L18 22L20 22L20 20L22 20L22 21L21 21L21 24L24 24L24 25L23 25L23 26L24 26L24 27L25 27L25 26L26 26L26 25L27 25L27 23L28 23L28 22L27 22L27 21L29 21L29 23L30 23L30 24L28 24L28 25L29 25L29 28L27 28L27 27L28 27L28 26L27 26L27 27L26 27L26 28L23 28L23 29L22 29L22 30L24 30L24 31L23 31L23 32L25 32L25 33L23 33L23 34L24 34L24 35L23 35L23 36L22 36L22 35L20 35L20 36L22 36L22 37L24 37L24 36L25 36L25 37L26 37L26 36L25 36L25 35L26 35L26 34L25 34L25 33L26 33L26 32L25 32L25 29L27 29L27 30L26 30L26 31L27 31L27 34L28 34L28 33L29 33L29 34L33 34L33 35L32 35L32 37L33 37L33 36L34 36L34 37L37 37L37 34L34 34L34 33L35 33L35 32L36 32L36 33L37 33L37 30L36 30L36 29L35 29L35 28L36 28L36 27L37 27L37 26L36 26L36 27L35 27L35 28L32 28L32 27L33 27L33 26L35 26L35 24L32 24L32 23L33 23L33 22L32 22L32 23L31 23L31 22L30 22L30 21L31 21L31 20L32 20L32 21L33 21L33 19L34 19L34 18L33 18L33 19L31 19L31 20L28 20L28 19L30 19L30 18L26 18L26 17L31 17L31 14L32 14L32 15L33 15L33 14L32 14L32 13L35 13L35 12L36 12L36 13L37 13L37 12L36 12L36 11L37 11L37 10L35 10L35 9L36 9L36 8L35 8L35 9L34 9L34 8L33 8L33 10L34 10L34 11L35 11L35 12L32 12L32 8L31 8L31 10L30 10L30 8L29 8L29 11L28 11L28 10L27 10L27 9L28 9L28 8L24 8L24 7L25 7L25 6L26 6L26 7L27 7L27 6L28 6L28 7L29 7L29 6L28 6L28 5L29 5L29 3L28 3L28 1L29 1L29 0L28 0L28 1L26 1L26 3L25 3L25 4L26 4L26 5L24 5L24 4L23 4L23 0L22 0L22 2L21 2L21 0ZM19 1L19 2L20 2L20 1ZM24 1L24 2L25 2L25 1ZM10 3L10 4L11 4L11 3ZM27 4L27 5L26 5L26 6L27 6L27 5L28 5L28 4ZM8 5L8 7L9 7L9 5ZM23 5L23 7L22 7L22 6L21 6L21 7L22 7L22 8L23 8L23 7L24 7L24 5ZM18 6L18 7L19 7L19 6ZM14 8L14 9L15 9L15 8ZM6 9L6 10L8 10L8 11L10 11L10 12L11 12L11 11L10 11L10 10L9 10L9 9ZM14 10L14 11L12 11L12 13L10 13L10 14L11 14L11 15L10 15L10 17L9 17L9 13L8 13L8 14L7 14L7 13L6 13L6 12L7 12L7 11L6 11L6 12L4 12L4 13L6 13L6 14L5 14L5 15L4 15L4 16L5 16L5 19L6 19L6 20L7 20L7 19L8 19L8 18L10 18L10 19L9 19L9 20L8 20L8 21L6 21L6 22L4 22L4 23L5 23L5 25L4 25L4 26L5 26L5 27L6 27L6 26L7 26L7 25L6 25L6 24L8 24L8 22L9 22L9 23L10 23L10 21L11 21L11 18L16 18L16 19L17 19L17 18L18 18L18 17L17 17L17 16L15 16L15 14L17 14L17 13L14 13L14 11L15 11L15 12L16 12L16 11L15 11L15 10ZM26 10L26 11L27 11L27 10ZM0 11L0 12L1 12L1 11ZM18 11L18 12L19 12L19 11ZM29 11L29 12L27 12L27 13L26 13L26 14L31 14L31 13L32 13L32 12L31 12L31 11ZM21 12L21 13L22 13L22 12ZM29 12L29 13L31 13L31 12ZM0 13L0 15L1 15L1 13ZM12 13L12 14L13 14L13 15L12 15L12 17L13 17L13 15L14 15L14 14L13 14L13 13ZM24 13L24 14L23 14L23 15L22 15L22 16L23 16L23 17L24 17L24 18L23 18L23 19L22 19L22 20L23 20L23 21L22 21L22 22L23 22L23 23L24 23L24 22L25 22L25 21L26 21L26 20L27 20L27 19L25 19L25 16L26 16L26 15L24 15L24 14L25 14L25 13ZM6 14L6 15L5 15L5 16L6 16L6 17L7 17L7 16L6 16L6 15L7 15L7 14ZM35 14L35 16L34 16L34 17L35 17L35 16L37 16L37 14ZM19 15L19 16L20 16L20 15ZM23 15L23 16L24 16L24 15ZM27 15L27 16L28 16L28 15ZM2 16L2 17L3 17L3 16ZM14 16L14 17L15 17L15 16ZM32 16L32 17L33 17L33 16ZM10 17L10 18L11 18L11 17ZM6 18L6 19L7 19L7 18ZM35 18L35 19L36 19L36 20L35 20L35 21L34 21L34 23L37 23L37 22L36 22L36 21L37 21L37 18ZM12 19L12 21L13 21L13 20L14 20L14 21L15 21L15 19ZM0 20L0 21L1 21L1 20ZM9 20L9 21L10 21L10 20ZM24 20L24 21L23 21L23 22L24 22L24 21L25 21L25 20ZM6 22L6 23L7 23L7 22ZM0 23L0 24L2 24L2 23ZM19 23L19 24L20 24L20 23ZM25 23L25 24L26 24L26 23ZM36 24L36 25L37 25L37 24ZM0 25L0 29L1 29L1 25ZM21 25L21 26L22 26L22 25ZM31 25L31 26L30 26L30 28L31 28L31 27L32 27L32 26L33 26L33 25ZM20 27L20 28L22 28L22 27ZM29 29L29 32L32 32L32 29ZM33 29L33 30L34 30L34 32L35 32L35 29ZM27 30L27 31L28 31L28 30ZM30 30L30 31L31 31L31 30ZM20 31L20 32L22 32L22 31ZM9 32L9 33L10 33L10 32ZM17 32L17 33L18 33L18 34L17 34L17 35L18 35L18 36L16 36L16 37L19 37L19 34L22 34L22 33L19 33L19 32ZM27 35L27 36L29 36L29 37L31 37L31 36L29 36L29 35ZM34 35L34 36L36 36L36 35ZM0 0L0 7L7 7L7 0ZM1 1L1 6L6 6L6 1ZM2 2L2 5L5 5L5 2ZM30 0L30 7L37 7L37 0ZM31 1L31 6L36 6L36 1ZM32 2L32 5L35 5L35 2ZM0 30L0 37L7 37L7 30ZM1 31L1 36L6 36L6 31ZM2 32L2 35L5 35L5 32Z" fill="#000000"/></g></g></svg>
