<?xml version="1.0" encoding="UTF-8"?>
<svg xmlns="http://www.w3.org/2000/svg" version="1.1" width="400" height="400" viewBox="0 0 400 400"><rect x="0" y="0" width="400" height="400" fill="#ffffff"/><g transform="scale(9.756)"><g transform="translate(2,2)"><path fill-rule="evenodd" d="M8 0L8 2L10 2L10 4L8 4L8 11L7 11L7 10L6 10L6 11L5 11L5 10L4 10L4 9L3 9L3 8L0 8L0 13L1 13L1 15L0 15L0 16L1 16L1 17L0 17L0 18L1 18L1 17L2 17L2 20L0 20L0 23L1 23L1 24L2 24L2 26L0 26L0 27L3 27L3 29L7 29L7 28L6 28L6 27L7 27L7 26L6 26L6 25L8 25L8 27L10 27L10 28L8 28L8 30L9 30L9 29L10 29L10 28L11 28L11 27L12 27L12 28L13 28L13 27L15 27L15 28L14 28L14 34L12 34L12 33L13 33L13 32L12 32L12 31L13 31L13 29L11 29L11 31L8 31L8 32L9 32L9 34L8 34L8 37L9 37L9 34L10 34L10 36L11 36L11 37L14 37L14 36L13 36L13 35L14 35L14 34L15 34L15 37L17 37L17 36L16 36L16 35L18 35L18 37L21 37L21 30L22 30L22 31L23 31L23 32L22 32L22 33L23 33L23 34L22 34L22 35L23 35L23 36L24 36L24 35L25 35L25 34L24 34L24 29L25 29L25 27L26 27L26 28L27 28L27 29L28 29L28 32L26 32L26 33L29 33L29 34L28 34L28 37L29 37L29 35L30 35L30 37L32 37L32 36L33 36L33 35L34 35L34 34L33 34L33 33L34 33L34 32L33 32L33 31L35 31L35 30L36 30L36 32L35 32L35 33L36 33L36 35L37 35L37 29L36 29L36 28L37 28L37 20L36 20L36 21L35 21L35 20L34 20L34 19L35 19L35 18L34 18L34 17L33 17L33 18L31 18L31 17L32 17L32 16L30 16L30 15L32 15L32 11L33 11L33 14L34 14L34 15L33 15L33 16L34 16L34 15L35 15L35 17L36 17L36 19L37 19L37 17L36 17L36 15L37 15L37 8L35 8L35 9L34 9L34 10L35 10L35 9L36 9L36 11L35 11L35 13L36 13L36 15L35 15L35 14L34 14L34 11L33 11L33 10L32 10L32 9L33 9L33 8L28 8L28 7L29 7L29 6L28 6L28 7L27 7L27 6L26 6L26 4L27 4L27 3L28 3L28 4L29 4L29 2L27 2L27 0L25 0L25 1L26 1L26 2L25 2L25 3L24 3L24 2L23 2L23 1L24 1L24 0L23 0L23 1L20 1L20 2L19 2L19 3L18 3L18 1L19 1L19 0L17 0L17 2L16 2L16 3L17 3L17 4L18 4L18 5L16 5L16 4L15 4L15 2L14 2L14 1L16 1L16 0L11 0L11 1L9 1L9 0ZM11 1L11 2L12 2L12 1ZM22 2L22 3L23 3L23 4L22 4L22 5L21 5L21 3L20 3L20 4L19 4L19 5L18 5L18 6L17 6L17 7L16 7L16 5L14 5L14 6L13 6L13 4L14 4L14 3L11 3L11 4L12 4L12 6L11 6L11 5L9 5L9 8L10 8L10 6L11 6L11 7L12 7L12 6L13 6L13 8L11 8L11 10L10 10L10 9L9 9L9 10L10 10L10 11L8 11L8 12L7 12L7 11L6 11L6 12L4 12L4 11L2 11L2 9L1 9L1 11L2 11L2 12L3 12L3 16L2 16L2 17L3 17L3 18L5 18L5 19L3 19L3 20L4 20L4 21L3 21L3 22L4 22L4 23L2 23L2 24L3 24L3 26L4 26L4 28L5 28L5 27L6 27L6 26L4 26L4 24L5 24L5 25L6 25L6 24L8 24L8 25L9 25L9 24L10 24L10 26L12 26L12 27L13 27L13 25L14 25L14 24L16 24L16 25L15 25L15 26L16 26L16 25L18 25L18 26L17 26L17 27L16 27L16 28L17 28L17 29L16 29L16 30L18 30L18 31L16 31L16 32L15 32L15 33L16 33L16 34L18 34L18 35L19 35L19 32L20 32L20 31L19 31L19 28L18 28L18 27L19 27L19 24L18 24L18 22L19 22L19 20L18 20L18 19L19 19L19 18L16 18L16 17L17 17L17 16L18 16L18 17L20 17L20 18L21 18L21 17L22 17L22 19L20 19L20 20L21 20L21 21L20 21L20 22L22 22L22 23L21 23L21 29L22 29L22 28L23 28L23 29L24 29L24 27L22 27L22 26L23 26L23 25L22 25L22 23L23 23L23 20L24 20L24 19L25 19L25 20L26 20L26 21L27 21L27 20L28 20L28 22L29 22L29 23L28 23L28 24L26 24L26 23L27 23L27 22L25 22L25 23L24 23L24 24L25 24L25 25L24 25L24 26L25 26L25 25L26 25L26 26L27 26L27 25L28 25L28 26L29 26L29 27L28 27L28 28L29 28L29 27L32 27L32 28L33 28L33 27L34 27L34 30L35 30L35 27L34 27L34 25L35 25L35 26L36 26L36 25L35 25L35 24L36 24L36 22L33 22L33 21L34 21L34 20L32 20L32 21L31 21L31 23L30 23L30 22L29 22L29 21L30 21L30 19L31 19L31 18L30 18L30 16L28 16L28 15L30 15L30 10L29 10L29 9L28 9L28 10L29 10L29 13L28 13L28 11L27 11L27 12L26 12L26 9L27 9L27 7L26 7L26 6L25 6L25 4L24 4L24 3L23 3L23 2ZM26 2L26 3L27 3L27 2ZM22 5L22 7L23 7L23 8L24 8L24 9L23 9L23 10L22 10L22 9L20 9L20 8L21 8L21 6L20 6L20 8L19 8L19 6L18 6L18 8L19 8L19 11L18 11L18 10L17 10L17 11L16 11L16 7L15 7L15 6L14 6L14 7L15 7L15 10L14 10L14 15L16 15L16 16L14 16L14 18L13 18L13 19L14 19L14 18L15 18L15 20L14 20L14 22L13 22L13 20L11 20L11 19L12 19L12 18L11 18L11 17L10 17L10 16L13 16L13 12L11 12L11 11L12 11L12 10L11 10L11 11L10 11L10 12L11 12L11 13L12 13L12 15L10 15L10 13L9 13L9 14L8 14L8 13L7 13L7 12L6 12L6 13L4 13L4 14L6 14L6 15L4 15L4 16L3 16L3 17L4 17L4 16L6 16L6 17L7 17L7 18L6 18L6 19L7 19L7 20L5 20L5 21L4 21L4 22L5 22L5 24L6 24L6 23L7 23L7 22L8 22L8 24L9 24L9 23L10 23L10 24L12 24L12 25L13 25L13 23L14 23L14 22L15 22L15 23L16 23L16 24L17 24L17 20L16 20L16 18L15 18L15 17L16 17L16 16L17 16L17 15L18 15L18 14L19 14L19 15L20 15L20 17L21 17L21 15L22 15L22 14L23 14L23 19L24 19L24 18L26 18L26 17L24 17L24 16L25 16L25 14L26 14L26 13L25 13L25 11L24 11L24 10L25 10L25 6L24 6L24 7L23 7L23 5ZM5 8L5 9L7 9L7 8ZM13 8L13 9L14 9L14 8ZM31 10L31 11L32 11L32 10ZM15 11L15 13L16 13L16 14L18 14L18 13L19 13L19 12L18 12L18 11L17 11L17 13L16 13L16 11ZM20 11L20 12L21 12L21 13L20 13L20 14L22 14L22 13L23 13L23 12L24 12L24 11L23 11L23 12L22 12L22 11ZM6 13L6 14L7 14L7 15L6 15L6 16L7 16L7 17L8 17L8 14L7 14L7 13ZM27 13L27 15L26 15L26 16L27 16L27 19L28 19L28 16L27 16L27 15L28 15L28 13ZM9 17L9 18L8 18L8 19L9 19L9 20L8 20L8 21L9 21L9 22L11 22L11 23L12 23L12 21L10 21L10 17ZM15 20L15 22L16 22L16 20ZM6 21L6 22L7 22L7 21ZM32 22L32 24L33 24L33 25L34 25L34 23L33 23L33 22ZM30 24L30 25L29 25L29 26L30 26L30 25L31 25L31 24ZM32 26L32 27L33 27L33 26ZM0 28L0 29L2 29L2 28ZM29 29L29 32L32 32L32 29ZM25 30L25 31L26 31L26 30ZM30 30L30 31L31 31L31 30ZM10 32L10 34L11 34L11 32ZM30 33L30 35L31 35L31 36L32 36L32 35L31 35L31 33ZM26 34L26 35L27 35L27 34ZM11 35L11 36L12 36L12 35ZM26 36L26 37L27 37L27 36ZM36 36L36 37L37 37L37 36ZM0 0L0 7L7 7L7 0ZM1 1L1 6L6 6L6 1ZM2 2L2 5L5 5L5 2ZM30 0L30 7L37 7L37 0ZM31 1L31 6L36 6L36 1ZM32 2L32 5L35 5L35 2ZM0 30L0 37L7 37L7 30ZM1 31L1 36L6 36L6 31ZM2 32L2 35L5 35L5 32Z" fill="#000000"/></g></g></svg>
