<?xml version="1.0" encoding="UTF-8"?>
<svg xmlns="http://www.w3.org/2000/svg" version="1.1" width="400" height="400" viewBox="0 0 400 400"><rect x="0" y="0" width="400" height="400" fill="#ffffff"/><g transform="scale(9.756)"><g transform="translate(2,2)"><path fill-rule="evenodd" d="M9 0L9 1L8 1L8 2L9 2L9 3L8 3L8 4L10 4L10 7L11 7L11 4L12 4L12 5L13 5L13 4L14 4L14 5L15 5L15 6L14 6L14 8L13 8L13 6L12 6L12 9L14 9L14 10L11 10L11 12L9 12L9 11L10 11L10 9L11 9L11 8L6 8L6 9L9 9L9 10L6 10L6 11L7 11L7 12L6 12L6 13L8 13L8 15L7 15L7 14L3 14L3 13L2 13L2 12L1 12L1 11L0 11L0 12L1 12L1 15L2 15L2 14L3 14L3 16L0 16L0 18L1 18L1 17L4 17L4 19L2 19L2 20L1 20L1 19L0 19L0 23L1 23L1 24L3 24L3 23L4 23L4 25L3 25L3 27L2 27L2 28L4 28L4 29L5 29L5 28L6 28L6 29L7 29L7 28L9 28L9 29L8 29L8 31L9 31L9 32L8 32L8 37L9 37L9 33L10 33L10 37L11 37L11 36L12 36L12 37L14 37L14 36L13 36L13 34L12 34L12 32L11 32L11 31L9 31L9 29L12 29L12 30L13 30L13 29L14 29L14 31L16 31L16 30L17 30L17 29L18 29L18 30L21 30L21 31L20 31L20 32L22 32L22 34L24 34L24 35L26 35L26 36L22 36L22 35L21 35L21 33L19 33L19 32L17 32L17 33L18 33L18 34L17 34L17 35L18 35L18 36L16 36L16 37L19 37L19 34L20 34L20 36L22 36L22 37L26 37L26 36L27 36L27 37L28 37L28 36L30 36L30 37L31 37L31 35L28 35L28 34L33 34L33 35L32 35L32 37L33 37L33 36L34 36L34 37L37 37L37 34L34 34L34 33L35 33L35 32L36 32L36 33L37 33L37 30L36 30L36 29L35 29L35 28L36 28L36 27L37 27L37 26L36 26L36 27L35 27L35 28L32 28L32 27L33 27L33 26L35 26L35 24L33 24L33 23L31 23L31 24L30 24L30 22L31 22L31 18L32 18L32 19L34 19L34 18L32 18L32 17L33 17L33 16L32 16L32 13L35 13L35 12L36 12L36 13L37 13L37 12L36 12L36 11L37 11L37 10L35 10L35 9L36 9L36 8L35 8L35 9L34 9L34 8L33 8L33 10L32 10L32 8L31 8L31 10L29 10L29 9L30 9L30 8L29 8L29 3L27 3L27 2L28 2L28 1L29 1L29 0L28 0L28 1L27 1L27 0L26 0L26 1L24 1L24 0L23 0L23 1L24 1L24 2L26 2L26 3L25 3L25 6L24 6L24 7L23 7L23 5L24 5L24 4L23 4L23 2L22 2L22 1L21 1L21 0L15 0L15 1L14 1L14 2L19 2L19 3L20 3L20 2L21 2L21 3L22 3L22 4L18 4L18 3L17 3L17 4L16 4L16 3L15 3L15 4L14 4L14 3L13 3L13 4L12 4L12 2L13 2L13 1L11 1L11 2L10 2L10 0ZM19 1L19 2L20 2L20 1ZM26 1L26 2L27 2L27 1ZM10 3L10 4L11 4L11 3ZM17 4L17 7L16 7L16 6L15 6L15 8L14 8L14 9L15 9L15 10L14 10L14 11L12 11L12 13L11 13L11 15L10 15L10 14L9 14L9 15L8 15L8 16L9 16L9 18L8 18L8 19L10 19L10 20L8 20L8 21L5 21L5 22L4 22L4 23L6 23L6 24L7 24L7 25L6 25L6 26L7 26L7 27L6 27L6 28L7 28L7 27L9 27L9 28L11 28L11 27L10 27L10 26L9 26L9 25L8 25L8 23L9 23L9 24L10 24L10 25L11 25L11 26L14 26L14 25L17 25L17 26L16 26L16 27L17 27L17 28L18 28L18 29L19 29L19 28L18 28L18 27L20 27L20 28L21 28L21 29L22 29L22 31L24 31L24 30L25 30L25 29L24 29L24 28L26 28L26 29L27 29L27 30L26 30L26 31L25 31L25 32L26 32L26 33L25 33L25 34L26 34L26 35L27 35L27 34L26 34L26 33L27 33L27 31L28 31L28 28L29 28L29 27L32 27L32 26L33 26L33 25L32 25L32 24L31 24L31 25L27 25L27 24L29 24L29 20L30 20L30 19L29 19L29 16L31 16L31 17L30 17L30 18L31 18L31 17L32 17L32 16L31 16L31 13L29 13L29 14L28 14L28 13L27 13L27 14L28 14L28 15L27 15L27 16L28 16L28 17L26 17L26 18L25 18L25 17L24 17L24 18L23 18L23 16L21 16L21 14L19 14L19 13L20 13L20 11L21 11L21 10L23 10L23 11L22 11L22 12L21 12L21 13L22 13L22 14L23 14L23 15L24 15L24 16L26 16L26 15L24 15L24 14L25 14L25 13L26 13L26 12L27 12L27 11L24 11L24 10L25 10L25 8L26 8L26 6L25 6L25 7L24 7L24 9L22 9L22 8L23 8L23 7L22 7L22 6L21 6L21 7L20 7L20 5L18 5L18 4ZM26 4L26 5L28 5L28 4ZM8 5L8 7L9 7L9 5ZM18 6L18 7L19 7L19 6ZM27 6L27 7L28 7L28 6ZM21 7L21 8L22 8L22 7ZM0 8L0 9L1 9L1 10L2 10L2 11L3 11L3 12L4 12L4 13L5 13L5 12L4 12L4 10L2 10L2 9L5 9L5 8ZM15 8L15 9L18 9L18 8ZM19 8L19 10L21 10L21 9L20 9L20 8ZM28 8L28 9L26 9L26 10L28 10L28 12L29 12L29 10L28 10L28 9L29 9L29 8ZM15 10L15 11L14 11L14 12L13 12L13 13L12 13L12 14L13 14L13 13L14 13L14 15L15 15L15 16L14 16L14 17L15 17L15 16L17 16L17 17L18 17L18 18L17 18L17 19L16 19L16 18L15 18L15 19L14 19L14 21L15 21L15 23L14 23L14 22L13 22L13 21L12 21L12 19L13 19L13 18L11 18L11 21L10 21L10 22L11 22L11 21L12 21L12 22L13 22L13 23L12 23L12 25L14 25L14 24L15 24L15 23L18 23L18 22L20 22L20 20L22 20L22 19L20 19L20 20L19 20L19 21L18 21L18 20L17 20L17 19L19 19L19 18L20 18L20 17L18 17L18 16L17 16L17 15L18 15L18 13L16 13L16 12L15 12L15 11L17 11L17 10ZM31 10L31 11L32 11L32 12L35 12L35 11L34 11L34 10L33 10L33 11L32 11L32 10ZM18 11L18 12L19 12L19 11ZM14 12L14 13L15 13L15 12ZM22 12L22 13L23 13L23 14L24 14L24 13L23 13L23 12ZM29 14L29 15L30 15L30 14ZM35 14L35 16L34 16L34 17L35 17L35 16L37 16L37 14ZM4 15L4 17L5 17L5 19L4 19L4 20L2 20L2 21L1 21L1 23L2 23L2 21L4 21L4 20L5 20L5 19L6 19L6 20L7 20L7 19L6 19L6 18L7 18L7 17L6 17L6 16L7 16L7 15ZM12 15L12 17L13 17L13 15ZM19 15L19 16L20 16L20 15ZM21 17L21 18L22 18L22 17ZM27 18L27 19L26 19L26 20L24 20L24 21L22 21L22 22L24 22L24 23L23 23L23 24L24 24L24 23L25 23L25 22L24 22L24 21L27 21L27 20L29 20L29 19L28 19L28 18ZM35 18L35 19L36 19L36 20L35 20L35 21L34 21L34 23L37 23L37 22L36 22L36 21L37 21L37 18ZM32 20L32 21L33 21L33 20ZM6 22L6 23L7 23L7 22ZM26 22L26 23L28 23L28 22ZM13 23L13 24L14 24L14 23ZM19 23L19 24L20 24L20 23ZM21 23L21 24L22 24L22 23ZM17 24L17 25L18 25L18 26L20 26L20 25L18 25L18 24ZM25 24L25 25L26 25L26 24ZM36 24L36 25L37 25L37 24ZM0 25L0 29L1 29L1 26L2 26L2 25ZM7 25L7 26L8 26L8 25ZM21 25L21 26L22 26L22 25ZM23 25L23 26L24 26L24 25ZM4 26L4 27L5 27L5 26ZM25 26L25 27L26 27L26 26ZM27 26L27 27L28 27L28 26ZM12 27L12 28L14 28L14 29L15 29L15 27ZM21 27L21 28L22 28L22 29L23 29L23 30L24 30L24 29L23 29L23 28L22 28L22 27ZM29 29L29 32L32 32L32 29ZM33 29L33 30L34 30L34 32L35 32L35 29ZM30 30L30 31L31 31L31 30ZM10 32L10 33L11 33L11 32ZM13 32L13 33L14 33L14 34L15 34L15 35L16 35L16 34L15 34L15 33L16 33L16 32L15 32L15 33L14 33L14 32ZM23 32L23 33L24 33L24 32ZM11 34L11 35L12 35L12 34ZM34 35L34 36L36 36L36 35ZM0 0L0 7L7 7L7 0ZM1 1L1 6L6 6L6 1ZM2 2L2 5L5 5L5 2ZM30 0L30 7L37 7L37 0ZM31 1L31 6L36 6L36 1ZM32 2L32 5L35 5L35 2ZM0 30L0 37L7 37L7 30ZM1 31L1 36L6 36L6 31ZM2 32L2 35L5 35L5 32Z" fill="#000000"/></g></g></svg>
