<?xml version="1.0" encoding="UTF-8"?>
<svg xmlns="http://www.w3.org/2000/svg" version="1.1" width="400" height="400" viewBox="0 0 400 400"><rect x="0" y="0" width="400" height="400" fill="#ffffff"/><g transform="scale(9.756)"><g transform="translate(2,2)"><path fill-rule="evenodd" d="M8 0L8 4L10 4L10 3L11 3L11 4L12 4L12 2L11 2L11 0ZM12 0L12 1L15 1L15 0ZM16 0L16 1L17 1L17 2L16 2L16 3L15 3L15 4L16 4L16 7L15 7L15 5L14 5L14 3L13 3L13 5L11 5L11 6L10 6L10 7L9 7L9 5L8 5L8 7L9 7L9 8L10 8L10 7L11 7L11 6L12 6L12 8L11 8L11 9L10 9L10 10L9 10L9 9L8 9L8 10L6 10L6 11L8 11L8 10L9 10L9 11L10 11L10 12L12 12L12 13L13 13L13 15L12 15L12 16L10 16L10 18L9 18L9 13L8 13L8 12L6 12L6 13L8 13L8 14L5 14L5 11L4 11L4 13L3 13L3 11L2 11L2 10L5 10L5 9L7 9L7 8L4 8L4 9L2 9L2 8L0 8L0 9L1 9L1 12L2 12L2 13L3 13L3 14L2 14L2 15L1 15L1 17L0 17L0 18L1 18L1 19L0 19L0 20L1 20L1 21L2 21L2 23L0 23L0 26L1 26L1 25L2 25L2 28L0 28L0 29L3 29L3 28L5 28L5 27L3 27L3 26L4 26L4 24L6 24L6 25L8 25L8 26L9 26L9 27L7 27L7 26L6 26L6 27L7 27L7 28L6 28L6 29L8 29L8 30L9 30L9 31L8 31L8 33L9 33L9 34L10 34L10 36L11 36L11 35L13 35L13 34L14 34L14 36L12 36L12 37L14 37L14 36L15 36L15 35L16 35L16 36L17 36L17 37L19 37L19 36L20 36L20 37L23 37L23 36L25 36L25 35L26 35L26 34L25 34L25 31L26 31L26 30L27 30L27 28L26 28L26 29L25 29L25 28L24 28L24 29L23 29L23 30L22 30L22 31L21 31L21 32L20 32L20 31L19 31L19 29L18 29L18 28L20 28L20 29L22 29L22 28L23 28L23 27L24 27L24 25L25 25L25 26L26 26L26 27L28 27L28 31L27 31L27 32L26 32L26 33L27 33L27 32L28 32L28 33L29 33L29 34L28 34L28 35L27 35L27 36L26 36L26 37L28 37L28 35L29 35L29 37L32 37L32 36L33 36L33 37L37 37L37 36L36 36L36 35L34 35L34 34L33 34L33 35L32 35L32 36L31 36L31 33L33 33L33 32L34 32L34 33L35 33L35 32L36 32L36 33L37 33L37 31L35 31L35 30L36 30L36 29L35 29L35 27L36 27L36 28L37 28L37 27L36 27L36 26L35 26L35 24L36 24L36 25L37 25L37 23L34 23L34 29L33 29L33 28L31 28L31 26L32 26L32 27L33 27L33 25L31 25L31 24L30 24L30 23L29 23L29 22L30 22L30 21L31 21L31 23L32 23L32 24L33 24L33 23L32 23L32 22L36 22L36 21L37 21L37 20L36 20L36 19L35 19L35 18L34 18L34 17L35 17L35 14L34 14L34 13L35 13L35 11L34 11L34 13L32 13L32 10L33 10L33 9L34 9L34 10L35 10L35 9L37 9L37 8L33 8L33 9L32 9L32 8L31 8L31 9L32 9L32 10L31 10L31 11L29 11L29 10L30 10L30 9L29 9L29 6L28 6L28 7L27 7L27 5L29 5L29 3L28 3L28 2L29 2L29 0L27 0L27 1L26 1L26 0L25 0L25 1L26 1L26 2L27 2L27 3L25 3L25 2L24 2L24 4L25 4L25 5L24 5L24 7L23 7L23 6L22 6L22 7L21 7L21 5L22 5L22 4L21 4L21 5L19 5L19 4L20 4L20 3L19 3L19 2L20 2L20 1L19 1L19 0L18 0L18 1L17 1L17 0ZM22 0L22 2L21 2L21 3L23 3L23 1L24 1L24 0ZM27 1L27 2L28 2L28 1ZM9 2L9 3L10 3L10 2ZM17 3L17 4L18 4L18 3ZM26 4L26 5L25 5L25 8L23 8L23 7L22 7L22 8L23 8L23 9L24 9L24 11L23 11L23 10L22 10L22 9L21 9L21 8L20 8L20 6L19 6L19 8L18 8L18 9L16 9L16 8L17 8L17 7L18 7L18 6L17 6L17 7L16 7L16 8L15 8L15 9L14 9L14 6L13 6L13 8L12 8L12 9L11 9L11 10L10 10L10 11L11 11L11 10L12 10L12 9L14 9L14 10L15 10L15 9L16 9L16 14L19 14L19 15L18 15L18 16L17 16L17 15L16 15L16 16L15 16L15 14L14 14L14 15L13 15L13 16L12 16L12 17L11 17L11 18L10 18L10 19L9 19L9 18L8 18L8 19L9 19L9 20L8 20L8 21L6 21L6 22L5 22L5 21L4 21L4 22L5 22L5 23L6 23L6 24L9 24L9 26L12 26L12 25L10 25L10 24L12 24L12 23L13 23L13 25L14 25L14 26L13 26L13 28L12 28L12 31L11 31L11 30L10 30L10 31L9 31L9 33L10 33L10 34L11 34L11 33L12 33L12 32L13 32L13 33L14 33L14 34L15 34L15 33L14 33L14 31L13 31L13 29L14 29L14 30L15 30L15 29L16 29L16 30L18 30L18 29L17 29L17 28L16 28L16 27L14 27L14 26L16 26L16 24L17 24L17 23L20 23L20 24L18 24L18 25L19 25L19 27L20 27L20 28L21 28L21 27L22 27L22 26L21 26L21 25L20 25L20 24L21 24L21 23L22 23L22 22L23 22L23 21L24 21L24 22L25 22L25 25L27 25L27 24L28 24L28 23L27 23L27 22L26 22L26 21L28 21L28 22L29 22L29 21L28 21L28 20L29 20L29 19L30 19L30 18L31 18L31 19L33 19L33 20L32 20L32 21L33 21L33 20L34 20L34 21L35 21L35 20L34 20L34 19L33 19L33 18L31 18L31 17L29 17L29 16L32 16L32 17L33 17L33 16L34 16L34 14L33 14L33 15L32 15L32 13L29 13L29 12L28 12L28 11L27 11L27 12L26 12L26 11L25 11L25 10L26 10L26 9L28 9L28 8L26 8L26 5L27 5L27 4ZM19 8L19 9L18 9L18 10L17 10L17 13L18 13L18 12L19 12L19 13L20 13L20 14L21 14L21 15L20 15L20 18L21 18L21 20L20 20L20 19L19 19L19 18L18 18L18 17L17 17L17 16L16 16L16 18L15 18L15 19L14 19L14 21L13 21L13 20L12 20L12 19L13 19L13 17L12 17L12 18L11 18L11 19L10 19L10 20L9 20L9 21L8 21L8 22L6 22L6 23L8 23L8 22L10 22L10 20L12 20L12 21L13 21L13 23L14 23L14 25L15 25L15 24L16 24L16 23L17 23L17 21L18 21L18 22L19 22L19 21L20 21L20 22L21 22L21 21L22 21L22 18L21 18L21 17L23 17L23 19L24 19L24 20L25 20L25 19L26 19L26 20L27 20L27 19L28 19L28 15L29 15L29 14L28 14L28 13L26 13L26 14L24 14L24 13L25 13L25 11L24 11L24 12L23 12L23 11L22 11L22 10L21 10L21 12L20 12L20 11L19 11L19 9L20 9L20 8ZM12 11L12 12L14 12L14 13L15 13L15 11ZM36 11L36 13L37 13L37 11ZM10 13L10 15L11 15L11 13ZM22 13L22 15L23 15L23 13ZM4 14L4 15L2 15L2 16L4 16L4 17L3 17L3 18L2 18L2 19L1 19L1 20L2 20L2 21L3 21L3 20L5 20L5 14ZM6 15L6 16L8 16L8 15ZM25 15L25 16L26 16L26 17L24 17L24 16L23 16L23 17L24 17L24 19L25 19L25 18L27 18L27 15ZM14 16L14 17L15 17L15 16ZM6 17L6 18L7 18L7 17ZM16 18L16 19L15 19L15 20L16 20L16 21L14 21L14 23L15 23L15 22L16 22L16 21L17 21L17 20L16 20L16 19L18 19L18 18ZM2 19L2 20L3 20L3 19ZM6 19L6 20L7 20L7 19ZM18 20L18 21L19 21L19 20ZM26 23L26 24L27 24L27 23ZM22 24L22 25L24 25L24 24ZM28 25L28 26L29 26L29 28L30 28L30 26L29 26L29 25ZM17 26L17 27L18 27L18 26ZM9 27L9 29L11 29L11 28L10 28L10 27ZM14 28L14 29L15 29L15 28ZM29 29L29 32L32 32L32 29ZM34 29L34 30L35 30L35 29ZM24 30L24 31L25 31L25 30ZM30 30L30 31L31 31L31 30ZM15 31L15 32L16 32L16 31ZM18 31L18 33L16 33L16 34L18 34L18 33L19 33L19 35L20 35L20 36L21 36L21 35L22 35L22 34L23 34L23 33L22 33L22 34L21 34L21 33L20 33L20 32L19 32L19 31ZM8 35L8 37L9 37L9 35ZM0 0L0 7L7 7L7 0ZM1 1L1 6L6 6L6 1ZM2 2L2 5L5 5L5 2ZM30 0L30 7L37 7L37 0ZM31 1L31 6L36 6L36 1ZM32 2L32 5L35 5L35 2ZM0 30L0 37L7 37L7 30ZM1 31L1 36L6 36L6 31ZM2 32L2 35L5 35L5 32Z" fill="#000000"/></g></g></svg>
