<?xml version="1.0" encoding="UTF-8"?>
<svg xmlns="http://www.w3.org/2000/svg" version="1.1" width="400" height="400" viewBox="0 0 400 400"><rect x="0" y="0" width="400" height="400" fill="#ffffff"/><g transform="scale(9.756)"><g transform="translate(2,2)"><path fill-rule="evenodd" d="M10 0L10 1L8 1L8 3L9 3L9 4L8 4L8 8L6 8L6 9L5 9L5 10L6 10L6 11L8 11L8 12L5 12L5 13L4 13L4 14L5 14L5 13L8 13L8 14L9 14L9 13L10 13L10 14L11 14L11 16L10 16L10 15L9 15L9 16L10 16L10 17L8 17L8 18L5 18L5 17L2 17L2 18L3 18L3 19L1 19L1 22L0 22L0 23L1 23L1 22L3 22L3 19L4 19L4 24L2 24L2 25L1 25L1 26L0 26L0 27L1 27L1 28L0 28L0 29L4 29L4 28L5 28L5 29L8 29L8 31L9 31L9 32L10 32L10 33L11 33L11 32L13 32L13 31L14 31L14 33L12 33L12 35L11 35L11 34L10 34L10 35L8 35L8 37L11 37L11 36L12 36L12 37L16 37L16 36L14 36L14 35L15 35L15 34L14 34L14 33L15 33L15 30L16 30L16 33L17 33L17 35L19 35L19 36L17 36L17 37L19 37L19 36L20 36L20 37L22 37L22 33L24 33L24 32L25 32L25 34L24 34L24 35L23 35L23 37L24 37L24 35L25 35L25 37L31 37L31 36L32 36L32 35L33 35L33 37L34 37L34 35L37 35L37 32L35 32L35 31L37 31L37 29L35 29L35 28L34 28L34 29L35 29L35 30L34 30L34 31L33 31L33 28L31 28L31 27L32 27L32 26L31 26L31 27L30 27L30 28L28 28L28 29L25 29L25 28L27 28L27 27L25 27L25 26L26 26L26 23L25 23L25 19L26 19L26 18L27 18L27 17L26 17L26 18L25 18L25 17L23 17L23 16L22 16L22 15L21 15L21 16L19 16L19 15L15 15L15 13L16 13L16 14L17 14L17 13L16 13L16 11L17 11L17 10L19 10L19 12L20 12L20 11L21 11L21 13L18 13L18 14L22 14L22 12L23 12L23 11L21 11L21 9L22 9L22 8L23 8L23 5L24 5L24 4L25 4L25 5L26 5L26 7L27 7L27 6L28 6L28 9L29 9L29 6L28 6L28 5L29 5L29 1L28 1L28 0L26 0L26 4L25 4L25 3L24 3L24 1L23 1L23 3L22 3L22 5L21 5L21 6L20 6L20 5L19 5L19 4L20 4L20 2L21 2L21 1L22 1L22 0L21 0L21 1L20 1L20 0L15 0L15 2L16 2L16 3L15 3L15 5L14 5L14 4L13 4L13 3L12 3L12 7L11 7L11 4L10 4L10 3L9 3L9 2L11 2L11 0ZM13 1L13 2L14 2L14 1ZM17 1L17 2L18 2L18 3L17 3L17 4L16 4L16 5L17 5L17 7L18 7L18 3L19 3L19 2L20 2L20 1ZM27 2L27 3L28 3L28 2ZM26 4L26 5L27 5L27 4ZM9 5L9 8L8 8L8 9L6 9L6 10L8 10L8 11L9 11L9 12L11 12L11 8L10 8L10 5ZM13 5L13 7L12 7L12 8L13 8L13 9L14 9L14 10L13 10L13 11L14 11L14 12L15 12L15 11L16 11L16 10L17 10L17 9L19 9L19 10L20 10L20 9L21 9L21 7L22 7L22 6L21 6L21 7L20 7L20 6L19 6L19 8L15 8L15 7L16 7L16 6L15 6L15 7L14 7L14 5ZM24 6L24 10L26 10L26 11L24 11L24 14L23 14L23 15L24 15L24 16L28 16L28 17L30 17L30 18L29 18L29 19L27 19L27 20L26 20L26 22L27 22L27 20L30 20L30 22L29 22L29 23L31 23L31 22L32 22L32 21L34 21L34 22L33 22L33 23L32 23L32 24L29 24L29 25L28 25L28 24L27 24L27 25L28 25L28 27L29 27L29 25L32 25L32 24L33 24L33 23L36 23L36 25L35 25L35 26L34 26L34 25L33 25L33 27L36 27L36 28L37 28L37 20L36 20L36 19L37 19L37 17L36 17L36 18L34 18L34 20L33 20L33 17L35 17L35 16L33 16L33 17L32 17L32 15L35 15L35 14L36 14L36 15L37 15L37 9L36 9L36 8L34 8L34 9L33 9L33 8L30 8L30 10L29 10L29 11L27 11L27 8L25 8L25 6ZM0 8L0 11L1 11L1 12L0 12L0 14L1 14L1 16L2 16L2 14L3 14L3 12L4 12L4 8L3 8L3 9L2 9L2 8ZM14 8L14 9L15 9L15 8ZM19 8L19 9L20 9L20 8ZM1 9L1 10L2 10L2 9ZM31 9L31 13L32 13L32 14L31 14L31 15L30 15L30 14L29 14L29 16L31 16L31 15L32 15L32 14L34 14L34 13L36 13L36 12L35 12L35 11L33 11L33 12L32 12L32 10L33 10L33 9ZM9 10L9 11L10 11L10 10ZM14 10L14 11L15 11L15 10ZM26 11L26 14L27 14L27 15L28 15L28 13L27 13L27 11ZM29 11L29 12L30 12L30 11ZM1 12L1 13L2 13L2 12ZM12 12L12 16L11 16L11 18L12 18L12 16L13 16L13 17L14 17L14 19L13 19L13 20L12 20L12 19L9 19L9 18L8 18L8 19L6 19L6 20L5 20L5 21L6 21L6 22L5 22L5 23L6 23L6 24L5 24L5 25L4 25L4 26L7 26L7 25L6 25L6 24L7 24L7 23L9 23L9 24L10 24L10 23L11 23L11 25L9 25L9 27L11 27L11 28L12 28L12 26L11 26L11 25L12 25L12 24L13 24L13 26L14 26L14 29L16 29L16 28L15 28L15 27L16 27L16 26L17 26L17 25L16 25L16 26L15 26L15 24L18 24L18 29L17 29L17 31L19 31L19 33L18 33L18 32L17 32L17 33L18 33L18 34L20 34L20 33L21 33L21 32L20 32L20 30L22 30L22 29L23 29L23 27L22 27L22 29L19 29L19 27L21 27L21 25L20 25L20 23L19 23L19 22L21 22L21 23L22 23L22 22L23 22L23 23L24 23L24 24L23 24L23 26L25 26L25 25L24 25L24 24L25 24L25 23L24 23L24 21L23 21L23 20L22 20L22 22L21 22L21 20L20 20L20 17L19 17L19 16L18 16L18 17L17 17L17 16L16 16L16 17L14 17L14 16L15 16L15 15L14 15L14 16L13 16L13 14L14 14L14 13L13 13L13 12ZM6 14L6 15L3 15L3 16L6 16L6 17L7 17L7 16L8 16L8 15L7 15L7 14ZM6 15L6 16L7 16L7 15ZM21 17L21 19L25 19L25 18L23 18L23 17ZM4 18L4 19L5 19L5 18ZM16 18L16 19L14 19L14 20L13 20L13 21L14 21L14 22L13 22L13 24L14 24L14 23L15 23L15 22L16 22L16 23L18 23L18 24L19 24L19 23L18 23L18 22L17 22L17 21L14 21L14 20L16 20L16 19L17 19L17 20L19 20L19 21L20 21L20 20L19 20L19 18ZM30 18L30 19L32 19L32 18ZM6 20L6 21L7 21L7 22L6 22L6 23L7 23L7 22L8 22L8 21L9 21L9 20ZM31 20L31 21L32 21L32 20ZM35 20L35 22L36 22L36 20ZM11 21L11 22L12 22L12 21ZM9 22L9 23L10 23L10 22ZM19 25L19 26L20 26L20 25ZM1 26L1 27L3 27L3 28L4 28L4 27L3 27L3 26ZM6 27L6 28L7 28L7 27ZM8 28L8 29L9 29L9 30L10 30L10 28ZM11 29L11 31L13 31L13 29ZM24 29L24 30L23 30L23 31L25 31L25 32L26 32L26 34L25 34L25 35L26 35L26 34L27 34L27 33L28 33L28 35L29 35L29 36L30 36L30 35L31 35L31 34L32 34L32 33L28 33L28 32L27 32L27 30L25 30L25 29ZM29 29L29 32L32 32L32 29ZM30 30L30 31L31 31L31 30ZM33 32L33 33L34 33L34 34L33 34L33 35L34 35L34 34L35 34L35 32ZM8 33L8 34L9 34L9 33ZM12 35L12 36L13 36L13 35ZM20 35L20 36L21 36L21 35ZM35 36L35 37L37 37L37 36ZM0 0L0 7L7 7L7 0ZM1 1L1 6L6 6L6 1ZM2 2L2 5L5 5L5 2ZM30 0L30 7L37 7L37 0ZM31 1L31 6L36 6L36 1ZM32 2L32 5L35 5L35 2ZM0 30L0 37L7 37L7 30ZM1 31L1 36L6 36L6 31ZM2 32L2 35L5 35L5 32Z" fill="#000000"/></g></g></svg>
