<?xml version="1.0" encoding="UTF-8"?>
<svg xmlns="http://www.w3.org/2000/svg" version="1.1" width="400" height="400" viewBox="0 0 400 400"><rect x="0" y="0" width="400" height="400" fill="#ffffff"/><g transform="scale(9.756)"><g transform="translate(2,2)"><path fill-rule="evenodd" d="M10 0L10 2L11 2L11 0ZM12 0L12 1L15 1L15 2L14 2L14 4L17 4L17 5L14 5L14 7L15 7L15 6L16 6L16 7L17 7L17 6L18 6L18 7L19 7L19 5L21 5L21 6L20 6L20 9L18 9L18 8L17 8L17 9L16 9L16 8L15 8L15 9L14 9L14 8L13 8L13 9L12 9L12 7L13 7L13 5L11 5L11 6L10 6L10 4L11 4L11 3L8 3L8 4L9 4L9 5L8 5L8 7L9 7L9 8L6 8L6 9L5 9L5 8L0 8L0 10L1 10L1 9L3 9L3 10L2 10L2 11L3 11L3 12L4 12L4 11L3 11L3 10L5 10L5 14L3 14L3 13L1 13L1 12L0 12L0 13L1 13L1 14L0 14L0 15L1 15L1 16L0 16L0 17L2 17L2 18L1 18L1 19L0 19L0 20L1 20L1 22L0 22L0 23L1 23L1 24L2 24L2 25L3 25L3 24L5 24L5 26L2 26L2 29L4 29L4 27L5 27L5 26L6 26L6 27L7 27L7 28L5 28L5 29L7 29L7 28L8 28L8 25L10 25L10 24L9 24L9 23L10 23L10 22L11 22L11 25L12 25L12 26L15 26L15 27L14 27L14 29L16 29L16 28L15 28L15 27L16 27L16 26L17 26L17 27L18 27L18 26L21 26L21 25L18 25L18 24L17 24L17 23L19 23L19 24L22 24L22 23L19 23L19 22L20 22L20 21L18 21L18 20L17 20L17 21L14 21L14 20L13 20L13 19L14 19L14 18L13 18L13 17L12 17L12 15L14 15L14 17L15 17L15 19L18 19L18 17L17 17L17 15L16 15L16 14L15 14L15 13L14 13L14 12L13 12L13 11L12 11L12 13L14 13L14 14L11 14L11 12L10 12L10 10L11 10L11 9L12 9L12 10L15 10L15 12L17 12L17 13L18 13L18 12L17 12L17 9L18 9L18 10L21 10L21 12L22 12L22 13L23 13L23 14L21 14L21 15L20 15L20 16L19 16L19 15L18 15L18 16L19 16L19 18L20 18L20 16L22 16L22 17L21 17L21 20L24 20L24 19L26 19L26 20L25 20L25 22L26 22L26 21L29 21L29 23L30 23L30 24L28 24L28 25L29 25L29 28L27 28L27 30L28 30L28 31L27 31L27 33L26 33L26 32L22 32L22 31L18 31L18 32L16 32L16 33L18 33L18 34L22 34L22 35L19 35L19 36L17 36L17 37L19 37L19 36L22 36L22 37L23 37L23 36L22 36L22 35L23 35L23 34L24 34L24 35L26 35L26 34L28 34L28 33L29 33L29 34L33 34L33 35L32 35L32 37L33 37L33 36L34 36L34 37L37 37L37 34L34 34L34 33L35 33L35 32L34 32L34 30L33 30L33 29L35 29L35 31L37 31L37 30L36 30L36 29L35 29L35 28L36 28L36 27L37 27L37 26L36 26L36 27L35 27L35 28L30 28L30 26L31 26L31 27L32 27L32 26L31 26L31 25L33 25L33 26L35 26L35 24L31 24L31 23L32 23L32 22L30 22L30 21L31 21L31 20L32 20L32 21L33 21L33 19L34 19L34 18L33 18L33 19L31 19L31 20L27 20L27 19L30 19L30 18L27 18L27 16L29 16L29 17L31 17L31 14L32 14L32 15L33 15L33 14L32 14L32 13L35 13L35 12L36 12L36 13L37 13L37 12L36 12L36 11L37 11L37 10L35 10L35 9L36 9L36 8L35 8L35 9L34 9L34 8L33 8L33 10L34 10L34 11L35 11L35 12L32 12L32 8L31 8L31 10L30 10L30 8L28 8L28 7L29 7L29 6L28 6L28 5L29 5L29 4L28 4L28 3L29 3L29 0L28 0L28 1L27 1L27 0L26 0L26 1L25 1L25 2L26 2L26 1L27 1L27 3L25 3L25 4L26 4L26 5L24 5L24 7L25 7L25 6L26 6L26 8L25 8L25 10L24 10L24 9L23 9L23 6L22 6L22 5L21 5L21 4L20 4L20 3L19 3L19 4L18 4L18 3L17 3L17 2L19 2L19 1L20 1L20 2L21 2L21 3L22 3L22 4L24 4L24 2L23 2L23 1L24 1L24 0L18 0L18 1L15 1L15 0ZM8 1L8 2L9 2L9 1ZM12 2L12 4L13 4L13 2ZM22 2L22 3L23 3L23 2ZM27 4L27 5L26 5L26 6L27 6L27 7L28 7L28 6L27 6L27 5L28 5L28 4ZM9 6L9 7L10 7L10 6ZM11 6L11 7L12 7L12 6ZM21 6L21 7L22 7L22 6ZM10 8L10 9L11 9L11 8ZM21 8L21 9L22 9L22 8ZM6 9L6 10L7 10L7 9ZM8 9L8 11L9 11L9 9ZM26 9L26 10L28 10L28 11L27 11L27 12L28 12L28 13L26 13L26 14L28 14L28 15L29 15L29 14L31 14L31 13L32 13L32 12L31 12L31 11L29 11L29 10L28 10L28 9ZM23 10L23 11L22 11L22 12L23 12L23 11L24 11L24 12L26 12L26 11L24 11L24 10ZM6 11L6 12L7 12L7 13L6 13L6 14L7 14L7 15L6 15L6 16L5 16L5 15L4 15L4 16L3 16L3 14L1 14L1 15L2 15L2 16L3 16L3 18L2 18L2 20L5 20L5 18L4 18L4 16L5 16L5 17L6 17L6 18L7 18L7 17L8 17L8 15L9 15L9 16L10 16L10 17L11 17L11 18L8 18L8 19L6 19L6 20L7 20L7 21L5 21L5 22L7 22L7 21L9 21L9 22L8 22L8 23L5 23L5 24L8 24L8 23L9 23L9 22L10 22L10 21L9 21L9 19L11 19L11 22L14 22L14 21L12 21L12 19L13 19L13 18L12 18L12 17L11 17L11 16L10 16L10 15L11 15L11 14L10 14L10 12L9 12L9 13L8 13L8 12L7 12L7 11ZM19 11L19 12L20 12L20 11ZM29 12L29 13L31 13L31 12ZM19 13L19 14L20 14L20 13ZM24 13L24 14L23 14L23 15L22 15L22 16L23 16L23 17L22 17L22 18L23 18L23 19L24 19L24 18L25 18L25 17L26 17L26 16L27 16L27 15L25 15L25 13ZM35 14L35 16L34 16L34 17L35 17L35 16L37 16L37 14ZM6 16L6 17L7 17L7 16ZM24 16L24 17L23 17L23 18L24 18L24 17L25 17L25 16ZM32 16L32 17L33 17L33 16ZM35 18L35 19L36 19L36 20L35 20L35 21L34 21L34 23L37 23L37 22L36 22L36 21L37 21L37 18ZM19 19L19 20L20 20L20 19ZM2 21L2 22L3 22L3 23L4 23L4 21ZM17 21L17 22L16 22L16 23L17 23L17 22L18 22L18 21ZM21 21L21 22L22 22L22 21ZM23 21L23 22L24 22L24 21ZM27 22L27 23L26 23L26 24L24 24L24 25L22 25L22 26L24 26L24 27L23 27L23 28L24 28L24 29L23 29L23 30L24 30L24 31L26 31L26 30L25 30L25 29L26 29L26 28L25 28L25 26L24 26L24 25L27 25L27 23L28 23L28 22ZM12 23L12 24L14 24L14 25L15 25L15 23ZM36 24L36 25L37 25L37 24ZM0 25L0 29L1 29L1 25ZM6 25L6 26L7 26L7 25ZM26 26L26 27L28 27L28 26ZM19 27L19 28L22 28L22 27ZM11 28L11 30L10 30L10 29L8 29L8 31L9 31L9 32L8 32L8 37L11 37L11 36L12 36L12 35L14 35L14 36L13 36L13 37L14 37L14 36L15 36L15 37L16 37L16 36L15 36L15 35L16 35L16 34L15 34L15 35L14 35L14 34L13 34L13 30L12 30L12 28ZM17 28L17 29L18 29L18 30L22 30L22 29L18 29L18 28ZM29 29L29 32L32 32L32 29ZM11 30L11 31L10 31L10 32L11 32L11 33L12 33L12 32L11 32L11 31L12 31L12 30ZM14 30L14 33L15 33L15 31L16 31L16 30ZM30 30L30 31L31 31L31 30ZM18 32L18 33L22 33L22 34L23 34L23 33L22 33L22 32ZM36 32L36 33L37 33L37 32ZM9 33L9 35L12 35L12 34L10 34L10 33ZM27 35L27 36L29 36L29 37L31 37L31 36L29 36L29 35ZM34 35L34 36L36 36L36 35ZM25 36L25 37L26 37L26 36ZM0 0L0 7L7 7L7 0ZM1 1L1 6L6 6L6 1ZM2 2L2 5L5 5L5 2ZM30 0L30 7L37 7L37 0ZM31 1L31 6L36 6L36 1ZM32 2L32 5L35 5L35 2ZM0 30L0 37L7 37L7 30ZM1 31L1 36L6 36L6 31ZM2 32L2 35L5 35L5 32Z" fill="#000000"/></g></g></svg>
