<?xml version="1.0" encoding="UTF-8"?>
<svg xmlns="http://www.w3.org/2000/svg" version="1.1" width="400" height="400" viewBox="0 0 400 400"><rect x="0" y="0" width="400" height="400" fill="#ffffff"/><g transform="scale(9.756)"><g transform="translate(2,2)"><path fill-rule="evenodd" d="M9 0L9 1L8 1L8 2L9 2L9 3L8 3L8 4L10 4L10 7L11 7L11 4L12 4L12 5L13 5L13 6L12 6L12 9L14 9L14 11L15 11L15 13L14 13L14 12L13 12L13 13L12 13L12 11L13 11L13 10L9 10L9 11L11 11L11 12L9 12L9 13L10 13L10 14L9 14L9 15L8 15L8 13L7 13L7 12L8 12L8 9L11 9L11 8L6 8L6 9L5 9L5 8L0 8L0 9L4 9L4 12L5 12L5 11L7 11L7 12L6 12L6 13L5 13L5 14L6 14L6 15L8 15L8 16L6 16L6 17L7 17L7 18L6 18L6 19L7 19L7 18L8 18L8 20L6 20L6 21L7 21L7 22L6 22L6 23L7 23L7 24L4 24L4 23L5 23L5 22L3 22L3 21L4 21L4 20L5 20L5 18L3 18L3 16L4 16L4 17L5 17L5 16L4 16L4 15L2 15L2 17L1 17L1 18L3 18L3 20L2 20L2 22L1 22L1 23L0 23L0 24L4 24L4 25L3 25L3 26L4 26L4 27L3 27L3 28L2 28L2 29L7 29L7 28L4 28L4 27L5 27L5 26L4 26L4 25L7 25L7 26L6 26L6 27L8 27L8 26L9 26L9 28L12 28L12 29L10 29L10 30L9 30L9 29L8 29L8 31L10 31L10 33L9 33L9 32L8 32L8 37L9 37L9 36L11 36L11 34L12 34L12 36L13 36L13 37L14 37L14 36L13 36L13 34L15 34L15 37L16 37L16 36L17 36L17 37L18 37L18 36L19 36L19 35L18 35L18 36L17 36L17 34L15 34L15 33L16 33L16 32L15 32L15 33L14 33L14 32L13 32L13 31L16 31L16 30L13 30L13 26L12 26L12 24L11 24L11 23L9 23L9 24L10 24L10 25L7 25L7 24L8 24L8 22L10 22L10 21L9 21L9 19L10 19L10 16L11 16L11 15L10 15L10 14L11 14L11 13L12 13L12 14L13 14L13 15L12 15L12 17L13 17L13 18L11 18L11 21L12 21L12 22L13 22L13 20L12 20L12 19L13 19L13 18L15 18L15 20L14 20L14 21L15 21L15 23L14 23L14 24L13 24L13 25L14 25L14 27L16 27L16 26L15 26L15 25L16 25L16 24L15 24L15 23L16 23L16 22L17 22L17 23L18 23L18 21L17 21L17 19L16 19L16 18L17 18L17 17L18 17L18 16L17 16L17 17L14 17L14 16L13 16L13 15L14 15L14 14L15 14L15 15L17 15L17 13L18 13L18 14L20 14L20 12L22 12L22 13L23 13L23 14L21 14L21 16L22 16L22 17L21 17L21 19L20 19L20 20L24 20L24 19L26 19L26 20L25 20L25 22L26 22L26 21L29 21L29 23L30 23L30 24L28 24L28 25L29 25L29 28L27 28L27 30L28 30L28 31L27 31L27 33L26 33L26 32L22 32L22 31L20 31L20 32L22 32L22 33L18 33L18 32L17 32L17 33L18 33L18 34L25 34L25 35L26 35L26 34L28 34L28 33L29 33L29 34L33 34L33 35L32 35L32 37L33 37L33 36L34 36L34 37L37 37L37 34L34 34L34 33L35 33L35 32L36 32L36 33L37 33L37 32L36 32L36 31L37 31L37 30L36 30L36 29L35 29L35 28L36 28L36 27L37 27L37 26L36 26L36 27L35 27L35 28L30 28L30 26L31 26L31 25L33 25L33 26L32 26L32 27L33 27L33 26L35 26L35 24L31 24L31 22L30 22L30 21L31 21L31 20L32 20L32 21L33 21L33 19L34 19L34 18L33 18L33 19L31 19L31 20L29 20L29 19L30 19L30 18L27 18L27 16L29 16L29 17L31 17L31 14L32 14L32 15L33 15L33 14L32 14L32 13L35 13L35 12L36 12L36 13L37 13L37 12L36 12L36 11L37 11L37 10L35 10L35 9L36 9L36 8L35 8L35 9L34 9L34 8L33 8L33 10L34 10L34 11L35 11L35 12L32 12L32 8L31 8L31 10L30 10L30 8L28 8L28 7L29 7L29 6L28 6L28 5L29 5L29 4L28 4L28 3L29 3L29 0L28 0L28 1L27 1L27 0L26 0L26 1L25 1L25 2L26 2L26 1L27 1L27 3L25 3L25 4L26 4L26 5L24 5L24 7L25 7L25 6L26 6L26 8L25 8L25 10L24 10L24 9L23 9L23 6L22 6L22 5L21 5L21 3L22 3L22 4L24 4L24 2L23 2L23 1L24 1L24 0L17 0L17 1L18 1L18 2L19 2L19 1L21 1L21 2L20 2L20 4L18 4L18 3L17 3L17 4L16 4L16 3L14 3L14 4L15 4L15 6L14 6L14 5L13 5L13 4L12 4L12 2L13 2L13 1L11 1L11 2L10 2L10 0ZM14 0L14 1L15 1L15 2L16 2L16 1L15 1L15 0ZM22 2L22 3L23 3L23 2ZM10 3L10 4L11 4L11 3ZM17 4L17 5L18 5L18 4ZM27 4L27 5L26 5L26 6L27 6L27 7L28 7L28 6L27 6L27 5L28 5L28 4ZM8 5L8 7L9 7L9 5ZM19 5L19 7L18 7L18 6L17 6L17 8L14 8L14 6L13 6L13 8L14 8L14 9L15 9L15 10L16 10L16 11L17 11L17 12L18 12L18 13L19 13L19 12L20 12L20 11L21 11L21 9L22 9L22 8L21 8L21 7L22 7L22 6L21 6L21 5ZM15 6L15 7L16 7L16 6ZM20 6L20 7L19 7L19 8L20 8L20 7L21 7L21 6ZM17 8L17 11L19 11L19 10L20 10L20 9L18 9L18 8ZM6 9L6 10L7 10L7 9ZM26 9L26 10L28 10L28 11L27 11L27 12L28 12L28 13L26 13L26 14L28 14L28 15L29 15L29 14L31 14L31 13L32 13L32 12L31 12L31 11L29 11L29 10L28 10L28 9ZM0 10L0 13L1 13L1 14L4 14L4 13L3 13L3 10ZM23 10L23 11L22 11L22 12L23 12L23 11L24 11L24 12L26 12L26 11L24 11L24 10ZM29 12L29 13L31 13L31 12ZM6 13L6 14L7 14L7 13ZM13 13L13 14L14 14L14 13ZM24 13L24 14L23 14L23 15L22 15L22 16L23 16L23 17L22 17L22 18L23 18L23 19L24 19L24 18L25 18L25 17L26 17L26 16L27 16L27 15L25 15L25 13ZM35 14L35 16L34 16L34 17L35 17L35 16L37 16L37 14ZM0 15L0 16L1 16L1 15ZM19 15L19 16L20 16L20 15ZM8 16L8 17L9 17L9 16ZM24 16L24 17L23 17L23 18L24 18L24 17L25 17L25 16ZM32 16L32 17L33 17L33 16ZM19 17L19 18L20 18L20 17ZM35 18L35 19L36 19L36 20L35 20L35 21L34 21L34 23L37 23L37 22L36 22L36 21L37 21L37 18ZM18 19L18 20L19 20L19 19ZM0 20L0 21L1 21L1 20ZM19 21L19 22L22 22L22 21ZM23 21L23 22L24 22L24 21ZM27 22L27 23L26 23L26 24L24 24L24 25L22 25L22 26L24 26L24 27L23 27L23 28L24 28L24 29L23 29L23 30L24 30L24 31L26 31L26 30L25 30L25 29L26 29L26 28L25 28L25 26L24 26L24 25L27 25L27 23L28 23L28 22ZM20 23L20 24L22 24L22 23ZM14 24L14 25L15 25L15 24ZM17 24L17 25L18 25L18 26L17 26L17 27L19 27L19 28L20 28L20 29L18 29L18 28L16 28L16 29L17 29L17 31L18 31L18 30L22 30L22 29L21 29L21 28L22 28L22 27L21 27L21 25L18 25L18 24ZM36 24L36 25L37 25L37 24ZM0 25L0 29L1 29L1 25ZM11 26L11 27L12 27L12 26ZM19 26L19 27L20 27L20 28L21 28L21 27L20 27L20 26ZM26 26L26 27L28 27L28 26ZM14 28L14 29L15 29L15 28ZM29 29L29 32L32 32L32 29ZM33 29L33 30L34 30L34 32L35 32L35 29ZM11 30L11 31L13 31L13 30ZM30 30L30 31L31 31L31 30ZM11 32L11 33L13 33L13 32ZM20 35L20 36L22 36L22 37L23 37L23 35ZM27 35L27 36L29 36L29 37L31 37L31 36L29 36L29 35ZM34 35L34 36L36 36L36 35ZM25 36L25 37L26 37L26 36ZM0 0L0 7L7 7L7 0ZM1 1L1 6L6 6L6 1ZM2 2L2 5L5 5L5 2ZM30 0L30 7L37 7L37 0ZM31 1L31 6L36 6L36 1ZM32 2L32 5L35 5L35 2ZM0 30L0 37L7 37L7 30ZM1 31L1 36L6 36L6 31ZM2 32L2 35L5 35L5 32Z" fill="#000000"/></g></g></svg>
