<?xml version="1.0" encoding="UTF-8"?>
<svg xmlns="http://www.w3.org/2000/svg" version="1.1" width="400" height="400" viewBox="0 0 400 400"><rect x="0" y="0" width="400" height="400" fill="#ffffff"/><g transform="scale(9.756)"><g transform="translate(2,2)"><path fill-rule="evenodd" d="M8 0L8 4L9 4L9 5L8 5L8 7L9 7L9 6L10 6L10 9L9 9L9 11L7 11L7 10L8 10L8 9L7 9L7 8L4 8L4 10L2 10L2 8L0 8L0 10L2 10L2 11L3 11L3 13L2 13L2 12L0 12L0 13L2 13L2 14L0 14L0 16L2 16L2 14L3 14L3 13L5 13L5 12L4 12L4 10L5 10L5 9L7 9L7 10L6 10L6 11L7 11L7 12L6 12L6 13L7 13L7 14L6 14L6 15L5 15L5 14L4 14L4 15L3 15L3 16L4 16L4 17L5 17L5 16L6 16L6 17L7 17L7 18L6 18L6 19L5 19L5 20L2 20L2 19L0 19L0 20L2 20L2 21L3 21L3 24L2 24L2 23L1 23L1 22L0 22L0 23L1 23L1 25L0 25L0 26L3 26L3 24L4 24L4 27L3 27L3 28L0 28L0 29L5 29L5 28L4 28L4 27L5 27L5 26L6 26L6 27L7 27L7 28L6 28L6 29L8 29L8 30L9 30L9 31L8 31L8 33L9 33L9 35L8 35L8 37L10 37L10 34L11 34L11 36L12 36L12 35L14 35L14 33L15 33L15 36L14 36L14 37L15 37L15 36L16 36L16 33L15 33L15 32L14 32L14 33L12 33L12 31L13 31L13 30L14 30L14 31L16 31L16 32L17 32L17 33L18 33L18 34L17 34L17 37L18 37L18 35L19 35L19 33L22 33L22 35L20 35L20 36L19 36L19 37L23 37L23 36L22 36L22 35L24 35L24 34L25 34L25 35L26 35L26 34L25 34L25 31L26 31L26 30L27 30L27 28L26 28L26 29L25 29L25 28L24 28L24 29L23 29L23 30L22 30L22 31L20 31L20 32L19 32L19 29L20 29L20 27L21 27L21 29L22 29L22 28L23 28L23 27L24 27L24 25L25 25L25 26L26 26L26 27L28 27L28 31L27 31L27 32L26 32L26 33L27 33L27 32L28 32L28 33L29 33L29 34L28 34L28 35L27 35L27 36L26 36L26 37L28 37L28 35L29 35L29 37L32 37L32 36L33 36L33 37L37 37L37 36L36 36L36 35L34 35L34 34L33 34L33 35L32 35L32 36L31 36L31 33L33 33L33 32L34 32L34 33L35 33L35 30L36 30L36 29L35 29L35 27L36 27L36 28L37 28L37 27L36 27L36 26L35 26L35 24L36 24L36 25L37 25L37 23L34 23L34 29L33 29L33 28L31 28L31 27L32 27L32 26L33 26L33 25L31 25L31 24L32 24L32 23L33 23L33 22L36 22L36 21L37 21L37 20L36 20L36 19L35 19L35 18L34 18L34 17L35 17L35 14L34 14L34 13L35 13L35 11L34 11L34 13L32 13L32 10L33 10L33 9L34 9L34 10L35 10L35 9L37 9L37 8L33 8L33 9L32 9L32 8L31 8L31 9L32 9L32 10L31 10L31 11L29 11L29 10L30 10L30 9L29 9L29 6L28 6L28 7L27 7L27 5L29 5L29 3L28 3L28 2L29 2L29 0L27 0L27 1L26 1L26 0L25 0L25 1L26 1L26 2L27 2L27 3L25 3L25 2L24 2L24 4L25 4L25 5L24 5L24 7L23 7L23 6L22 6L22 7L21 7L21 5L22 5L22 4L21 4L21 3L23 3L23 1L24 1L24 0L22 0L22 2L21 2L21 1L19 1L19 0L16 0L16 3L15 3L15 5L14 5L14 3L13 3L13 2L14 2L14 1L15 1L15 0L13 0L13 1L11 1L11 2L12 2L12 5L14 5L14 8L12 8L12 7L13 7L13 6L12 6L12 7L11 7L11 3L10 3L10 2L9 2L9 0ZM17 1L17 2L18 2L18 1ZM27 1L27 2L28 2L28 1ZM19 2L19 5L21 5L21 4L20 4L20 2ZM16 3L16 5L15 5L15 7L16 7L16 10L17 10L17 11L16 11L16 12L15 12L15 11L14 11L14 10L13 10L13 9L12 9L12 8L11 8L11 9L10 9L10 10L11 10L11 12L10 12L10 11L9 11L9 12L10 12L10 13L11 13L11 14L12 14L12 13L14 13L14 14L13 14L13 15L12 15L12 16L11 16L11 18L8 18L8 20L9 20L9 21L8 21L8 23L6 23L6 22L7 22L7 21L4 21L4 23L6 23L6 24L7 24L7 25L6 25L6 26L7 26L7 25L8 25L8 23L9 23L9 24L11 24L11 22L12 22L12 21L10 21L10 20L12 20L12 19L13 19L13 20L14 20L14 21L15 21L15 22L16 22L16 20L17 20L17 21L18 21L18 22L17 22L17 23L18 23L18 22L19 22L19 24L18 24L18 25L17 25L17 24L16 24L16 23L14 23L14 22L13 22L13 24L12 24L12 27L11 27L11 26L10 26L10 25L9 25L9 26L8 26L8 27L9 27L9 28L8 28L8 29L10 29L10 30L11 30L11 29L12 29L12 28L14 28L14 29L15 29L15 28L16 28L16 27L15 27L15 26L14 26L14 27L13 27L13 24L14 24L14 25L16 25L16 26L17 26L17 27L20 27L20 26L21 26L21 27L22 27L22 26L21 26L21 25L19 25L19 24L20 24L20 23L22 23L22 22L23 22L23 21L24 21L24 22L25 22L25 25L27 25L27 24L28 24L28 23L27 23L27 22L26 22L26 21L28 21L28 22L29 22L29 23L30 23L30 24L31 24L31 21L30 21L30 22L29 22L29 21L28 21L28 20L29 20L29 19L30 19L30 18L31 18L31 19L33 19L33 20L32 20L32 21L33 21L33 20L34 20L34 21L35 21L35 20L34 20L34 19L33 19L33 18L31 18L31 17L29 17L29 16L32 16L32 17L33 17L33 16L34 16L34 14L33 14L33 15L32 15L32 13L29 13L29 12L28 12L28 11L27 11L27 12L26 12L26 11L25 11L25 10L26 10L26 9L28 9L28 8L26 8L26 5L27 5L27 4L26 4L26 5L25 5L25 8L23 8L23 7L22 7L22 8L23 8L23 9L24 9L24 11L23 11L23 10L22 10L22 9L21 9L21 10L20 10L20 9L19 9L19 8L18 8L18 9L19 9L19 10L17 10L17 7L18 7L18 6L17 6L17 7L16 7L16 5L18 5L18 3ZM19 6L19 7L20 7L20 8L21 8L21 7L20 7L20 6ZM14 8L14 9L15 9L15 8ZM21 10L21 11L20 11L20 14L21 14L21 16L20 16L20 15L19 15L19 13L18 13L18 12L19 12L19 11L17 11L17 12L16 12L16 14L15 14L15 15L14 15L14 16L12 16L12 17L13 17L13 19L15 19L15 20L16 20L16 19L17 19L17 20L18 20L18 19L19 19L19 18L17 18L17 17L18 17L18 16L19 16L19 17L20 17L20 18L21 18L21 19L20 19L20 20L19 20L19 21L22 21L22 18L21 18L21 17L23 17L23 19L24 19L24 20L25 20L25 19L26 19L26 20L28 20L28 15L29 15L29 14L28 14L28 13L26 13L26 14L24 14L24 13L25 13L25 11L24 11L24 12L23 12L23 11L22 11L22 10ZM12 11L12 12L11 12L11 13L12 13L12 12L13 12L13 11ZM36 11L36 13L37 13L37 11ZM14 12L14 13L15 13L15 12ZM17 13L17 14L16 14L16 15L15 15L15 16L14 16L14 17L15 17L15 18L16 18L16 17L17 17L17 16L16 16L16 15L17 15L17 14L18 14L18 13ZM22 13L22 15L23 15L23 13ZM4 15L4 16L5 16L5 15ZM6 15L6 16L7 16L7 17L10 17L10 16L9 16L9 15L8 15L8 16L7 16L7 15ZM25 15L25 16L26 16L26 17L24 17L24 16L23 16L23 17L24 17L24 19L25 19L25 18L27 18L27 15ZM15 16L15 17L16 17L16 16ZM0 17L0 18L3 18L3 17ZM6 19L6 20L7 20L7 19ZM9 19L9 20L10 20L10 19ZM9 22L9 23L10 23L10 22ZM26 23L26 24L27 24L27 23ZM22 24L22 25L24 25L24 24ZM18 25L18 26L19 26L19 25ZM28 25L28 26L29 26L29 28L30 28L30 26L29 26L29 25ZM9 26L9 27L10 27L10 28L11 28L11 27L10 27L10 26ZM18 28L18 29L19 29L19 28ZM16 29L16 30L17 30L17 31L18 31L18 30L17 30L17 29ZM29 29L29 32L32 32L32 29ZM34 29L34 30L35 30L35 29ZM24 30L24 31L25 31L25 30ZM30 30L30 31L31 31L31 30ZM36 31L36 33L37 33L37 31ZM10 32L10 33L11 33L11 32ZM18 32L18 33L19 33L19 32ZM0 0L0 7L7 7L7 0ZM1 1L1 6L6 6L6 1ZM2 2L2 5L5 5L5 2ZM30 0L30 7L37 7L37 0ZM31 1L31 6L36 6L36 1ZM32 2L32 5L35 5L35 2ZM0 30L0 37L7 37L7 30ZM1 31L1 36L6 36L6 31ZM2 32L2 35L5 35L5 32Z" fill="#000000"/></g></g></svg>
