<?xml version="1.0" encoding="UTF-8"?>
<svg xmlns="http://www.w3.org/2000/svg" version="1.1" width="400" height="400" viewBox="0 0 400 400"><rect x="0" y="0" width="400" height="400" fill="#ffffff"/><g transform="scale(9.756)"><g transform="translate(2,2)"><path fill-rule="evenodd" d="M9 0L9 1L11 1L11 2L9 2L9 3L8 3L8 5L9 5L9 6L8 6L8 7L9 7L9 9L8 9L8 8L5 8L5 9L2 9L2 8L0 8L0 11L4 11L4 12L2 12L2 13L0 13L0 14L1 14L1 15L2 15L2 16L0 16L0 17L1 17L1 18L0 18L0 20L1 20L1 18L2 18L2 19L3 19L3 18L5 18L5 19L7 19L7 20L5 20L5 23L10 23L10 25L14 25L14 24L16 24L16 26L14 26L14 28L12 28L12 27L13 27L13 26L11 26L11 28L5 28L5 27L10 27L10 26L6 26L6 25L8 25L8 24L6 24L6 25L5 25L5 24L4 24L4 25L5 25L5 27L4 27L4 26L2 26L2 27L4 27L4 28L3 28L3 29L4 29L4 28L5 28L5 29L8 29L8 32L9 32L9 33L10 33L10 34L9 34L9 35L8 35L8 37L13 37L13 34L12 34L12 32L11 32L11 33L10 33L10 31L12 31L12 30L13 30L13 29L14 29L14 30L15 30L15 36L14 36L14 37L15 37L15 36L16 36L16 34L17 34L17 35L18 35L18 37L21 37L21 35L20 35L20 36L19 36L19 34L20 34L20 33L19 33L19 32L17 32L17 33L16 33L16 31L18 31L18 30L19 30L19 31L20 31L20 32L21 32L21 30L22 30L22 31L23 31L23 32L25 32L25 33L22 33L22 34L24 34L24 35L23 35L23 36L25 36L25 35L26 35L26 34L27 34L27 33L28 33L28 34L32 34L32 33L34 33L34 34L33 34L33 35L32 35L32 36L30 36L30 37L32 37L32 36L33 36L33 35L36 35L36 37L37 37L37 34L35 34L35 32L36 32L36 33L37 33L37 30L36 30L36 29L35 29L35 28L36 28L36 27L37 27L37 26L36 26L36 27L32 27L32 26L31 26L31 24L32 24L32 23L31 23L31 22L30 22L30 21L31 21L31 20L32 20L32 22L34 22L34 23L33 23L33 25L34 25L34 26L35 26L35 25L37 25L37 24L35 24L35 25L34 25L34 23L37 23L37 22L36 22L36 21L37 21L37 18L36 18L36 20L35 20L35 22L34 22L34 21L33 21L33 20L34 20L34 19L35 19L35 18L34 18L34 17L35 17L35 16L37 16L37 14L35 14L35 15L33 15L33 14L34 14L34 11L35 11L35 13L37 13L37 12L36 12L36 11L37 11L37 10L34 10L34 11L33 11L33 14L32 14L32 10L33 10L33 9L34 9L34 8L32 8L32 9L31 9L31 10L30 10L30 9L28 9L28 7L29 7L29 6L28 6L28 7L27 7L27 6L26 6L26 5L27 5L27 4L26 4L26 3L28 3L28 2L27 2L27 0L25 0L25 1L24 1L24 0L23 0L23 1L20 1L20 2L19 2L19 0L18 0L18 1L17 1L17 0L16 0L16 1L17 1L17 2L15 2L15 3L13 3L13 4L12 4L12 2L14 2L14 0L13 0L13 1L12 1L12 0ZM23 1L23 3L22 3L22 4L24 4L24 5L23 5L23 7L22 7L22 5L21 5L21 7L20 7L20 5L18 5L18 4L20 4L20 3L21 3L21 2L20 2L20 3L19 3L19 2L17 2L17 3L15 3L15 5L14 5L14 4L13 4L13 5L12 5L12 4L11 4L11 7L10 7L10 6L9 6L9 7L10 7L10 8L11 8L11 10L13 10L13 11L12 11L12 12L11 12L11 14L10 14L10 17L11 17L11 18L8 18L8 20L7 20L7 21L6 21L6 22L8 22L8 21L9 21L9 22L10 22L10 21L9 21L9 19L10 19L10 20L11 20L11 19L12 19L12 21L11 21L11 24L12 24L12 23L13 23L13 24L14 24L14 22L17 22L17 21L15 21L15 20L16 20L16 19L15 19L15 20L14 20L14 19L12 19L12 18L14 18L14 17L16 17L16 18L17 18L17 20L18 20L18 21L19 21L19 20L20 20L20 21L21 21L21 22L18 22L18 23L16 23L16 24L17 24L17 26L16 26L16 27L15 27L15 28L14 28L14 29L15 29L15 30L16 30L16 29L15 29L15 28L18 28L18 29L17 29L17 30L18 30L18 29L23 29L23 28L27 28L27 25L28 25L28 27L29 27L29 25L30 25L30 23L29 23L29 22L28 22L28 24L26 24L26 23L25 23L25 25L26 25L26 26L25 26L25 27L24 27L24 26L23 26L23 25L22 25L22 23L21 23L21 22L22 22L22 20L23 20L23 21L24 21L24 22L23 22L23 23L24 23L24 22L25 22L25 21L26 21L26 22L27 22L27 21L26 21L26 20L31 20L31 18L33 18L33 17L34 17L34 16L33 16L33 17L32 17L32 14L31 14L31 13L30 13L30 12L31 12L31 11L29 11L29 10L28 10L28 11L27 11L27 9L24 9L24 10L22 10L22 11L21 11L21 9L22 9L22 8L23 8L23 7L24 7L24 8L27 8L27 7L26 7L26 6L25 6L25 7L24 7L24 5L26 5L26 4L25 4L25 3L26 3L26 1L25 1L25 2L24 2L24 1ZM9 3L9 5L10 5L10 3ZM17 3L17 4L18 4L18 3ZM28 4L28 5L29 5L29 4ZM13 5L13 6L12 6L12 9L13 9L13 6L14 6L14 11L17 11L17 9L18 9L18 8L15 8L15 6L14 6L14 5ZM16 5L16 7L17 7L17 5ZM18 6L18 7L19 7L19 6ZM19 8L19 10L20 10L20 8ZM1 9L1 10L2 10L2 9ZM6 9L6 10L4 10L4 11L5 11L5 12L4 12L4 15L5 15L5 16L3 16L3 17L2 17L2 18L3 18L3 17L5 17L5 16L8 16L8 17L9 17L9 16L8 16L8 15L9 15L9 14L8 14L8 13L9 13L9 11L10 11L10 10L8 10L8 12L7 12L7 11L6 11L6 10L7 10L7 9ZM25 10L25 11L26 11L26 12L27 12L27 11L26 11L26 10ZM18 11L18 12L17 12L17 14L16 14L16 12L14 12L14 14L13 14L13 13L12 13L12 14L13 14L13 15L12 15L12 17L14 17L14 16L13 16L13 15L14 15L14 14L15 14L15 15L18 15L18 12L19 12L19 14L21 14L21 15L19 15L19 16L21 16L21 15L22 15L22 17L21 17L21 18L20 18L20 17L18 17L18 16L17 16L17 17L18 17L18 19L20 19L20 20L21 20L21 19L22 19L22 17L23 17L23 19L24 19L24 17L23 17L23 16L24 16L24 15L28 15L28 13L29 13L29 11L28 11L28 13L27 13L27 14L26 14L26 13L25 13L25 12L23 12L23 11L22 11L22 12L23 12L23 13L22 13L22 14L21 14L21 13L20 13L20 12L21 12L21 11L20 11L20 12L19 12L19 11ZM5 12L5 15L7 15L7 14L6 14L6 13L7 13L7 12ZM24 13L24 14L23 14L23 15L24 15L24 14L25 14L25 13ZM2 14L2 15L3 15L3 14ZM29 14L29 16L25 16L25 18L26 18L26 17L27 17L27 19L28 19L28 17L31 17L31 14ZM6 17L6 18L7 18L7 17ZM13 20L13 21L12 21L12 22L13 22L13 21L14 21L14 20ZM24 20L24 21L25 21L25 20ZM0 21L0 23L2 23L2 24L1 24L1 25L0 25L0 29L1 29L1 25L2 25L2 24L3 24L3 23L4 23L4 21L2 21L2 22L1 22L1 21ZM19 23L19 25L18 25L18 26L20 26L20 25L21 25L21 24L20 24L20 23ZM30 26L30 28L31 28L31 26ZM18 27L18 28L19 28L19 27ZM22 27L22 28L23 28L23 27ZM9 29L9 30L10 30L10 29ZM11 29L11 30L12 30L12 29ZM25 29L25 30L26 30L26 31L25 31L25 32L26 32L26 33L25 33L25 34L26 34L26 33L27 33L27 32L28 32L28 29ZM29 29L29 32L32 32L32 29ZM34 29L34 30L35 30L35 31L33 31L33 32L35 32L35 31L36 31L36 30L35 30L35 29ZM30 30L30 31L31 31L31 30ZM13 32L13 33L14 33L14 32ZM17 33L17 34L18 34L18 33ZM11 34L11 35L12 35L12 34ZM28 35L28 37L29 37L29 35ZM26 36L26 37L27 37L27 36ZM0 0L0 7L7 7L7 0ZM1 1L1 6L6 6L6 1ZM2 2L2 5L5 5L5 2ZM30 0L30 7L37 7L37 0ZM31 1L31 6L36 6L36 1ZM32 2L32 5L35 5L35 2ZM0 30L0 37L7 37L7 30ZM1 31L1 36L6 36L6 31ZM2 32L2 35L5 35L5 32Z" fill="#000000"/></g></g></svg>
