<?xml version="1.0" encoding="UTF-8"?>
<svg xmlns="http://www.w3.org/2000/svg" version="1.1" width="400" height="400" viewBox="0 0 400 400"><rect x="0" y="0" width="400" height="400" fill="#ffffff"/><g transform="scale(9.756)"><g transform="translate(2,2)"><path fill-rule="evenodd" d="M8 0L8 4L10 4L10 3L11 3L11 4L12 4L12 2L11 2L11 0ZM12 0L12 1L14 1L14 0ZM15 0L15 1L16 1L16 2L14 2L14 3L13 3L13 5L11 5L11 6L10 6L10 7L9 7L9 5L8 5L8 7L9 7L9 8L10 8L10 7L11 7L11 6L12 6L12 8L11 8L11 9L10 9L10 10L11 10L11 12L10 12L10 11L9 11L9 12L8 12L8 11L7 11L7 10L8 10L8 9L7 9L7 8L4 8L4 9L3 9L3 10L5 10L5 9L7 9L7 10L6 10L6 11L4 11L4 12L5 12L5 13L7 13L7 14L6 14L6 15L7 15L7 16L6 16L6 17L7 17L7 18L5 18L5 17L3 17L3 16L5 16L5 14L3 14L3 16L2 16L2 13L3 13L3 11L2 11L2 10L1 10L1 9L2 9L2 8L0 8L0 10L1 10L1 11L2 11L2 13L1 13L1 12L0 12L0 13L1 13L1 14L0 14L0 15L1 15L1 16L0 16L0 17L1 17L1 18L2 18L2 19L1 19L1 20L2 20L2 21L1 21L1 22L0 22L0 23L1 23L1 22L2 22L2 23L3 23L3 24L0 24L0 26L1 26L1 25L2 25L2 26L3 26L3 28L0 28L0 29L3 29L3 28L5 28L5 27L4 27L4 26L6 26L6 27L7 27L7 26L6 26L6 25L7 25L7 24L8 24L8 22L6 22L6 21L7 21L7 20L8 20L8 19L7 19L7 18L9 18L9 19L10 19L10 18L9 18L9 14L8 14L8 13L10 13L10 17L12 17L12 18L11 18L11 20L10 20L10 23L11 23L11 20L12 20L12 21L13 21L13 22L14 22L14 21L16 21L16 22L15 22L15 24L16 24L16 26L15 26L15 25L14 25L14 24L13 24L13 23L12 23L12 24L9 24L9 25L8 25L8 26L10 26L10 25L12 25L12 26L11 26L11 27L9 27L9 28L11 28L11 30L9 30L9 29L8 29L8 28L6 28L6 29L8 29L8 30L9 30L9 31L8 31L8 33L9 33L9 31L12 31L12 28L13 28L13 27L14 27L14 29L13 29L13 30L14 30L14 33L13 33L13 32L12 32L12 33L11 33L11 36L10 36L10 34L9 34L9 35L8 35L8 37L9 37L9 36L10 36L10 37L11 37L11 36L12 36L12 37L14 37L14 36L13 36L13 34L14 34L14 33L15 33L15 35L16 35L16 36L17 36L17 37L23 37L23 36L25 36L25 35L26 35L26 34L25 34L25 31L26 31L26 30L27 30L27 28L26 28L26 29L25 29L25 28L24 28L24 29L23 29L23 30L22 30L22 31L19 31L19 29L22 29L22 28L23 28L23 27L24 27L24 25L25 25L25 26L26 26L26 27L28 27L28 31L27 31L27 32L26 32L26 33L27 33L27 32L28 32L28 33L29 33L29 34L28 34L28 35L27 35L27 36L26 36L26 37L28 37L28 35L29 35L29 37L32 37L32 36L33 36L33 37L37 37L37 36L36 36L36 35L34 35L34 34L33 34L33 35L32 35L32 36L31 36L31 33L33 33L33 32L34 32L34 33L35 33L35 32L36 32L36 33L37 33L37 31L35 31L35 30L36 30L36 29L35 29L35 27L36 27L36 28L37 28L37 27L36 27L36 26L35 26L35 24L36 24L36 25L37 25L37 23L34 23L34 29L33 29L33 28L31 28L31 27L32 27L32 26L33 26L33 25L31 25L31 24L30 24L30 23L29 23L29 22L30 22L30 21L31 21L31 22L32 22L32 23L33 23L33 22L36 22L36 21L37 21L37 20L36 20L36 19L35 19L35 18L34 18L34 17L35 17L35 14L34 14L34 13L35 13L35 11L34 11L34 13L32 13L32 10L33 10L33 9L34 9L34 10L35 10L35 9L37 9L37 8L33 8L33 9L32 9L32 8L31 8L31 9L32 9L32 10L31 10L31 11L29 11L29 10L30 10L30 9L29 9L29 6L28 6L28 7L27 7L27 5L29 5L29 3L28 3L28 2L29 2L29 0L27 0L27 1L26 1L26 0L25 0L25 1L26 1L26 2L27 2L27 3L25 3L25 2L24 2L24 4L25 4L25 5L24 5L24 7L23 7L23 6L22 6L22 7L21 7L21 5L22 5L22 4L21 4L21 5L19 5L19 4L20 4L20 3L19 3L19 2L20 2L20 1L19 1L19 0L18 0L18 1L16 1L16 0ZM22 0L22 2L21 2L21 3L23 3L23 1L24 1L24 0ZM27 1L27 2L28 2L28 1ZM9 2L9 3L10 3L10 2ZM14 3L14 5L13 5L13 8L12 8L12 9L11 9L11 10L12 10L12 9L13 9L13 8L14 8L14 9L15 9L15 10L13 10L13 11L12 11L12 12L11 12L11 16L12 16L12 17L13 17L13 16L14 16L14 17L15 17L15 18L13 18L13 19L12 19L12 20L13 20L13 21L14 21L14 19L15 19L15 20L16 20L16 21L17 21L17 23L16 23L16 24L17 24L17 23L22 23L22 22L23 22L23 21L24 21L24 22L25 22L25 25L27 25L27 24L28 24L28 23L27 23L27 22L26 22L26 21L28 21L28 22L29 22L29 21L28 21L28 19L30 19L30 18L31 18L31 19L33 19L33 20L32 20L32 21L33 21L33 20L34 20L34 21L35 21L35 20L34 20L34 19L33 19L33 18L31 18L31 17L29 17L29 16L32 16L32 17L33 17L33 16L34 16L34 14L33 14L33 15L32 15L32 13L29 13L29 12L28 12L28 11L27 11L27 12L26 12L26 11L25 11L25 10L26 10L26 9L28 9L28 8L26 8L26 5L27 5L27 4L26 4L26 5L25 5L25 8L23 8L23 7L22 7L22 8L23 8L23 9L24 9L24 11L23 11L23 10L22 10L22 9L21 9L21 8L20 8L20 6L19 6L19 8L18 8L18 9L17 9L17 8L16 8L16 5L17 5L17 4L18 4L18 3ZM15 4L15 5L16 5L16 4ZM14 6L14 7L15 7L15 6ZM17 6L17 7L18 7L18 6ZM19 8L19 9L18 9L18 10L17 10L17 9L16 9L16 10L15 10L15 11L14 11L14 12L12 12L12 13L13 13L13 15L12 15L12 16L13 16L13 15L14 15L14 14L15 14L15 16L16 16L16 18L15 18L15 19L16 19L16 20L17 20L17 21L18 21L18 22L19 22L19 21L20 21L20 22L21 22L21 21L22 21L22 18L21 18L21 17L23 17L23 19L24 19L24 20L25 20L25 19L26 19L26 20L27 20L27 19L28 19L28 15L29 15L29 14L28 14L28 13L26 13L26 14L24 14L24 13L25 13L25 11L24 11L24 12L23 12L23 11L22 11L22 10L21 10L21 12L20 12L20 11L19 11L19 9L20 9L20 8ZM16 10L16 14L19 14L19 15L18 15L18 16L17 16L17 15L16 15L16 16L17 16L17 17L18 17L18 18L16 18L16 19L18 19L18 18L19 18L19 19L20 19L20 20L21 20L21 18L20 18L20 15L21 15L21 14L20 14L20 13L19 13L19 12L18 12L18 13L17 13L17 10ZM6 11L6 12L7 12L7 11ZM36 11L36 13L37 13L37 11ZM14 12L14 13L15 13L15 12ZM22 13L22 15L23 15L23 13ZM25 15L25 16L26 16L26 17L24 17L24 16L23 16L23 17L24 17L24 19L25 19L25 18L27 18L27 15ZM1 16L1 17L2 17L2 16ZM7 16L7 17L8 17L8 16ZM3 18L3 19L2 19L2 20L3 20L3 21L2 21L2 22L3 22L3 21L5 21L5 20L4 20L4 18ZM6 19L6 20L7 20L7 19ZM18 20L18 21L19 21L19 20ZM5 22L5 24L7 24L7 23L6 23L6 22ZM26 23L26 24L27 24L27 23ZM3 24L3 26L4 26L4 24ZM18 24L18 25L19 25L19 27L22 27L22 26L21 26L21 25L19 25L19 24ZM22 24L22 25L24 25L24 24ZM28 25L28 26L29 26L29 28L30 28L30 26L29 26L29 25ZM14 26L14 27L15 27L15 29L14 29L14 30L15 30L15 29L16 29L16 30L18 30L18 29L19 29L19 28L18 28L18 29L17 29L17 28L16 28L16 27L15 27L15 26ZM17 26L17 27L18 27L18 26ZM29 29L29 32L32 32L32 29ZM34 29L34 30L35 30L35 29ZM24 30L24 31L25 31L25 30ZM30 30L30 31L31 31L31 30ZM15 31L15 32L16 32L16 31ZM18 31L18 33L16 33L16 34L18 34L18 33L19 33L19 35L23 35L23 33L19 33L19 31ZM0 0L0 7L7 7L7 0ZM1 1L1 6L6 6L6 1ZM2 2L2 5L5 5L5 2ZM30 0L30 7L37 7L37 0ZM31 1L31 6L36 6L36 1ZM32 2L32 5L35 5L35 2ZM0 30L0 37L7 37L7 30ZM1 31L1 36L6 36L6 31ZM2 32L2 35L5 35L5 32Z" fill="#000000"/></g></g></svg>
