<?xml version="1.0" encoding="UTF-8"?>
<svg xmlns="http://www.w3.org/2000/svg" version="1.1" width="400" height="400" viewBox="0 0 400 400"><rect x="0" y="0" width="400" height="400" fill="#ffffff"/><g transform="scale(9.756)"><g transform="translate(2,2)"><path fill-rule="evenodd" d="M9 0L9 1L11 1L11 2L9 2L9 3L8 3L8 5L9 5L9 6L8 6L8 7L9 7L9 9L10 9L10 10L9 10L9 11L8 11L8 8L5 8L5 9L2 9L2 8L0 8L0 9L1 9L1 10L0 10L0 11L1 11L1 10L2 10L2 12L3 12L3 10L5 10L5 11L8 11L8 12L6 12L6 13L5 13L5 12L4 12L4 14L3 14L3 13L0 13L0 14L1 14L1 15L0 15L0 16L3 16L3 15L4 15L4 14L5 14L5 15L7 15L7 14L8 14L8 13L9 13L9 12L10 12L10 10L11 10L11 12L12 12L12 11L14 11L14 14L13 14L13 13L12 13L12 14L13 14L13 15L12 15L12 17L14 17L14 23L15 23L15 24L14 24L14 28L13 28L13 26L12 26L12 25L11 25L11 26L12 26L12 27L10 27L10 28L12 28L12 29L10 29L10 30L9 30L9 29L8 29L8 32L9 32L9 34L10 34L10 35L8 35L8 37L9 37L9 36L11 36L11 37L14 37L14 36L13 36L13 34L12 34L12 35L11 35L11 33L10 33L10 32L11 32L11 31L14 31L14 32L12 32L12 33L14 33L14 32L15 32L15 34L14 34L14 35L16 35L16 36L15 36L15 37L17 37L17 33L18 33L18 34L20 34L20 33L18 33L18 32L17 32L17 33L16 33L16 31L17 31L17 30L19 30L19 31L20 31L20 32L21 32L21 26L24 26L24 27L22 27L22 28L24 28L24 29L23 29L23 30L22 30L22 31L25 31L25 29L26 29L26 28L27 28L27 29L28 29L28 32L27 32L27 33L28 33L28 34L32 34L32 33L34 33L34 34L33 34L33 35L32 35L32 36L30 36L30 37L32 37L32 36L33 36L33 35L36 35L36 37L37 37L37 34L35 34L35 32L36 32L36 33L37 33L37 32L36 32L36 31L37 31L37 30L36 30L36 29L35 29L35 28L36 28L36 27L37 27L37 26L36 26L36 27L32 27L32 26L31 26L31 23L32 23L32 24L33 24L33 25L34 25L34 26L35 26L35 25L37 25L37 24L35 24L35 25L34 25L34 23L37 23L37 22L36 22L36 21L37 21L37 18L36 18L36 20L35 20L35 22L34 22L34 21L33 21L33 20L34 20L34 19L35 19L35 18L34 18L34 17L35 17L35 16L37 16L37 14L35 14L35 15L33 15L33 14L34 14L34 11L35 11L35 13L37 13L37 12L36 12L36 11L37 11L37 10L34 10L34 11L33 11L33 14L32 14L32 10L33 10L33 9L34 9L34 8L32 8L32 9L31 9L31 10L30 10L30 9L29 9L29 8L27 8L27 6L26 6L26 5L27 5L27 4L26 4L26 3L25 3L25 4L26 4L26 5L24 5L24 7L25 7L25 6L26 6L26 8L25 8L25 10L24 10L24 9L23 9L23 6L22 6L22 9L23 9L23 10L21 10L21 9L18 9L18 8L17 8L17 6L18 6L18 7L19 7L19 8L20 8L20 7L21 7L21 6L20 6L20 7L19 7L19 5L21 5L21 4L22 4L22 2L23 2L23 4L24 4L24 2L23 2L23 1L22 1L22 0L21 0L21 1L22 1L22 2L20 2L20 3L21 3L21 4L18 4L18 3L17 3L17 4L18 4L18 5L16 5L16 8L17 8L17 9L15 9L15 10L11 10L11 8L10 8L10 7L11 7L11 4L12 4L12 5L13 5L13 6L12 6L12 9L14 9L14 8L15 8L15 6L14 6L14 5L15 5L15 4L16 4L16 2L15 2L15 1L14 1L14 0L13 0L13 1L12 1L12 0ZM16 0L16 1L17 1L17 0ZM18 0L18 2L19 2L19 0ZM25 0L25 2L26 2L26 0ZM13 1L13 2L12 2L12 4L13 4L13 5L14 5L14 4L13 4L13 3L14 3L14 1ZM28 1L28 2L27 2L27 3L28 3L28 5L29 5L29 1ZM9 3L9 5L10 5L10 3ZM9 6L9 7L10 7L10 6ZM13 6L13 8L14 8L14 6ZM28 6L28 7L29 7L29 6ZM6 9L6 10L7 10L7 9ZM28 9L28 12L29 12L29 13L28 13L28 15L27 15L27 17L28 17L28 19L27 19L27 18L25 18L25 17L26 17L26 15L25 15L25 13L26 13L26 14L27 14L27 12L26 12L26 11L24 11L24 10L23 10L23 11L21 11L21 10L19 10L19 11L17 11L17 10L16 10L16 11L15 11L15 12L16 12L16 13L15 13L15 14L16 14L16 13L17 13L17 16L14 16L14 15L13 15L13 16L14 16L14 17L15 17L15 18L16 18L16 17L17 17L17 18L18 18L18 19L17 19L17 21L15 21L15 22L16 22L16 24L17 24L17 25L16 25L16 27L17 27L17 28L18 28L18 29L20 29L20 28L19 28L19 27L20 27L20 26L19 26L19 27L17 27L17 26L18 26L18 25L19 25L19 24L20 24L20 23L21 23L21 25L22 25L22 24L25 24L25 25L24 25L24 26L25 26L25 28L26 28L26 26L27 26L27 25L28 25L28 27L29 27L29 25L30 25L30 23L29 23L29 22L28 22L28 24L26 24L26 23L27 23L27 22L25 22L25 20L26 20L26 19L27 19L27 20L28 20L28 19L29 19L29 20L31 20L31 21L30 21L30 22L32 22L32 23L34 23L34 22L32 22L32 20L31 20L31 18L33 18L33 17L34 17L34 16L33 16L33 17L32 17L32 14L31 14L31 13L30 13L30 12L31 12L31 11L29 11L29 9ZM16 11L16 12L17 12L17 11ZM20 11L20 13L18 13L18 14L20 14L20 13L21 13L21 15L19 15L19 16L21 16L21 15L22 15L22 17L23 17L23 19L22 19L22 18L20 18L20 17L19 17L19 19L18 19L18 20L19 20L19 19L20 19L20 20L21 20L21 19L22 19L22 20L24 20L24 19L25 19L25 18L24 18L24 17L25 17L25 16L24 16L24 17L23 17L23 14L24 14L24 13L25 13L25 12L24 12L24 11L23 11L23 12L24 12L24 13L23 13L23 14L22 14L22 13L21 13L21 11ZM6 13L6 14L7 14L7 13ZM2 14L2 15L3 15L3 14ZM9 14L9 15L8 15L8 16L4 16L4 17L3 17L3 18L2 18L2 17L1 17L1 19L3 19L3 20L1 20L1 21L0 21L0 29L1 29L1 25L2 25L2 27L3 27L3 25L4 25L4 26L5 26L5 27L4 27L4 28L3 28L3 29L7 29L7 28L6 28L6 27L8 27L8 28L9 28L9 27L8 27L8 26L10 26L10 24L11 24L11 21L12 21L12 22L13 22L13 20L12 20L12 19L13 19L13 18L12 18L12 19L11 19L11 18L10 18L10 17L9 17L9 16L11 16L11 15L10 15L10 14ZM29 14L29 17L31 17L31 14ZM17 16L17 17L18 17L18 16ZM6 17L6 18L7 18L7 19L5 19L5 18L3 18L3 19L5 19L5 20L4 20L4 22L3 22L3 21L1 21L1 24L2 24L2 23L5 23L5 21L6 21L6 22L7 22L7 21L8 21L8 22L9 22L9 23L8 23L8 25L9 25L9 24L10 24L10 21L11 21L11 20L10 20L10 19L8 19L8 18L9 18L9 17ZM15 19L15 20L16 20L16 19ZM6 20L6 21L7 21L7 20ZM17 21L17 23L18 23L18 21ZM19 21L19 22L20 22L20 21ZM22 21L22 22L24 22L24 21ZM6 23L6 24L5 24L5 25L6 25L6 26L7 26L7 25L6 25L6 24L7 24L7 23ZM30 26L30 28L32 28L32 27L31 27L31 26ZM14 28L14 29L13 29L13 30L14 30L14 31L15 31L15 30L14 30L14 29L16 29L16 30L17 30L17 29L16 29L16 28ZM29 29L29 32L32 32L32 29ZM34 29L34 30L35 30L35 31L33 31L33 32L35 32L35 31L36 31L36 30L35 30L35 29ZM10 30L10 31L9 31L9 32L10 32L10 31L11 31L11 30ZM26 30L26 31L27 31L27 30ZM30 30L30 31L31 31L31 30ZM22 32L22 33L23 33L23 34L24 34L24 35L26 35L26 32ZM18 35L18 36L19 36L19 37L21 37L21 35L20 35L20 36L19 36L19 35ZM22 35L22 36L23 36L23 37L24 37L24 36L23 36L23 35ZM28 35L28 37L29 37L29 35ZM26 36L26 37L27 37L27 36ZM0 0L0 7L7 7L7 0ZM1 1L1 6L6 6L6 1ZM2 2L2 5L5 5L5 2ZM30 0L30 7L37 7L37 0ZM31 1L31 6L36 6L36 1ZM32 2L32 5L35 5L35 2ZM0 30L0 37L7 37L7 30ZM1 31L1 36L6 36L6 31ZM2 32L2 35L5 35L5 32Z" fill="#000000"/></g></g></svg>
