<?xml version="1.0" encoding="UTF-8"?>
<svg xmlns="http://www.w3.org/2000/svg" version="1.1" width="400" height="400" viewBox="0 0 400 400"><rect x="0" y="0" width="400" height="400" fill="#ffffff"/><g transform="scale(9.756)"><g transform="translate(2,2)"><path fill-rule="evenodd" d="M10 0L10 2L11 2L11 0ZM12 0L12 1L13 1L13 0ZM14 0L14 4L15 4L15 3L16 3L16 4L17 4L17 6L16 6L16 5L14 5L14 8L13 8L13 9L12 9L12 7L13 7L13 5L11 5L11 6L10 6L10 4L11 4L11 3L8 3L8 4L9 4L9 5L8 5L8 7L9 7L9 8L6 8L6 9L5 9L5 8L0 8L0 9L3 9L3 10L5 10L5 11L8 11L8 12L10 12L10 11L11 11L11 9L12 9L12 10L13 10L13 9L14 9L14 11L15 11L15 12L14 12L14 13L15 13L15 12L17 12L17 13L18 13L18 12L17 12L17 10L15 10L15 9L18 9L18 10L21 10L21 12L22 12L22 13L21 13L21 15L20 15L20 16L19 16L19 15L18 15L18 16L19 16L19 18L20 18L20 16L22 16L22 17L23 17L23 18L21 18L21 20L22 20L22 21L21 21L21 22L20 22L20 21L18 21L18 20L17 20L17 21L14 21L14 20L13 20L13 19L14 19L14 18L15 18L15 19L18 19L18 17L17 17L17 15L16 15L16 14L14 14L14 15L15 15L15 17L14 17L14 16L13 16L13 17L12 17L12 15L13 15L13 14L11 14L11 13L10 13L10 14L9 14L9 15L7 15L7 14L5 14L5 15L3 15L3 13L4 13L4 12L3 12L3 11L2 11L2 15L1 15L1 18L0 18L0 19L1 19L1 18L2 18L2 19L3 19L3 20L5 20L5 19L7 19L7 20L6 20L6 21L3 21L3 23L2 23L2 22L1 22L1 21L0 21L0 22L1 22L1 23L0 23L0 29L1 29L1 26L2 26L2 25L4 25L4 28L3 28L3 27L2 27L2 28L3 28L3 29L4 29L4 28L5 28L5 29L8 29L8 31L9 31L9 32L8 32L8 37L10 37L10 36L13 36L13 37L14 37L14 36L13 36L13 35L10 35L10 33L11 33L11 34L13 34L13 33L14 33L14 35L16 35L16 34L15 34L15 33L14 33L14 32L15 32L15 31L16 31L16 30L15 30L15 29L16 29L16 28L15 28L15 27L16 27L16 26L17 26L17 27L18 27L18 26L20 26L20 27L19 27L19 28L22 28L22 27L21 27L21 26L22 26L22 25L18 25L18 24L17 24L17 23L19 23L19 24L24 24L24 25L23 25L23 26L24 26L24 27L25 27L25 26L26 26L26 25L27 25L27 23L28 23L28 22L27 22L27 21L29 21L29 23L30 23L30 24L28 24L28 25L29 25L29 28L27 28L27 27L28 27L28 26L27 26L27 27L26 27L26 28L23 28L23 29L22 29L22 30L25 30L25 29L27 29L27 30L26 30L26 31L27 31L27 34L28 34L28 33L29 33L29 34L33 34L33 35L32 35L32 37L33 37L33 36L34 36L34 37L37 37L37 34L34 34L34 33L35 33L35 32L34 32L34 30L33 30L33 29L35 29L35 31L37 31L37 30L36 30L36 29L35 29L35 28L36 28L36 27L37 27L37 26L36 26L36 27L35 27L35 28L32 28L32 26L31 26L31 25L33 25L33 26L35 26L35 24L31 24L31 23L33 23L33 22L30 22L30 21L31 21L31 20L32 20L32 21L33 21L33 19L34 19L34 18L33 18L33 19L31 19L31 20L28 20L28 19L30 19L30 18L26 18L26 17L31 17L31 14L32 14L32 15L33 15L33 14L32 14L32 13L35 13L35 12L36 12L36 13L37 13L37 12L36 12L36 11L37 11L37 10L35 10L35 9L36 9L36 8L35 8L35 9L34 9L34 8L33 8L33 10L34 10L34 11L35 11L35 12L32 12L32 8L31 8L31 10L30 10L30 8L29 8L29 11L28 11L28 10L27 10L27 9L28 9L28 8L24 8L24 7L25 7L25 6L26 6L26 7L27 7L27 6L28 6L28 7L29 7L29 6L28 6L28 5L29 5L29 3L28 3L28 1L29 1L29 0L28 0L28 1L26 1L26 3L25 3L25 4L26 4L26 5L24 5L24 4L23 4L23 0L22 0L22 2L21 2L21 0L18 0L18 1L15 1L15 0ZM8 1L8 2L9 2L9 1ZM19 1L19 2L16 2L16 3L18 3L18 4L19 4L19 3L20 3L20 4L22 4L22 3L21 3L21 2L20 2L20 1ZM24 1L24 2L25 2L25 1ZM12 2L12 4L13 4L13 2ZM27 4L27 5L26 5L26 6L27 6L27 5L28 5L28 4ZM19 5L19 7L18 7L18 6L17 6L17 8L18 8L18 9L20 9L20 6L21 6L21 7L22 7L22 8L21 8L21 10L22 10L22 11L23 11L23 13L24 13L24 14L23 14L23 15L22 15L22 16L23 16L23 17L24 17L24 18L23 18L23 19L22 19L22 20L23 20L23 21L22 21L22 22L23 22L23 23L24 23L24 22L25 22L25 21L26 21L26 20L27 20L27 19L25 19L25 16L26 16L26 15L24 15L24 14L25 14L25 13L24 13L24 12L26 12L26 11L27 11L27 10L26 10L26 9L24 9L24 10L23 10L23 9L22 9L22 8L23 8L23 7L24 7L24 5L23 5L23 7L22 7L22 6L21 6L21 5ZM9 6L9 7L10 7L10 6ZM11 6L11 7L12 7L12 6ZM15 6L15 7L16 7L16 6ZM10 8L10 9L8 9L8 10L10 10L10 9L11 9L11 8ZM14 8L14 9L15 9L15 8ZM6 9L6 10L7 10L7 9ZM0 10L0 11L1 11L1 10ZM25 10L25 11L26 11L26 10ZM12 11L12 13L13 13L13 11ZM19 11L19 12L20 12L20 11ZM29 11L29 12L27 12L27 13L26 13L26 14L31 14L31 13L32 13L32 12L31 12L31 11ZM0 12L0 13L1 13L1 12ZM5 12L5 13L7 13L7 12ZM29 12L29 13L31 13L31 12ZM19 13L19 14L20 14L20 13ZM35 14L35 16L34 16L34 17L35 17L35 16L37 16L37 14ZM2 15L2 16L3 16L3 15ZM5 15L5 16L7 16L7 15ZM23 15L23 16L24 16L24 15ZM27 15L27 16L29 16L29 15ZM8 16L8 17L6 17L6 18L7 18L7 19L8 19L8 20L7 20L7 21L6 21L6 22L7 22L7 23L6 23L6 24L5 24L5 22L4 22L4 24L5 24L5 27L6 27L6 28L7 28L7 27L6 27L6 26L7 26L7 25L6 25L6 24L8 24L8 25L9 25L9 26L8 26L8 29L9 29L9 30L10 30L10 31L12 31L12 30L14 30L14 29L15 29L15 28L14 28L14 26L15 26L15 25L14 25L14 24L15 24L15 22L13 22L13 21L12 21L12 19L13 19L13 18L14 18L14 17L13 17L13 18L12 18L12 17L11 17L11 16ZM32 16L32 17L33 17L33 16ZM3 17L3 19L5 19L5 17ZM8 17L8 19L9 19L9 20L8 20L8 21L9 21L9 22L8 22L8 24L9 24L9 25L10 25L10 21L11 21L11 20L10 20L10 18L11 18L11 17ZM35 18L35 19L36 19L36 20L35 20L35 21L34 21L34 23L37 23L37 22L36 22L36 21L37 21L37 18ZM19 19L19 20L20 20L20 19ZM9 20L9 21L10 21L10 20ZM24 20L24 21L23 21L23 22L24 22L24 21L25 21L25 20ZM17 21L17 22L16 22L16 23L17 23L17 22L18 22L18 21ZM11 22L11 25L12 25L12 26L13 26L13 24L12 24L12 23L13 23L13 22ZM19 22L19 23L20 23L20 22ZM1 23L1 24L2 24L2 23ZM25 23L25 24L26 24L26 23ZM36 24L36 25L37 25L37 24ZM10 26L10 27L11 27L11 26ZM30 26L30 28L31 28L31 26ZM10 28L10 29L11 29L11 30L12 30L12 28ZM13 28L13 29L14 29L14 28ZM17 28L17 29L18 29L18 30L20 30L20 31L18 31L18 32L16 32L16 33L18 33L18 34L20 34L20 35L19 35L19 36L17 36L17 37L19 37L19 36L22 36L22 37L24 37L24 36L25 36L25 37L26 37L26 36L25 36L25 35L26 35L26 34L25 34L25 33L26 33L26 32L25 32L25 33L23 33L23 34L24 34L24 35L23 35L23 36L22 36L22 35L21 35L21 34L22 34L22 33L18 33L18 32L22 32L22 31L21 31L21 29L18 29L18 28ZM29 29L29 32L32 32L32 29ZM27 30L27 31L28 31L28 30ZM30 30L30 31L31 31L31 30ZM13 31L13 32L14 32L14 31ZM11 32L11 33L12 33L12 32ZM36 32L36 33L37 33L37 32ZM9 35L9 36L10 36L10 35ZM27 35L27 36L29 36L29 37L31 37L31 36L29 36L29 35ZM34 35L34 36L36 36L36 35ZM15 36L15 37L16 37L16 36ZM0 0L0 7L7 7L7 0ZM1 1L1 6L6 6L6 1ZM2 2L2 5L5 5L5 2ZM30 0L30 7L37 7L37 0ZM31 1L31 6L36 6L36 1ZM32 2L32 5L35 5L35 2ZM0 30L0 37L7 37L7 30ZM1 31L1 36L6 36L6 31ZM2 32L2 35L5 35L5 32Z" fill="#000000"/></g></g></svg>
