<?xml version="1.0" encoding="UTF-8"?>
<svg xmlns="http://www.w3.org/2000/svg" version="1.1" width="400" height="400" viewBox="0 0 400 400"><rect x="0" y="0" width="400" height="400" fill="#ffffff"/><g transform="scale(9.756)"><g transform="translate(2,2)"><path fill-rule="evenodd" d="M8 0L8 1L9 1L9 2L10 2L10 3L11 3L11 1L14 1L14 2L12 2L12 4L11 4L11 5L10 5L10 4L9 4L9 5L10 5L10 8L9 8L9 6L8 6L8 8L9 8L9 9L12 9L12 10L9 10L9 11L8 11L8 9L7 9L7 8L6 8L6 9L7 9L7 10L5 10L5 8L3 8L3 10L1 10L1 9L2 9L2 8L0 8L0 10L1 10L1 11L0 11L0 12L2 12L2 11L4 11L4 12L3 12L3 14L4 14L4 15L2 15L2 13L0 13L0 14L1 14L1 15L0 15L0 16L4 16L4 17L3 17L3 18L2 18L2 17L0 17L0 21L1 21L1 22L0 22L0 24L3 24L3 21L4 21L4 20L5 20L5 19L7 19L7 20L6 20L6 21L5 21L5 22L6 22L6 23L4 23L4 25L5 25L5 24L6 24L6 25L7 25L7 26L5 26L5 27L3 27L3 29L4 29L4 28L5 28L5 29L8 29L8 30L9 30L9 29L8 29L8 28L5 28L5 27L7 27L7 26L8 26L8 27L9 27L9 28L10 28L10 31L11 31L11 32L10 32L10 33L11 33L11 34L9 34L9 32L8 32L8 34L9 34L9 35L8 35L8 37L9 37L9 35L10 35L10 37L11 37L11 36L13 36L13 35L14 35L14 37L17 37L17 36L18 36L18 37L21 37L21 34L20 34L20 31L21 31L21 30L22 30L22 31L24 31L24 30L25 30L25 32L27 32L27 33L26 33L26 34L25 34L25 33L23 33L23 32L22 32L22 34L23 34L23 35L22 35L22 36L23 36L23 35L24 35L24 36L25 36L25 35L27 35L27 33L28 33L28 34L29 34L29 36L28 36L28 37L29 37L29 36L30 36L30 37L32 37L32 36L33 36L33 35L34 35L34 36L36 36L36 37L37 37L37 34L36 34L36 35L35 35L35 33L34 33L34 32L33 32L33 31L35 31L35 29L36 29L36 27L37 27L37 26L36 26L36 27L35 27L35 25L37 25L37 24L36 24L36 23L37 23L37 22L36 22L36 21L37 21L37 18L36 18L36 16L37 16L37 14L34 14L34 12L35 12L35 13L37 13L37 12L35 12L35 10L34 10L34 11L33 11L33 9L31 9L31 8L30 8L30 9L29 9L29 8L28 8L28 7L29 7L29 4L28 4L28 7L27 7L27 6L26 6L26 5L23 5L23 4L22 4L22 2L23 2L23 1L24 1L24 2L25 2L25 4L26 4L26 3L29 3L29 2L26 2L26 1L27 1L27 0L25 0L25 1L24 1L24 0L23 0L23 1L21 1L21 3L20 3L20 1L19 1L19 0L16 0L16 1L17 1L17 2L19 2L19 4L18 4L18 3L16 3L16 4L15 4L15 3L14 3L14 2L15 2L15 1L14 1L14 0L11 0L11 1L9 1L9 0ZM12 4L12 5L11 5L11 7L12 7L12 9L13 9L13 10L12 10L12 11L13 11L13 12L14 12L14 13L16 13L16 14L17 14L17 15L15 15L15 14L14 14L14 15L12 15L12 16L11 16L11 14L13 14L13 13L11 13L11 14L10 14L10 12L11 12L11 11L10 11L10 12L9 12L9 14L10 14L10 15L8 15L8 14L7 14L7 13L8 13L8 12L7 12L7 11L5 11L5 10L4 10L4 11L5 11L5 13L4 13L4 14L7 14L7 15L5 15L5 16L7 16L7 17L4 17L4 18L3 18L3 19L5 19L5 18L7 18L7 19L8 19L8 18L10 18L10 17L13 17L13 18L12 18L12 19L11 19L11 20L9 20L9 22L8 22L8 20L7 20L7 21L6 21L6 22L8 22L8 24L7 24L7 23L6 23L6 24L7 24L7 25L11 25L11 27L10 27L10 26L9 26L9 27L10 27L10 28L11 28L11 30L13 30L13 31L14 31L14 30L15 30L15 28L14 28L14 27L13 27L13 26L12 26L12 24L14 24L14 25L15 25L15 26L16 26L16 25L19 25L19 26L18 26L18 27L17 27L17 28L16 28L16 29L20 29L20 28L21 28L21 29L22 29L22 30L24 30L24 28L26 28L26 29L25 29L25 30L26 30L26 31L27 31L27 32L28 32L28 29L27 29L27 26L26 26L26 25L28 25L28 26L29 26L29 25L30 25L30 24L26 24L26 23L27 23L27 21L26 21L26 23L25 23L25 26L26 26L26 27L24 27L24 26L23 26L23 25L22 25L22 24L24 24L24 23L21 23L21 25L19 25L19 23L20 23L20 22L19 22L19 23L18 23L18 21L19 21L19 20L20 20L20 21L21 21L21 22L22 22L22 21L24 21L24 22L25 22L25 21L24 21L24 20L25 20L25 19L27 19L27 20L28 20L28 21L29 21L29 20L33 20L33 21L34 21L34 22L33 22L33 23L31 23L31 25L33 25L33 27L34 27L34 25L35 25L35 24L34 24L34 25L33 25L33 23L34 23L34 22L35 22L35 23L36 23L36 22L35 22L35 21L34 21L34 20L36 20L36 18L35 18L35 19L34 19L34 20L33 20L33 19L31 19L31 18L33 18L33 17L34 17L34 16L32 16L32 15L31 15L31 17L30 17L30 16L29 16L29 14L32 14L32 13L33 13L33 11L32 11L32 13L30 13L30 12L31 12L31 11L30 11L30 10L31 10L31 9L30 9L30 10L28 10L28 11L27 11L27 12L26 12L26 11L25 11L25 10L27 10L27 9L26 9L26 8L25 8L25 7L26 7L26 6L25 6L25 7L24 7L24 6L23 6L23 5L21 5L21 4L20 4L20 5L19 5L19 7L18 7L18 4L17 4L17 5L15 5L15 4ZM12 5L12 7L13 7L13 8L14 8L14 7L15 7L15 5L14 5L14 7L13 7L13 5ZM16 6L16 7L17 7L17 6ZM20 6L20 7L19 7L19 9L18 9L18 8L15 8L15 9L18 9L18 10L15 10L15 11L17 11L17 12L16 12L16 13L17 13L17 12L18 12L18 10L20 10L20 11L19 11L19 13L20 13L20 14L19 14L19 15L18 15L18 16L13 16L13 17L14 17L14 18L13 18L13 19L12 19L12 21L13 21L13 20L16 20L16 21L18 21L18 20L16 20L16 18L15 18L15 17L18 17L18 16L19 16L19 19L20 19L20 20L21 20L21 19L22 19L22 18L23 18L23 19L24 19L24 18L23 18L23 17L24 17L24 15L25 15L25 14L24 14L24 13L25 13L25 12L24 12L24 9L25 9L25 8L24 8L24 7L23 7L23 6L22 6L22 7L23 7L23 9L21 9L21 8L20 8L20 7L21 7L21 6ZM36 8L36 9L37 9L37 8ZM20 9L20 10L21 10L21 9ZM22 10L22 11L20 11L20 12L21 12L21 14L20 14L20 15L19 15L19 16L21 16L21 17L20 17L20 18L21 18L21 17L22 17L22 15L24 15L24 14L22 14L22 13L23 13L23 10ZM36 10L36 11L37 11L37 10ZM29 11L29 12L28 12L28 13L26 13L26 15L28 15L28 13L29 13L29 12L30 12L30 11ZM6 12L6 13L7 13L7 12ZM21 14L21 15L22 15L22 14ZM33 14L33 15L34 15L34 14ZM8 16L8 17L7 17L7 18L8 18L8 17L9 17L9 16ZM25 16L25 18L26 18L26 16ZM27 16L27 19L28 19L28 18L30 18L30 17L29 17L29 16ZM1 19L1 20L2 20L2 19ZM10 21L10 22L9 22L9 24L10 24L10 22L11 22L11 21ZM30 21L30 22L28 22L28 23L30 23L30 22L32 22L32 21ZM12 22L12 23L14 23L14 24L15 24L15 25L16 25L16 24L15 24L15 23L16 23L16 22L15 22L15 23L14 23L14 22ZM17 23L17 24L18 24L18 23ZM0 25L0 29L1 29L1 27L2 27L2 26L3 26L3 25L2 25L2 26L1 26L1 25ZM19 26L19 28L20 28L20 26ZM22 26L22 28L23 28L23 26ZM30 26L30 28L31 28L31 26ZM29 29L29 32L32 32L32 29ZM18 30L18 31L16 31L16 32L13 32L13 34L12 34L12 35L13 35L13 34L14 34L14 35L15 35L15 33L17 33L17 34L16 34L16 35L17 35L17 34L18 34L18 36L19 36L19 35L20 35L20 34L18 34L18 33L19 33L19 32L18 32L18 31L19 31L19 30ZM30 30L30 31L31 31L31 30ZM36 30L36 31L37 31L37 30ZM11 32L11 33L12 33L12 32ZM17 32L17 33L18 33L18 32ZM36 32L36 33L37 33L37 32ZM32 33L32 34L30 34L30 36L32 36L32 34L34 34L34 33ZM26 36L26 37L27 37L27 36ZM0 0L0 7L7 7L7 0ZM1 1L1 6L6 6L6 1ZM2 2L2 5L5 5L5 2ZM30 0L30 7L37 7L37 0ZM31 1L31 6L36 6L36 1ZM32 2L32 5L35 5L35 2ZM0 30L0 37L7 37L7 30ZM1 31L1 36L6 36L6 31ZM2 32L2 35L5 35L5 32Z" fill="#000000"/></g></g></svg>
