<?xml version="1.0" encoding="UTF-8"?>
<svg xmlns="http://www.w3.org/2000/svg" version="1.1" width="400" height="400" viewBox="0 0 400 400"><rect x="0" y="0" width="400" height="400" fill="#ffffff"/><g transform="scale(9.756)"><g transform="translate(2,2)"><path fill-rule="evenodd" d="M9 0L9 1L8 1L8 2L9 2L9 3L8 3L8 4L10 4L10 7L11 7L11 4L12 4L12 5L13 5L13 4L14 4L14 5L15 5L15 6L14 6L14 7L15 7L15 6L16 6L16 7L17 7L17 4L18 4L18 3L19 3L19 5L20 5L20 3L22 3L22 4L24 4L24 2L23 2L23 1L24 1L24 0L21 0L21 2L20 2L20 3L19 3L19 1L20 1L20 0L18 0L18 1L17 1L17 2L16 2L16 1L14 1L14 0L13 0L13 1L11 1L11 2L10 2L10 0ZM26 0L26 1L25 1L25 2L26 2L26 1L27 1L27 3L25 3L25 4L26 4L26 5L24 5L24 7L25 7L25 6L26 6L26 8L25 8L25 10L24 10L24 9L23 9L23 6L22 6L22 5L21 5L21 6L20 6L20 7L19 7L19 6L18 6L18 8L17 8L17 9L15 9L15 8L14 8L14 9L15 9L15 10L14 10L14 11L15 11L15 12L14 12L14 13L15 13L15 15L14 15L14 14L13 14L13 12L12 12L12 11L13 11L13 10L11 10L11 11L10 11L10 10L9 10L9 9L11 9L11 8L6 8L6 9L5 9L5 8L0 8L0 11L1 11L1 13L0 13L0 14L2 14L2 13L3 13L3 14L4 14L4 16L5 16L5 17L8 17L8 19L7 19L7 18L6 18L6 19L7 19L7 20L6 20L6 21L5 21L5 20L4 20L4 17L3 17L3 15L2 15L2 16L0 16L0 17L3 17L3 19L0 19L0 20L2 20L2 21L0 21L0 24L1 24L1 22L3 22L3 20L4 20L4 21L5 21L5 23L7 23L7 24L6 24L6 25L5 25L5 29L8 29L8 31L11 31L11 32L8 32L8 37L12 37L12 36L13 36L13 37L14 37L14 36L13 36L13 35L14 35L14 34L15 34L15 35L16 35L16 36L17 36L17 37L18 37L18 36L17 36L17 35L19 35L19 34L20 34L20 36L22 36L22 37L23 37L23 36L22 36L22 35L21 35L21 32L22 32L22 33L23 33L23 34L25 34L25 35L26 35L26 34L28 34L28 33L29 33L29 34L33 34L33 35L32 35L32 37L33 37L33 36L34 36L34 37L37 37L37 34L34 34L34 33L37 33L37 30L36 30L36 29L35 29L35 28L36 28L36 27L37 27L37 26L36 26L36 27L35 27L35 28L30 28L30 26L31 26L31 27L32 27L32 26L31 26L31 25L33 25L33 26L35 26L35 24L32 24L32 23L33 23L33 22L32 22L32 23L31 23L31 22L30 22L30 21L31 21L31 20L32 20L32 21L33 21L33 19L34 19L34 18L33 18L33 19L31 19L31 20L29 20L29 19L30 19L30 18L29 18L29 19L28 19L28 18L27 18L27 16L29 16L29 17L31 17L31 14L32 14L32 15L33 15L33 14L32 14L32 13L35 13L35 12L36 12L36 13L37 13L37 12L36 12L36 11L37 11L37 10L35 10L35 9L36 9L36 8L35 8L35 9L34 9L34 8L33 8L33 10L34 10L34 11L35 11L35 12L32 12L32 8L31 8L31 10L30 10L30 8L28 8L28 7L29 7L29 6L28 6L28 5L29 5L29 4L28 4L28 3L29 3L29 0L28 0L28 1L27 1L27 0ZM13 1L13 2L12 2L12 4L13 4L13 3L14 3L14 4L15 4L15 3L14 3L14 1ZM17 2L17 3L18 3L18 2ZM22 2L22 3L23 3L23 2ZM10 3L10 4L11 4L11 3ZM27 4L27 5L26 5L26 6L27 6L27 7L28 7L28 6L27 6L27 5L28 5L28 4ZM8 5L8 7L9 7L9 5ZM12 6L12 9L13 9L13 6ZM21 6L21 7L20 7L20 8L18 8L18 9L20 9L20 10L19 10L19 11L18 11L18 10L16 10L16 11L17 11L17 12L18 12L18 13L17 13L17 14L16 14L16 15L15 15L15 16L14 16L14 15L13 15L13 14L12 14L12 13L11 13L11 15L10 15L10 16L9 16L9 17L10 17L10 18L9 18L9 20L7 20L7 21L6 21L6 22L7 22L7 23L8 23L8 25L6 25L6 26L9 26L9 22L7 22L7 21L9 21L9 20L10 20L10 22L11 22L11 26L10 26L10 27L9 27L9 28L8 28L8 27L6 27L6 28L8 28L8 29L9 29L9 30L11 30L11 31L13 31L13 32L11 32L11 33L13 33L13 34L11 34L11 35L10 35L10 33L9 33L9 36L12 36L12 35L13 35L13 34L14 34L14 33L15 33L15 34L16 34L16 33L17 33L17 34L18 34L18 33L19 33L19 31L20 31L20 32L21 32L21 31L22 31L22 32L26 32L26 33L27 33L27 31L28 31L28 30L27 30L27 28L29 28L29 25L28 25L28 24L30 24L30 23L29 23L29 21L26 21L26 22L25 22L25 20L26 20L26 19L24 19L24 18L25 18L25 17L26 17L26 16L27 16L27 15L25 15L25 13L24 13L24 14L23 14L23 13L22 13L22 12L23 12L23 11L24 11L24 12L26 12L26 11L24 11L24 10L23 10L23 11L22 11L22 12L21 12L21 11L20 11L20 10L21 10L21 9L22 9L22 8L21 8L21 7L22 7L22 6ZM6 9L6 10L7 10L7 9ZM26 9L26 10L28 10L28 11L27 11L27 12L28 12L28 13L26 13L26 14L28 14L28 15L29 15L29 14L31 14L31 13L32 13L32 12L31 12L31 11L29 11L29 10L28 10L28 9ZM3 10L3 12L4 12L4 11L5 11L5 13L4 13L4 14L7 14L7 13L8 13L8 12L9 12L9 10L8 10L8 12L7 12L7 11L5 11L5 10ZM19 11L19 13L18 13L18 14L17 14L17 15L19 15L19 14L20 14L20 16L22 16L22 17L18 17L18 16L17 16L17 19L19 19L19 20L24 20L24 19L23 19L23 18L24 18L24 17L25 17L25 16L24 16L24 17L23 17L23 16L22 16L22 15L23 15L23 14L21 14L21 13L20 13L20 11ZM6 12L6 13L7 13L7 12ZM29 12L29 13L31 13L31 12ZM9 13L9 14L8 14L8 15L6 15L6 16L8 16L8 15L9 15L9 14L10 14L10 13ZM35 14L35 16L34 16L34 17L35 17L35 16L37 16L37 14ZM10 16L10 17L11 17L11 18L10 18L10 20L12 20L12 21L11 21L11 22L12 22L12 23L14 23L14 22L13 22L13 18L12 18L12 16ZM13 16L13 17L14 17L14 18L15 18L15 19L14 19L14 21L15 21L15 19L16 19L16 18L15 18L15 17L16 17L16 16L15 16L15 17L14 17L14 16ZM32 16L32 17L33 17L33 16ZM22 17L22 18L23 18L23 17ZM11 18L11 19L12 19L12 18ZM19 18L19 19L21 19L21 18ZM35 18L35 19L36 19L36 20L35 20L35 21L34 21L34 23L37 23L37 22L36 22L36 21L37 21L37 18ZM16 20L16 21L18 21L18 22L20 22L20 23L19 23L19 26L20 26L20 27L18 27L18 28L19 28L19 30L22 30L22 29L20 29L20 27L21 27L21 28L22 28L22 27L21 27L21 25L20 25L20 23L21 23L21 24L22 24L22 23L21 23L21 22L22 22L22 21L18 21L18 20ZM23 21L23 22L24 22L24 21ZM15 22L15 23L16 23L16 22ZM27 22L27 23L26 23L26 24L24 24L24 25L22 25L22 26L24 26L24 27L23 27L23 28L24 28L24 29L23 29L23 30L24 30L24 31L26 31L26 30L25 30L25 29L26 29L26 28L25 28L25 26L24 26L24 25L27 25L27 23L28 23L28 22ZM2 23L2 24L4 24L4 23ZM12 24L12 25L13 25L13 26L12 26L12 27L11 27L11 28L10 28L10 29L11 29L11 28L12 28L12 29L14 29L14 31L15 31L15 33L16 33L16 32L17 32L17 33L18 33L18 32L17 32L17 31L18 31L18 29L16 29L16 28L17 28L17 26L15 26L15 25L16 25L16 24L15 24L15 25L14 25L14 24ZM17 24L17 25L18 25L18 24ZM36 24L36 25L37 25L37 24ZM0 25L0 29L1 29L1 26L2 26L2 28L3 28L3 29L4 29L4 27L3 27L3 25ZM13 26L13 27L12 27L12 28L14 28L14 29L15 29L15 30L16 30L16 31L17 31L17 30L16 30L16 29L15 29L15 28L14 28L14 27L15 27L15 26ZM26 26L26 27L28 27L28 26ZM29 29L29 32L32 32L32 29ZM33 29L33 30L34 30L34 32L35 32L35 29ZM30 30L30 31L31 31L31 30ZM13 32L13 33L14 33L14 32ZM27 35L27 36L29 36L29 37L31 37L31 36L29 36L29 35ZM34 35L34 36L36 36L36 35ZM25 36L25 37L26 37L26 36ZM0 0L0 7L7 7L7 0ZM1 1L1 6L6 6L6 1ZM2 2L2 5L5 5L5 2ZM30 0L30 7L37 7L37 0ZM31 1L31 6L36 6L36 1ZM32 2L32 5L35 5L35 2ZM0 30L0 37L7 37L7 30ZM1 31L1 36L6 36L6 31ZM2 32L2 35L5 35L5 32Z" fill="#000000"/></g></g></svg>
