<?xml version="1.0" encoding="UTF-8"?>
<svg xmlns="http://www.w3.org/2000/svg" version="1.1" width="400" height="400" viewBox="0 0 400 400"><rect x="0" y="0" width="400" height="400" fill="#ffffff"/><g transform="scale(9.756)"><g transform="translate(2,2)"><path fill-rule="evenodd" d="M9 0L9 1L8 1L8 2L9 2L9 3L8 3L8 4L10 4L10 7L11 7L11 4L12 4L12 5L13 5L13 4L12 4L12 2L14 2L14 4L15 4L15 6L14 6L14 8L13 8L13 6L12 6L12 9L13 9L13 10L11 10L11 13L8 13L8 15L9 15L9 14L11 14L11 13L12 13L12 14L13 14L13 15L12 15L12 17L14 17L14 18L15 18L15 19L14 19L14 20L13 20L13 21L12 21L12 19L13 19L13 18L10 18L10 19L9 19L9 17L8 17L8 16L4 16L4 18L3 18L3 15L7 15L7 14L6 14L6 13L7 13L7 12L8 12L8 11L9 11L9 12L10 12L10 11L9 11L9 10L5 10L5 11L3 11L3 12L0 12L0 17L1 17L1 19L0 19L0 20L1 20L1 19L4 19L4 18L5 18L5 19L9 19L9 20L6 20L6 21L9 21L9 22L6 22L6 23L9 23L9 24L8 24L8 26L5 26L5 27L7 27L7 28L6 28L6 29L8 29L8 31L10 31L10 33L9 33L9 32L8 32L8 37L10 37L10 36L12 36L12 37L14 37L14 36L13 36L13 34L12 34L12 32L11 32L11 31L10 31L10 30L11 30L11 29L12 29L12 30L13 30L13 28L12 28L12 27L13 27L13 26L15 26L15 27L14 27L14 29L15 29L15 30L14 30L14 32L13 32L13 33L14 33L14 34L15 34L15 35L16 35L16 34L15 34L15 33L16 33L16 32L15 32L15 31L16 31L16 30L17 30L17 29L18 29L18 30L20 30L20 31L19 31L19 32L17 32L17 33L18 33L18 34L17 34L17 35L18 35L18 36L16 36L16 37L20 37L20 35L21 35L21 36L22 36L22 37L24 37L24 36L25 36L25 37L26 37L26 36L25 36L25 35L26 35L26 34L25 34L25 33L26 33L26 32L25 32L25 33L23 33L23 34L24 34L24 35L23 35L23 36L22 36L22 35L21 35L21 34L22 34L22 33L20 33L20 31L21 31L21 32L22 32L22 31L21 31L21 29L20 29L20 27L21 27L21 28L22 28L22 27L21 27L21 26L22 26L22 25L21 25L21 26L20 26L20 25L18 25L18 24L17 24L17 25L14 25L14 24L15 24L15 23L18 23L18 22L20 22L20 20L22 20L22 21L21 21L21 24L24 24L24 25L23 25L23 26L24 26L24 27L25 27L25 26L26 26L26 25L27 25L27 23L28 23L28 22L27 22L27 21L29 21L29 23L30 23L30 24L28 24L28 25L29 25L29 28L27 28L27 27L28 27L28 26L27 26L27 27L26 27L26 28L23 28L23 29L22 29L22 30L24 30L24 31L25 31L25 29L27 29L27 30L26 30L26 31L27 31L27 34L28 34L28 33L29 33L29 34L33 34L33 35L32 35L32 37L33 37L33 36L34 36L34 37L37 37L37 34L34 34L34 33L35 33L35 32L36 32L36 33L37 33L37 30L36 30L36 29L35 29L35 28L36 28L36 27L37 27L37 26L36 26L36 27L35 27L35 28L32 28L32 27L31 27L31 28L30 28L30 26L31 26L31 25L33 25L33 26L35 26L35 24L33 24L33 23L32 23L32 24L31 24L31 22L30 22L30 21L31 21L31 20L32 20L32 21L33 21L33 19L34 19L34 18L33 18L33 19L31 19L31 20L28 20L28 19L30 19L30 18L26 18L26 17L31 17L31 14L32 14L32 15L33 15L33 14L32 14L32 13L35 13L35 12L36 12L36 13L37 13L37 12L36 12L36 11L37 11L37 10L35 10L35 9L36 9L36 8L35 8L35 9L34 9L34 8L33 8L33 10L34 10L34 11L35 11L35 12L32 12L32 8L31 8L31 10L30 10L30 8L29 8L29 11L28 11L28 10L27 10L27 9L28 9L28 8L24 8L24 7L25 7L25 6L26 6L26 7L27 7L27 6L28 6L28 7L29 7L29 6L28 6L28 5L29 5L29 3L28 3L28 1L29 1L29 0L28 0L28 1L26 1L26 3L25 3L25 4L26 4L26 5L24 5L24 4L23 4L23 0L22 0L22 2L21 2L21 0L15 0L15 2L14 2L14 1L11 1L11 2L10 2L10 0ZM16 1L16 2L17 2L17 3L16 3L16 4L17 4L17 7L16 7L16 6L15 6L15 8L14 8L14 9L15 9L15 10L13 10L13 11L12 11L12 13L13 13L13 14L14 14L14 13L15 13L15 14L17 14L17 13L18 13L18 15L17 15L17 16L15 16L15 15L13 15L13 16L14 16L14 17L15 17L15 18L16 18L16 19L17 19L17 20L18 20L18 21L19 21L19 20L20 20L20 19L21 19L21 18L23 18L23 19L22 19L22 20L23 20L23 21L22 21L22 22L23 22L23 23L24 23L24 22L25 22L25 21L26 21L26 20L27 20L27 19L25 19L25 16L26 16L26 15L24 15L24 14L25 14L25 13L24 13L24 12L26 12L26 11L27 11L27 10L26 10L26 9L24 9L24 10L23 10L23 9L22 9L22 8L23 8L23 7L24 7L24 5L23 5L23 7L22 7L22 6L21 6L21 7L20 7L20 5L18 5L18 4L22 4L22 3L21 3L21 2L20 2L20 1L19 1L19 2L17 2L17 1ZM24 1L24 2L25 2L25 1ZM19 2L19 3L20 3L20 2ZM10 3L10 4L11 4L11 3ZM17 3L17 4L18 4L18 3ZM27 4L27 5L26 5L26 6L27 6L27 5L28 5L28 4ZM8 5L8 7L9 7L9 5ZM18 6L18 7L19 7L19 6ZM21 7L21 8L22 8L22 7ZM0 8L0 10L1 10L1 9L5 9L5 8ZM6 8L6 9L11 9L11 8ZM15 8L15 9L18 9L18 8ZM19 8L19 10L21 10L21 11L20 11L20 13L19 13L19 14L21 14L21 16L22 16L22 17L23 17L23 18L24 18L24 17L23 17L23 16L24 16L24 15L23 15L23 14L24 14L24 13L23 13L23 11L22 11L22 10L21 10L21 9L20 9L20 8ZM15 10L15 12L16 12L16 13L17 13L17 12L16 12L16 11L17 11L17 10ZM25 10L25 11L26 11L26 10ZM6 11L6 12L7 12L7 11ZM18 11L18 12L19 12L19 11ZM29 11L29 12L27 12L27 13L26 13L26 14L28 14L28 15L27 15L27 16L29 16L29 14L31 14L31 13L32 13L32 12L31 12L31 11ZM3 12L3 13L1 13L1 17L2 17L2 15L3 15L3 14L5 14L5 13L4 13L4 12ZM13 12L13 13L14 13L14 12ZM21 12L21 13L22 13L22 12ZM29 12L29 13L31 13L31 12ZM35 14L35 16L34 16L34 17L35 17L35 16L37 16L37 14ZM10 15L10 17L11 17L11 15ZM19 15L19 16L20 16L20 15ZM22 15L22 16L23 16L23 15ZM17 16L17 17L18 17L18 18L17 18L17 19L19 19L19 18L20 18L20 17L18 17L18 16ZM32 16L32 17L33 17L33 16ZM5 17L5 18L7 18L7 17ZM35 18L35 19L36 19L36 20L35 20L35 21L34 21L34 23L37 23L37 22L36 22L36 21L37 21L37 18ZM10 19L10 20L9 20L9 21L11 21L11 23L10 23L10 25L9 25L9 26L8 26L8 28L9 28L9 26L10 26L10 25L11 25L11 26L13 26L13 25L12 25L12 23L13 23L13 24L14 24L14 23L15 23L15 22L14 22L14 21L15 21L15 20L14 20L14 21L13 21L13 22L12 22L12 21L11 21L11 19ZM2 20L2 22L0 22L0 24L2 24L2 25L0 25L0 29L1 29L1 26L3 26L3 27L2 27L2 29L3 29L3 27L4 27L4 26L3 26L3 25L4 25L4 24L5 24L5 23L4 23L4 24L2 24L2 23L3 23L3 20ZM24 20L24 21L23 21L23 22L24 22L24 21L25 21L25 20ZM4 21L4 22L5 22L5 21ZM19 23L19 24L20 24L20 23ZM25 23L25 24L26 24L26 23ZM6 24L6 25L7 25L7 24ZM36 24L36 25L37 25L37 24ZM17 25L17 26L16 26L16 27L17 27L17 28L18 28L18 29L19 29L19 28L18 28L18 27L20 27L20 26L18 26L18 25ZM10 27L10 28L11 28L11 27ZM9 29L9 30L10 30L10 29ZM29 29L29 32L32 32L32 29ZM33 29L33 30L34 30L34 32L35 32L35 29ZM27 30L27 31L28 31L28 30ZM30 30L30 31L31 31L31 30ZM14 32L14 33L15 33L15 32ZM10 33L10 35L12 35L12 34L11 34L11 33ZM19 34L19 35L20 35L20 34ZM27 35L27 36L29 36L29 37L31 37L31 36L29 36L29 35ZM34 35L34 36L36 36L36 35ZM0 0L0 7L7 7L7 0ZM1 1L1 6L6 6L6 1ZM2 2L2 5L5 5L5 2ZM30 0L30 7L37 7L37 0ZM31 1L31 6L36 6L36 1ZM32 2L32 5L35 5L35 2ZM0 30L0 37L7 37L7 30ZM1 31L1 36L6 36L6 31ZM2 32L2 35L5 35L5 32Z" fill="#000000"/></g></g></svg>
