<?xml version="1.0" encoding="UTF-8"?>
<svg xmlns="http://www.w3.org/2000/svg" version="1.1" width="400" height="400" viewBox="0 0 400 400"><rect x="0" y="0" width="400" height="400" fill="#ffffff"/><g transform="scale(9.756)"><g transform="translate(2,2)"><path fill-rule="evenodd" d="M8 0L8 4L10 4L10 3L11 3L11 4L12 4L12 2L11 2L11 0ZM12 0L12 1L14 1L14 0ZM15 0L15 1L16 1L16 0ZM18 0L18 1L17 1L17 2L16 2L16 3L14 3L14 4L13 4L13 5L11 5L11 6L10 6L10 7L9 7L9 5L8 5L8 7L9 7L9 8L10 8L10 7L11 7L11 6L12 6L12 8L11 8L11 9L10 9L10 10L11 10L11 12L12 12L12 13L13 13L13 14L15 14L15 15L14 15L14 16L13 16L13 15L12 15L12 16L10 16L10 15L11 15L11 14L8 14L8 13L7 13L7 12L8 12L8 11L9 11L9 10L8 10L8 9L7 9L7 8L4 8L4 12L6 12L6 13L3 13L3 14L2 14L2 15L1 15L1 16L0 16L0 17L2 17L2 18L1 18L1 21L0 21L0 22L1 22L1 21L3 21L3 22L2 22L2 23L1 23L1 24L0 24L0 26L1 26L1 24L2 24L2 25L3 25L3 29L4 29L4 28L5 28L5 29L8 29L8 30L10 30L10 31L8 31L8 33L9 33L9 35L8 35L8 37L9 37L9 36L11 36L11 37L12 37L12 34L13 34L13 35L14 35L14 37L15 37L15 35L16 35L16 36L17 36L17 37L20 37L20 36L21 36L21 37L23 37L23 36L25 36L25 35L26 35L26 34L25 34L25 31L26 31L26 30L27 30L27 28L26 28L26 29L25 29L25 28L24 28L24 29L23 29L23 30L22 30L22 31L21 31L21 30L20 30L20 31L19 31L19 29L18 29L18 28L19 28L19 25L21 25L21 26L20 26L20 27L21 27L21 28L20 28L20 29L22 29L22 28L23 28L23 27L24 27L24 25L25 25L25 26L26 26L26 27L28 27L28 31L27 31L27 32L26 32L26 33L27 33L27 32L28 32L28 33L29 33L29 34L28 34L28 35L27 35L27 36L26 36L26 37L28 37L28 35L29 35L29 37L32 37L32 36L33 36L33 37L37 37L37 36L36 36L36 35L34 35L34 34L33 34L33 35L32 35L32 36L31 36L31 33L33 33L33 32L34 32L34 33L35 33L35 32L36 32L36 33L37 33L37 31L35 31L35 30L36 30L36 29L35 29L35 27L36 27L36 28L37 28L37 27L36 27L36 26L35 26L35 24L36 24L36 25L37 25L37 23L34 23L34 29L33 29L33 28L31 28L31 26L32 26L32 27L33 27L33 25L31 25L31 24L32 24L32 23L31 23L31 24L30 24L30 23L29 23L29 22L30 22L30 21L31 21L31 22L36 22L36 21L37 21L37 20L36 20L36 19L35 19L35 18L34 18L34 17L35 17L35 14L34 14L34 13L35 13L35 11L34 11L34 13L32 13L32 10L33 10L33 9L34 9L34 10L35 10L35 9L37 9L37 8L33 8L33 9L32 9L32 8L31 8L31 9L32 9L32 10L31 10L31 11L29 11L29 10L30 10L30 9L29 9L29 6L28 6L28 7L27 7L27 5L29 5L29 3L28 3L28 2L29 2L29 0L27 0L27 1L26 1L26 0L25 0L25 1L26 1L26 2L27 2L27 3L25 3L25 2L24 2L24 4L25 4L25 5L24 5L24 7L23 7L23 6L22 6L22 7L21 7L21 5L22 5L22 4L21 4L21 5L19 5L19 4L20 4L20 3L19 3L19 2L20 2L20 1L19 1L19 0ZM22 0L22 2L21 2L21 3L23 3L23 1L24 1L24 0ZM27 1L27 2L28 2L28 1ZM9 2L9 3L10 3L10 2ZM16 3L16 5L14 5L14 6L13 6L13 8L12 8L12 9L11 9L11 10L12 10L12 9L14 9L14 10L15 10L15 9L14 9L14 6L15 6L15 7L16 7L16 6L17 6L17 7L18 7L18 6L17 6L17 4L18 4L18 3ZM26 4L26 5L25 5L25 8L23 8L23 7L22 7L22 8L23 8L23 9L24 9L24 11L23 11L23 10L22 10L22 9L21 9L21 8L20 8L20 6L19 6L19 8L18 8L18 9L16 9L16 14L19 14L19 15L18 15L18 16L17 16L17 15L16 15L16 16L14 16L14 17L15 17L15 18L16 18L16 19L12 19L12 20L11 20L11 22L10 22L10 21L9 21L9 23L8 23L8 22L7 22L7 21L5 21L5 20L7 20L7 19L6 19L6 18L8 18L8 20L10 20L10 18L12 18L12 17L13 17L13 16L12 16L12 17L10 17L10 18L9 18L9 15L6 15L6 14L7 14L7 13L6 13L6 14L5 14L5 15L6 15L6 16L5 16L5 17L4 17L4 14L3 14L3 15L2 15L2 17L4 17L4 18L5 18L5 20L4 20L4 21L5 21L5 22L3 22L3 23L5 23L5 24L4 24L4 26L5 26L5 28L7 28L7 27L8 27L8 28L9 28L9 29L10 29L10 27L11 27L11 26L12 26L12 25L11 25L11 24L12 24L12 23L13 23L13 28L12 28L12 31L10 31L10 32L9 32L9 33L12 33L12 32L14 32L14 33L15 33L15 32L16 32L16 31L15 31L15 30L14 30L14 31L13 31L13 28L14 28L14 29L16 29L16 30L18 30L18 29L17 29L17 28L16 28L16 27L15 27L15 26L16 26L16 24L17 24L17 23L20 23L20 24L21 24L21 23L22 23L22 22L23 22L23 21L24 21L24 22L25 22L25 25L27 25L27 24L28 24L28 23L27 23L27 22L26 22L26 21L28 21L28 22L29 22L29 21L28 21L28 20L29 20L29 19L30 19L30 18L31 18L31 19L33 19L33 20L32 20L32 21L33 21L33 20L34 20L34 21L35 21L35 20L34 20L34 19L33 19L33 18L31 18L31 17L29 17L29 16L32 16L32 17L33 17L33 16L34 16L34 14L33 14L33 15L32 15L32 13L29 13L29 12L28 12L28 11L27 11L27 12L26 12L26 11L25 11L25 10L26 10L26 9L28 9L28 8L26 8L26 5L27 5L27 4ZM0 8L0 9L2 9L2 8ZM19 8L19 9L18 9L18 10L17 10L17 13L18 13L18 12L19 12L19 13L20 13L20 14L21 14L21 15L20 15L20 18L21 18L21 20L20 20L20 19L19 19L19 18L18 18L18 17L17 17L17 16L16 16L16 18L18 18L18 19L16 19L16 20L15 20L15 21L14 21L14 20L12 20L12 21L13 21L13 23L15 23L15 24L14 24L14 25L15 25L15 24L16 24L16 23L17 23L17 21L18 21L18 22L19 22L19 21L20 21L20 23L21 23L21 21L22 21L22 18L21 18L21 17L23 17L23 19L24 19L24 20L25 20L25 19L26 19L26 20L27 20L27 19L29 19L29 18L28 18L28 15L29 15L29 14L28 14L28 13L26 13L26 14L24 14L24 13L25 13L25 11L24 11L24 12L23 12L23 11L22 11L22 10L21 10L21 12L20 12L20 11L19 11L19 9L20 9L20 8ZM5 9L5 10L7 10L7 9ZM1 11L1 12L0 12L0 13L2 13L2 11ZM6 11L6 12L7 12L7 11ZM12 11L12 12L14 12L14 13L15 13L15 11ZM36 11L36 13L37 13L37 11ZM22 13L22 15L23 15L23 13ZM25 15L25 16L26 16L26 17L24 17L24 16L23 16L23 17L24 17L24 19L25 19L25 18L27 18L27 15ZM6 16L6 17L5 17L5 18L6 18L6 17L8 17L8 16ZM2 18L2 19L3 19L3 18ZM16 20L16 21L15 21L15 22L16 22L16 21L17 21L17 20ZM18 20L18 21L19 21L19 20ZM5 22L5 23L7 23L7 22ZM9 23L9 25L8 25L8 26L9 26L9 27L10 27L10 24L11 24L11 23ZM26 23L26 24L27 24L27 23ZM6 24L6 25L5 25L5 26L6 26L6 27L7 27L7 26L6 26L6 25L7 25L7 24ZM18 24L18 25L19 25L19 24ZM22 24L22 25L24 25L24 24ZM28 25L28 26L29 26L29 28L30 28L30 26L29 26L29 25ZM17 26L17 27L18 27L18 26ZM21 26L21 27L22 27L22 26ZM14 27L14 28L15 28L15 27ZM0 28L0 29L2 29L2 28ZM29 29L29 32L32 32L32 29ZM34 29L34 30L35 30L35 29ZM24 30L24 31L25 31L25 30ZM30 30L30 31L31 31L31 30ZM18 31L18 33L16 33L16 34L18 34L18 33L19 33L19 36L20 36L20 34L21 34L21 31L20 31L20 33L19 33L19 31ZM22 33L22 36L23 36L23 33ZM14 34L14 35L15 35L15 34ZM0 0L0 7L7 7L7 0ZM1 1L1 6L6 6L6 1ZM2 2L2 5L5 5L5 2ZM30 0L30 7L37 7L37 0ZM31 1L31 6L36 6L36 1ZM32 2L32 5L35 5L35 2ZM0 30L0 37L7 37L7 30ZM1 31L1 36L6 36L6 31ZM2 32L2 35L5 35L5 32Z" fill="#000000"/></g></g></svg>
