<?xml version="1.0" encoding="UTF-8"?>
<svg xmlns="http://www.w3.org/2000/svg" version="1.1" width="400" height="400" viewBox="0 0 400 400"><rect x="0" y="0" width="400" height="400" fill="#ffffff"/><g transform="scale(9.756)"><g transform="translate(2,2)"><path fill-rule="evenodd" d="M11 0L11 1L9 1L9 2L11 2L11 1L13 1L13 0ZM16 0L16 2L15 2L15 3L13 3L13 2L12 2L12 4L14 4L14 5L11 5L11 6L10 6L10 8L9 8L9 9L8 9L8 8L5 8L5 9L2 9L2 8L0 8L0 11L2 11L2 12L4 12L4 11L5 11L5 13L3 13L3 15L2 15L2 16L1 16L1 14L2 14L2 13L1 13L1 14L0 14L0 16L1 16L1 17L0 17L0 18L1 18L1 19L2 19L2 20L1 20L1 21L2 21L2 20L4 20L4 21L5 21L5 20L4 20L4 19L7 19L7 20L6 20L6 21L7 21L7 20L8 20L8 22L3 22L3 23L2 23L2 24L1 24L1 25L0 25L0 29L1 29L1 25L3 25L3 26L2 26L2 29L4 29L4 28L5 28L5 29L7 29L7 28L5 28L5 27L4 27L4 28L3 28L3 26L6 26L6 27L8 27L8 32L9 32L9 33L11 33L11 34L9 34L9 35L8 35L8 37L12 37L12 36L9 36L9 35L11 35L11 34L13 34L13 35L14 35L14 34L13 34L13 33L14 33L14 32L16 32L16 33L15 33L15 36L14 36L14 37L17 37L17 36L16 36L16 34L17 34L17 33L18 33L18 34L20 34L20 33L18 33L18 32L19 32L19 31L20 31L20 32L21 32L21 30L22 30L22 31L23 31L23 32L25 32L25 33L22 33L22 34L24 34L24 35L23 35L23 36L25 36L25 35L26 35L26 34L27 34L27 33L28 33L28 34L32 34L32 33L34 33L34 34L33 34L33 35L32 35L32 36L30 36L30 37L32 37L32 36L33 36L33 35L36 35L36 37L37 37L37 34L35 34L35 32L33 32L33 31L35 31L35 30L36 30L36 31L37 31L37 30L36 30L36 29L35 29L35 28L36 28L36 27L37 27L37 26L36 26L36 27L32 27L32 26L31 26L31 22L30 22L30 21L31 21L31 20L32 20L32 22L34 22L34 23L32 23L32 24L33 24L33 25L34 25L34 26L35 26L35 25L37 25L37 24L35 24L35 25L34 25L34 23L37 23L37 22L36 22L36 21L37 21L37 18L36 18L36 20L35 20L35 22L34 22L34 21L33 21L33 20L34 20L34 19L35 19L35 18L34 18L34 17L35 17L35 16L37 16L37 14L35 14L35 15L33 15L33 14L34 14L34 11L35 11L35 13L37 13L37 12L36 12L36 11L37 11L37 10L34 10L34 11L33 11L33 14L32 14L32 10L33 10L33 9L34 9L34 8L32 8L32 9L31 9L31 10L30 10L30 9L28 9L28 7L29 7L29 6L28 6L28 7L27 7L27 6L26 6L26 5L27 5L27 4L26 4L26 3L28 3L28 2L27 2L27 0L25 0L25 1L24 1L24 0L23 0L23 1L20 1L20 2L21 2L21 3L19 3L19 4L18 4L18 3L17 3L17 2L19 2L19 0ZM23 1L23 3L22 3L22 4L24 4L24 5L23 5L23 7L22 7L22 5L19 5L19 7L18 7L18 6L17 6L17 8L16 8L16 5L17 5L17 3L15 3L15 5L14 5L14 6L13 6L13 7L12 7L12 6L11 6L11 7L12 7L12 9L11 9L11 8L10 8L10 9L9 9L9 10L8 10L8 9L6 9L6 10L5 10L5 11L6 11L6 12L7 12L7 13L6 13L6 14L7 14L7 15L6 15L6 16L9 16L9 15L10 15L10 16L11 16L11 14L14 14L14 15L12 15L12 17L9 17L9 19L8 19L8 17L6 17L6 18L7 18L7 19L8 19L8 20L9 20L9 22L10 22L10 20L11 20L11 22L13 22L13 23L12 23L12 24L10 24L10 27L9 27L9 23L6 23L6 24L8 24L8 25L6 25L6 26L8 26L8 27L9 27L9 30L11 30L11 29L10 29L10 27L11 27L11 28L12 28L12 30L14 30L14 31L13 31L13 32L14 32L14 31L15 31L15 30L14 30L14 29L15 29L15 26L16 26L16 27L17 27L17 28L16 28L16 30L18 30L18 31L16 31L16 32L18 32L18 31L19 31L19 30L18 30L18 29L23 29L23 28L27 28L27 25L28 25L28 27L29 27L29 25L30 25L30 23L29 23L29 22L28 22L28 24L26 24L26 23L25 23L25 25L26 25L26 26L25 26L25 27L24 27L24 26L23 26L23 25L22 25L22 23L21 23L21 22L22 22L22 20L23 20L23 21L24 21L24 22L23 22L23 23L24 23L24 22L25 22L25 21L26 21L26 22L27 22L27 21L26 21L26 20L31 20L31 18L33 18L33 17L34 17L34 16L33 16L33 17L32 17L32 14L31 14L31 13L30 13L30 12L31 12L31 11L29 11L29 10L28 10L28 11L27 11L27 9L24 9L24 10L22 10L22 11L21 11L21 9L22 9L22 8L23 8L23 7L24 7L24 8L27 8L27 7L26 7L26 6L25 6L25 7L24 7L24 5L26 5L26 4L25 4L25 3L26 3L26 1L25 1L25 2L24 2L24 1ZM8 3L8 5L10 5L10 4L9 4L9 3ZM28 4L28 5L29 5L29 4ZM8 6L8 7L9 7L9 6ZM14 6L14 10L15 10L15 11L14 11L14 12L13 12L13 11L12 11L12 12L11 12L11 11L10 11L10 10L9 10L9 12L8 12L8 11L7 11L7 10L6 10L6 11L7 11L7 12L8 12L8 15L9 15L9 12L10 12L10 14L11 14L11 13L14 13L14 12L15 12L15 11L16 11L16 13L15 13L15 15L14 15L14 16L13 16L13 17L12 17L12 18L10 18L10 19L12 19L12 21L13 21L13 19L14 19L14 24L12 24L12 26L13 26L13 27L14 27L14 26L13 26L13 25L14 25L14 24L15 24L15 25L16 25L16 26L17 26L17 27L18 27L18 26L21 26L21 23L19 23L19 22L21 22L21 21L18 21L18 20L17 20L17 21L18 21L18 22L17 22L17 23L16 23L16 22L15 22L15 20L16 20L16 18L18 18L18 17L17 17L17 16L15 16L15 15L16 15L16 13L17 13L17 10L15 10L15 9L16 9L16 8L15 8L15 6ZM20 6L20 9L18 9L18 8L17 8L17 9L18 9L18 10L20 10L20 9L21 9L21 6ZM12 9L12 10L13 10L13 9ZM2 10L2 11L4 11L4 10ZM25 10L25 11L26 11L26 12L27 12L27 11L26 11L26 10ZM19 11L19 14L20 14L20 13L21 13L21 12L20 12L20 11ZM22 11L22 12L23 12L23 13L22 13L22 14L21 14L21 15L22 15L22 17L21 17L21 18L20 18L20 16L19 16L19 15L18 15L18 16L19 16L19 20L20 20L20 19L22 19L22 17L23 17L23 19L24 19L24 17L23 17L23 16L24 16L24 15L29 15L29 16L25 16L25 18L26 18L26 17L27 17L27 19L28 19L28 17L31 17L31 14L28 14L28 13L29 13L29 11L28 11L28 13L27 13L27 14L26 14L26 13L25 13L25 12L23 12L23 11ZM24 13L24 14L23 14L23 15L24 15L24 14L25 14L25 13ZM4 14L4 15L5 15L5 14ZM3 16L3 18L2 18L2 19L3 19L3 18L5 18L5 16ZM14 16L14 17L15 17L15 18L16 18L16 17L15 17L15 16ZM12 18L12 19L13 19L13 18ZM24 20L24 21L25 21L25 20ZM15 23L15 24L16 24L16 25L19 25L19 23L17 23L17 24L16 24L16 23ZM3 24L3 25L5 25L5 24ZM30 26L30 28L31 28L31 26ZM19 27L19 28L20 28L20 27ZM22 27L22 28L23 28L23 27ZM13 28L13 29L14 29L14 28ZM17 28L17 29L18 29L18 28ZM25 29L25 30L26 30L26 31L25 31L25 32L26 32L26 33L25 33L25 34L26 34L26 33L27 33L27 32L28 32L28 29ZM29 29L29 32L32 32L32 29ZM34 29L34 30L35 30L35 29ZM30 30L30 31L31 31L31 30ZM9 31L9 32L11 32L11 33L12 33L12 32L11 32L11 31ZM36 32L36 33L37 33L37 32ZM19 35L19 36L18 36L18 37L21 37L21 35ZM28 35L28 37L29 37L29 35ZM26 36L26 37L27 37L27 36ZM0 0L0 7L7 7L7 0ZM1 1L1 6L6 6L6 1ZM2 2L2 5L5 5L5 2ZM30 0L30 7L37 7L37 0ZM31 1L31 6L36 6L36 1ZM32 2L32 5L35 5L35 2ZM0 30L0 37L7 37L7 30ZM1 31L1 36L6 36L6 31ZM2 32L2 35L5 35L5 32Z" fill="#000000"/></g></g></svg>
