<?xml version="1.0" encoding="UTF-8"?>
<svg xmlns="http://www.w3.org/2000/svg" version="1.1" width="400" height="400" viewBox="0 0 400 400"><rect x="0" y="0" width="400" height="400" fill="#ffffff"/><g transform="scale(9.756)"><g transform="translate(2,2)"><path fill-rule="evenodd" d="M10 0L10 2L11 2L11 0ZM12 0L12 1L13 1L13 2L12 2L12 4L14 4L14 5L11 5L11 6L10 6L10 4L11 4L11 3L8 3L8 4L9 4L9 5L8 5L8 7L9 7L9 8L6 8L6 9L7 9L7 10L4 10L4 9L5 9L5 8L0 8L0 10L1 10L1 9L3 9L3 10L2 10L2 11L0 11L0 14L1 14L1 15L0 15L0 17L1 17L1 18L0 18L0 20L2 20L2 21L1 21L1 22L0 22L0 23L4 23L4 22L5 22L5 23L8 23L8 24L6 24L6 25L1 25L1 24L0 24L0 29L1 29L1 26L2 26L2 28L3 28L3 29L4 29L4 28L5 28L5 29L8 29L8 31L9 31L9 30L10 30L10 32L12 32L12 33L11 33L11 34L10 34L10 33L9 33L9 32L8 32L8 37L9 37L9 36L11 36L11 34L12 34L12 35L13 35L13 33L14 33L14 37L16 37L16 36L15 36L15 35L16 35L16 34L15 34L15 33L14 33L14 32L15 32L15 31L16 31L16 30L15 30L15 29L16 29L16 28L15 28L15 27L16 27L16 26L17 26L17 27L18 27L18 26L20 26L20 27L21 27L21 28L22 28L22 27L21 27L21 25L18 25L18 24L17 24L17 23L19 23L19 24L20 24L20 23L21 23L21 24L22 24L22 23L21 23L21 22L22 22L22 21L21 21L21 22L20 22L20 21L18 21L18 20L17 20L17 21L14 21L14 20L15 20L15 19L18 19L18 17L17 17L17 15L16 15L16 14L14 14L14 16L13 16L13 17L12 17L12 15L13 15L13 14L9 14L9 15L8 15L8 14L6 14L6 13L7 13L7 12L8 12L8 13L9 13L9 12L11 12L11 9L12 9L12 10L13 10L13 9L12 9L12 7L13 7L13 6L14 6L14 9L15 9L15 8L16 8L16 9L18 9L18 10L21 10L21 12L22 12L22 13L23 13L23 14L21 14L21 15L20 15L20 16L19 16L19 15L18 15L18 16L19 16L19 18L20 18L20 16L22 16L22 17L21 17L21 20L24 20L24 19L26 19L26 20L25 20L25 22L26 22L26 21L29 21L29 23L30 23L30 24L28 24L28 25L29 25L29 28L27 28L27 30L28 30L28 31L27 31L27 33L26 33L26 32L22 32L22 31L21 31L21 30L22 30L22 29L20 29L20 28L19 28L19 29L18 29L18 28L17 28L17 29L18 29L18 30L20 30L20 31L18 31L18 32L16 32L16 33L18 33L18 34L20 34L20 37L21 37L21 36L22 36L22 37L23 37L23 34L24 34L24 35L26 35L26 34L28 34L28 33L29 33L29 34L33 34L33 35L32 35L32 37L33 37L33 36L34 36L34 37L37 37L37 34L34 34L34 33L35 33L35 32L34 32L34 30L33 30L33 29L35 29L35 31L37 31L37 30L36 30L36 29L35 29L35 28L36 28L36 27L37 27L37 26L36 26L36 27L35 27L35 28L30 28L30 26L31 26L31 25L33 25L33 26L32 26L32 27L33 27L33 26L35 26L35 24L31 24L31 23L33 23L33 22L30 22L30 21L31 21L31 20L32 20L32 21L33 21L33 19L34 19L34 18L33 18L33 19L31 19L31 20L29 20L29 19L30 19L30 18L29 18L29 19L28 19L28 18L27 18L27 16L29 16L29 17L31 17L31 14L32 14L32 15L33 15L33 14L32 14L32 13L35 13L35 12L36 12L36 13L37 13L37 12L36 12L36 11L37 11L37 10L35 10L35 9L36 9L36 8L35 8L35 9L34 9L34 8L33 8L33 10L34 10L34 11L35 11L35 12L32 12L32 8L31 8L31 10L30 10L30 8L28 8L28 7L29 7L29 6L28 6L28 5L29 5L29 4L28 4L28 3L29 3L29 0L28 0L28 1L27 1L27 0L26 0L26 1L25 1L25 2L26 2L26 1L27 1L27 3L25 3L25 4L26 4L26 5L24 5L24 7L25 7L25 6L26 6L26 8L25 8L25 10L24 10L24 9L23 9L23 6L22 6L22 5L21 5L21 4L20 4L20 3L19 3L19 4L18 4L18 3L17 3L17 2L19 2L19 1L20 1L20 2L21 2L21 3L22 3L22 4L24 4L24 2L23 2L23 1L24 1L24 0L18 0L18 1L17 1L17 2L16 2L16 1L15 1L15 0L14 0L14 1L13 1L13 0ZM8 1L8 2L9 2L9 1ZM14 1L14 2L13 2L13 3L14 3L14 4L15 4L15 5L14 5L14 6L15 6L15 7L16 7L16 8L18 8L18 9L20 9L20 6L21 6L21 7L22 7L22 6L21 6L21 5L19 5L19 7L18 7L18 6L17 6L17 7L16 7L16 6L15 6L15 5L17 5L17 4L15 4L15 3L16 3L16 2L15 2L15 1ZM14 2L14 3L15 3L15 2ZM22 2L22 3L23 3L23 2ZM27 4L27 5L26 5L26 6L27 6L27 7L28 7L28 6L27 6L27 5L28 5L28 4ZM9 6L9 7L10 7L10 6ZM11 6L11 7L12 7L12 6ZM10 8L10 9L11 9L11 8ZM21 8L21 9L22 9L22 8ZM8 9L8 10L9 10L9 11L10 11L10 10L9 10L9 9ZM26 9L26 10L28 10L28 11L27 11L27 12L28 12L28 13L26 13L26 14L28 14L28 15L29 15L29 14L31 14L31 13L32 13L32 12L31 12L31 11L29 11L29 10L28 10L28 9ZM14 10L14 13L15 13L15 12L17 12L17 13L18 13L18 12L17 12L17 10ZM23 10L23 11L22 11L22 12L23 12L23 11L24 11L24 12L26 12L26 11L24 11L24 10ZM3 11L3 12L2 12L2 14L3 14L3 15L2 15L2 16L1 16L1 17L2 17L2 16L4 16L4 17L3 17L3 18L2 18L2 20L3 20L3 22L4 22L4 20L5 20L5 21L6 21L6 22L8 22L8 21L9 21L9 23L10 23L10 22L14 22L14 21L12 21L12 19L13 19L13 20L14 20L14 19L15 19L15 18L12 18L12 17L11 17L11 16L7 16L7 15L6 15L6 14L5 14L5 13L6 13L6 12L7 12L7 11L6 11L6 12L5 12L5 11ZM12 11L12 13L13 13L13 11ZM19 11L19 12L20 12L20 11ZM3 12L3 13L5 13L5 12ZM29 12L29 13L31 13L31 12ZM19 13L19 14L20 14L20 13ZM24 13L24 14L23 14L23 15L22 15L22 16L23 16L23 17L22 17L22 18L23 18L23 19L24 19L24 18L25 18L25 17L26 17L26 16L27 16L27 15L25 15L25 13ZM35 14L35 16L34 16L34 17L35 17L35 16L37 16L37 14ZM4 15L4 16L5 16L5 17L7 17L7 18L6 18L6 19L7 19L7 18L10 18L10 20L9 20L9 21L11 21L11 18L10 18L10 17L7 17L7 16L6 16L6 15ZM14 16L14 17L15 17L15 16ZM24 16L24 17L23 17L23 18L24 18L24 17L25 17L25 16ZM32 16L32 17L33 17L33 16ZM35 18L35 19L36 19L36 20L35 20L35 21L34 21L34 23L37 23L37 22L36 22L36 21L37 21L37 18ZM19 19L19 20L20 20L20 19ZM27 19L27 20L28 20L28 19ZM6 20L6 21L8 21L8 20ZM17 21L17 22L16 22L16 23L17 23L17 22L18 22L18 21ZM23 21L23 22L24 22L24 21ZM19 22L19 23L20 23L20 22ZM27 22L27 23L26 23L26 24L24 24L24 25L22 25L22 26L24 26L24 27L23 27L23 28L24 28L24 29L23 29L23 30L24 30L24 31L26 31L26 30L25 30L25 29L26 29L26 28L25 28L25 26L24 26L24 25L27 25L27 23L28 23L28 22ZM12 23L12 24L13 24L13 26L12 26L12 25L11 25L11 28L9 28L9 27L10 27L10 24L8 24L8 25L9 25L9 26L7 26L7 25L6 25L6 26L7 26L7 27L5 27L5 26L3 26L3 27L5 27L5 28L7 28L7 27L8 27L8 28L9 28L9 29L11 29L11 28L12 28L12 30L11 30L11 31L12 31L12 30L14 30L14 31L13 31L13 32L14 32L14 31L15 31L15 30L14 30L14 29L15 29L15 28L14 28L14 26L15 26L15 25L14 25L14 24L15 24L15 23ZM36 24L36 25L37 25L37 24ZM26 26L26 27L28 27L28 26ZM13 28L13 29L14 29L14 28ZM29 29L29 32L32 32L32 29ZM30 30L30 31L31 31L31 30ZM20 31L20 32L18 32L18 33L20 33L20 32L21 32L21 34L23 34L23 33L22 33L22 32L21 32L21 31ZM36 32L36 33L37 33L37 32ZM27 35L27 36L29 36L29 37L31 37L31 36L29 36L29 35ZM34 35L34 36L36 36L36 35ZM12 36L12 37L13 37L13 36ZM17 36L17 37L19 37L19 36ZM25 36L25 37L26 37L26 36ZM0 0L0 7L7 7L7 0ZM1 1L1 6L6 6L6 1ZM2 2L2 5L5 5L5 2ZM30 0L30 7L37 7L37 0ZM31 1L31 6L36 6L36 1ZM32 2L32 5L35 5L35 2ZM0 30L0 37L7 37L7 30ZM1 31L1 36L6 36L6 31ZM2 32L2 35L5 35L5 32Z" fill="#000000"/></g></g></svg>
