<?xml version="1.0" encoding="UTF-8"?>
<svg xmlns="http://www.w3.org/2000/svg" version="1.1" width="400" height="400" viewBox="0 0 400 400"><rect x="0" y="0" width="400" height="400" fill="#ffffff"/><g transform="scale(9.756)"><g transform="translate(2,2)"><path fill-rule="evenodd" d="M9 0L9 1L8 1L8 2L9 2L9 3L8 3L8 4L10 4L10 7L11 7L11 4L12 4L12 5L13 5L13 4L12 4L12 2L19 2L19 3L20 3L20 2L21 2L21 3L22 3L22 4L18 4L18 3L17 3L17 4L16 4L16 3L14 3L14 4L15 4L15 6L14 6L14 9L18 9L18 8L17 8L17 6L16 6L16 5L17 5L17 4L18 4L18 5L20 5L20 7L21 7L21 8L22 8L22 9L24 9L24 7L25 7L25 6L26 6L26 8L25 8L25 10L24 10L24 11L27 11L27 12L26 12L26 13L25 13L25 14L24 14L24 13L23 13L23 12L22 12L22 11L23 11L23 10L21 10L21 9L20 9L20 8L19 8L19 10L21 10L21 11L20 11L20 13L19 13L19 14L21 14L21 16L23 16L23 18L24 18L24 17L25 17L25 18L26 18L26 17L28 17L28 16L27 16L27 15L28 15L28 14L29 14L29 15L30 15L30 14L29 14L29 13L31 13L31 16L29 16L29 19L28 19L28 18L27 18L27 19L26 19L26 20L24 20L24 21L22 21L22 22L24 22L24 23L23 23L23 24L24 24L24 23L25 23L25 22L24 22L24 21L27 21L27 20L29 20L29 24L27 24L27 25L31 25L31 24L32 24L32 25L33 25L33 26L35 26L35 24L33 24L33 23L31 23L31 24L30 24L30 22L31 22L31 18L32 18L32 19L34 19L34 18L32 18L32 17L33 17L33 16L32 16L32 13L35 13L35 12L36 12L36 13L37 13L37 12L36 12L36 11L37 11L37 10L35 10L35 9L36 9L36 8L35 8L35 9L34 9L34 8L33 8L33 10L32 10L32 8L31 8L31 10L29 10L29 9L30 9L30 8L29 8L29 3L27 3L27 2L28 2L28 1L29 1L29 0L28 0L28 1L27 1L27 0L26 0L26 1L24 1L24 0L23 0L23 1L24 1L24 2L26 2L26 3L25 3L25 6L24 6L24 7L23 7L23 5L24 5L24 4L23 4L23 2L22 2L22 1L21 1L21 0L17 0L17 1L15 1L15 0L14 0L14 1L11 1L11 2L10 2L10 0ZM19 1L19 2L20 2L20 1ZM26 1L26 2L27 2L27 1ZM10 3L10 4L11 4L11 3ZM26 4L26 5L28 5L28 4ZM8 5L8 7L9 7L9 5ZM12 6L12 9L13 9L13 6ZM15 6L15 8L16 8L16 6ZM18 6L18 7L19 7L19 6ZM21 6L21 7L22 7L22 8L23 8L23 7L22 7L22 6ZM27 6L27 7L28 7L28 6ZM0 8L0 10L4 10L4 11L5 11L5 10L6 10L6 11L7 11L7 12L6 12L6 13L7 13L7 14L5 14L5 13L4 13L4 12L3 12L3 14L2 14L2 11L1 11L1 13L0 13L0 16L1 16L1 15L2 15L2 16L3 16L3 15L4 15L4 14L5 14L5 15L7 15L7 16L6 16L6 17L5 17L5 16L4 16L4 18L3 18L3 17L1 17L1 18L0 18L0 19L1 19L1 20L2 20L2 21L3 21L3 22L2 22L2 24L3 24L3 25L2 25L2 27L3 27L3 26L4 26L4 29L5 29L5 26L6 26L6 27L7 27L7 28L6 28L6 29L7 29L7 28L9 28L9 29L8 29L8 31L9 31L9 32L8 32L8 37L9 37L9 36L10 36L10 37L11 37L11 36L12 36L12 37L14 37L14 36L13 36L13 35L14 35L14 34L15 34L15 35L16 35L16 34L15 34L15 33L16 33L16 32L15 32L15 33L14 33L14 32L13 32L13 33L14 33L14 34L12 34L12 32L11 32L11 29L12 29L12 30L13 30L13 29L14 29L14 30L15 30L15 31L16 31L16 30L17 30L17 29L18 29L18 30L21 30L21 31L20 31L20 32L22 32L22 34L24 34L24 35L25 35L25 33L26 33L26 36L22 36L22 35L21 35L21 33L19 33L19 32L17 32L17 33L18 33L18 34L17 34L17 35L18 35L18 36L16 36L16 37L19 37L19 34L20 34L20 36L22 36L22 37L26 37L26 36L27 36L27 37L28 37L28 36L30 36L30 37L31 37L31 35L28 35L28 34L33 34L33 35L32 35L32 37L33 37L33 36L34 36L34 37L37 37L37 34L34 34L34 33L35 33L35 32L36 32L36 33L37 33L37 30L36 30L36 29L35 29L35 28L36 28L36 27L37 27L37 26L36 26L36 27L35 27L35 28L33 28L33 27L32 27L32 28L31 28L31 27L29 27L29 28L28 28L28 31L27 31L27 33L26 33L26 32L25 32L25 31L26 31L26 30L27 30L27 29L26 29L26 28L24 28L24 29L23 29L23 28L22 28L22 27L21 27L21 28L20 28L20 27L18 27L18 28L17 28L17 27L16 27L16 26L17 26L17 25L18 25L18 26L20 26L20 25L18 25L18 24L17 24L17 25L14 25L14 24L13 24L13 23L18 23L18 22L20 22L20 20L22 20L22 19L20 19L20 20L19 20L19 21L18 21L18 20L17 20L17 19L19 19L19 18L20 18L20 17L18 17L18 16L17 16L17 15L18 15L18 13L16 13L16 12L17 12L17 10L14 10L14 12L13 12L13 13L12 13L12 11L13 11L13 10L9 10L9 9L11 9L11 8L6 8L6 9L5 9L5 8ZM28 8L28 9L26 9L26 10L28 10L28 12L29 12L29 10L28 10L28 9L29 9L29 8ZM6 9L6 10L7 10L7 11L9 11L9 10L8 10L8 9ZM31 10L31 11L32 11L32 12L35 12L35 11L34 11L34 10L33 10L33 11L32 11L32 10ZM10 11L10 12L11 12L11 11ZM18 11L18 12L19 12L19 11ZM7 12L7 13L8 13L8 15L9 15L9 16L7 16L7 17L6 17L6 18L4 18L4 19L3 19L3 21L4 21L4 23L5 23L5 25L6 25L6 26L7 26L7 27L8 27L8 26L9 26L9 22L10 22L10 27L9 27L9 28L10 28L10 27L11 27L11 26L13 26L13 27L12 27L12 28L14 28L14 29L15 29L15 26L13 26L13 25L12 25L12 23L13 23L13 22L14 22L14 21L15 21L15 18L16 18L16 19L17 19L17 18L18 18L18 17L17 17L17 16L15 16L15 14L12 14L12 13L9 13L9 12ZM14 12L14 13L15 13L15 12ZM21 12L21 13L22 13L22 14L23 14L23 15L24 15L24 16L26 16L26 15L24 15L24 14L23 14L23 13L22 13L22 12ZM27 13L27 14L28 14L28 13ZM10 14L10 16L9 16L9 18L8 18L8 19L7 19L7 18L6 18L6 19L4 19L4 20L5 20L5 23L8 23L8 22L9 22L9 21L12 21L12 22L13 22L13 21L14 21L14 20L13 20L13 21L12 21L12 19L14 19L14 18L15 18L15 17L14 17L14 16L13 16L13 15L12 15L12 17L14 17L14 18L11 18L11 14ZM35 14L35 16L34 16L34 17L35 17L35 16L37 16L37 14ZM19 15L19 16L20 16L20 15ZM31 16L31 17L30 17L30 18L31 18L31 17L32 17L32 16ZM21 17L21 18L22 18L22 17ZM10 18L10 19L11 19L11 18ZM35 18L35 19L36 19L36 20L35 20L35 21L34 21L34 23L37 23L37 22L36 22L36 21L37 21L37 18ZM6 19L6 20L7 20L7 19ZM29 19L29 20L30 20L30 19ZM8 20L8 21L6 21L6 22L8 22L8 21L9 21L9 20ZM32 20L32 21L33 21L33 20ZM0 22L0 24L1 24L1 22ZM26 22L26 23L28 23L28 22ZM19 23L19 24L20 24L20 23ZM21 23L21 24L22 24L22 23ZM6 24L6 25L7 25L7 26L8 26L8 25L7 25L7 24ZM25 24L25 25L26 25L26 24ZM36 24L36 25L37 25L37 24ZM0 25L0 29L1 29L1 25ZM21 25L21 26L22 26L22 25ZM23 25L23 26L24 26L24 25ZM25 26L25 27L26 27L26 26ZM27 26L27 27L28 27L28 26ZM18 28L18 29L19 29L19 28ZM21 28L21 29L22 29L22 31L24 31L24 30L25 30L25 29L24 29L24 30L23 30L23 29L22 29L22 28ZM9 29L9 30L10 30L10 29ZM29 29L29 32L32 32L32 29ZM33 29L33 30L34 30L34 32L35 32L35 29ZM30 30L30 31L31 31L31 30ZM9 32L9 33L10 33L10 34L9 34L9 35L10 35L10 34L11 34L11 35L12 35L12 34L11 34L11 32ZM23 32L23 33L24 33L24 32ZM34 35L34 36L36 36L36 35ZM0 0L0 7L7 7L7 0ZM1 1L1 6L6 6L6 1ZM2 2L2 5L5 5L5 2ZM30 0L30 7L37 7L37 0ZM31 1L31 6L36 6L36 1ZM32 2L32 5L35 5L35 2ZM0 30L0 37L7 37L7 30ZM1 31L1 36L6 36L6 31ZM2 32L2 35L5 35L5 32Z" fill="#000000"/></g></g></svg>
