<?xml version="1.0" encoding="UTF-8"?>
<svg xmlns="http://www.w3.org/2000/svg" version="1.1" width="400" height="400" viewBox="0 0 400 400"><rect x="0" y="0" width="400" height="400" fill="#ffffff"/><g transform="scale(9.756)"><g transform="translate(2,2)"><path fill-rule="evenodd" d="M8 0L8 4L10 4L10 3L11 3L11 4L12 4L12 2L11 2L11 0ZM12 0L12 1L13 1L13 2L15 2L15 1L16 1L16 0L15 0L15 1L13 1L13 0ZM18 0L18 1L17 1L17 2L16 2L16 3L15 3L15 5L14 5L14 3L13 3L13 5L11 5L11 6L10 6L10 7L9 7L9 5L8 5L8 7L9 7L9 8L10 8L10 7L11 7L11 6L12 6L12 8L11 8L11 9L10 9L10 10L11 10L11 11L9 11L9 10L8 10L8 9L7 9L7 8L4 8L4 10L3 10L3 9L2 9L2 8L0 8L0 13L1 13L1 14L0 14L0 15L1 15L1 16L0 16L0 18L1 18L1 19L0 19L0 20L1 20L1 19L3 19L3 18L2 18L2 17L3 17L3 16L5 16L5 17L4 17L4 18L5 18L5 17L7 17L7 18L6 18L6 19L7 19L7 20L5 20L5 19L4 19L4 20L5 20L5 21L4 21L4 24L5 24L5 25L4 25L4 29L8 29L8 30L9 30L9 31L8 31L8 33L9 33L9 35L8 35L8 37L10 37L10 36L12 36L12 35L14 35L14 37L15 37L15 35L16 35L16 36L17 36L17 37L19 37L19 36L20 36L20 37L24 37L24 36L23 36L23 35L24 35L24 34L25 34L25 35L26 35L26 34L27 34L27 32L28 32L28 33L29 33L29 34L28 34L28 35L27 35L27 36L26 36L26 37L28 37L28 35L29 35L29 37L32 37L32 36L33 36L33 37L37 37L37 36L36 36L36 35L34 35L34 34L33 34L33 35L32 35L32 36L31 36L31 33L33 33L33 32L34 32L34 33L35 33L35 32L36 32L36 33L37 33L37 31L35 31L35 30L36 30L36 29L35 29L35 27L36 27L36 28L37 28L37 27L36 27L36 26L35 26L35 24L36 24L36 25L37 25L37 23L34 23L34 29L33 29L33 28L32 28L32 27L31 27L31 26L33 26L33 25L31 25L31 24L32 24L32 22L36 22L36 21L37 21L37 20L36 20L36 19L35 19L35 18L34 18L34 17L35 17L35 14L34 14L34 13L35 13L35 11L34 11L34 13L32 13L32 10L33 10L33 9L34 9L34 10L35 10L35 9L37 9L37 8L33 8L33 9L32 9L32 8L31 8L31 9L32 9L32 10L31 10L31 11L29 11L29 10L30 10L30 9L29 9L29 10L28 10L28 9L27 9L27 11L26 11L26 9L25 9L25 5L26 5L26 7L27 7L27 5L29 5L29 4L28 4L28 3L29 3L29 2L26 2L26 1L29 1L29 0L25 0L25 1L24 1L24 2L23 2L23 0L21 0L21 3L22 3L22 2L23 2L23 4L22 4L22 7L21 7L21 5L19 5L19 4L20 4L20 3L19 3L19 2L20 2L20 1L19 1L19 0ZM9 2L9 3L10 3L10 2ZM25 2L25 3L26 3L26 2ZM16 3L16 5L15 5L15 7L14 7L14 5L13 5L13 8L12 8L12 9L11 9L11 10L12 10L12 9L13 9L13 8L14 8L14 9L15 9L15 7L16 7L16 6L17 6L17 7L18 7L18 6L17 6L17 4L18 4L18 3ZM24 4L24 5L23 5L23 8L24 8L24 5L25 5L25 4ZM26 4L26 5L27 5L27 4ZM19 6L19 8L18 8L18 9L16 9L16 14L19 14L19 15L18 15L18 16L17 16L17 15L16 15L16 16L15 16L15 13L14 13L14 11L15 11L15 10L14 10L14 11L12 11L12 12L9 12L9 11L8 11L8 10L7 10L7 9L5 9L5 10L7 10L7 11L2 11L2 13L3 13L3 14L1 14L1 15L2 15L2 16L3 16L3 14L4 14L4 15L5 15L5 16L7 16L7 15L10 15L10 14L9 14L9 13L11 13L11 16L8 16L8 17L11 17L11 18L9 18L9 19L8 19L8 18L7 18L7 19L8 19L8 20L7 20L7 21L6 21L6 22L7 22L7 23L6 23L6 24L9 24L9 25L8 25L8 27L5 27L5 28L8 28L8 29L9 29L9 30L10 30L10 31L9 31L9 32L10 32L10 35L9 35L9 36L10 36L10 35L11 35L11 33L12 33L12 32L13 32L13 33L14 33L14 35L15 35L15 33L14 33L14 31L15 31L15 32L16 32L16 31L15 31L15 29L16 29L16 30L18 30L18 29L19 29L19 31L18 31L18 33L16 33L16 34L18 34L18 33L19 33L19 35L20 35L20 36L21 36L21 35L22 35L22 34L23 34L23 33L26 33L26 32L27 32L27 31L28 31L28 27L27 27L27 26L26 26L26 25L27 25L27 24L28 24L28 23L27 23L27 24L26 24L26 23L25 23L25 22L27 22L27 21L28 21L28 22L29 22L29 23L30 23L30 24L31 24L31 21L30 21L30 22L29 22L29 21L28 21L28 20L27 20L27 19L25 19L25 20L26 20L26 21L24 21L24 20L23 20L23 21L21 21L21 22L22 22L22 25L20 25L20 24L21 24L21 23L20 23L20 21L19 21L19 20L18 20L18 21L17 21L17 20L16 20L16 19L18 19L18 18L19 18L19 19L20 19L20 20L21 20L21 18L20 18L20 15L21 15L21 14L22 14L22 15L23 15L23 17L22 17L22 19L23 19L23 17L24 17L24 18L26 18L26 17L28 17L28 19L30 19L30 18L31 18L31 19L33 19L33 20L32 20L32 21L33 21L33 20L34 20L34 21L35 21L35 20L34 20L34 19L33 19L33 18L31 18L31 17L28 17L28 16L26 16L26 15L25 15L25 14L26 14L26 13L27 13L27 12L26 12L26 11L25 11L25 13L24 13L24 12L23 12L23 11L22 11L22 12L23 12L23 13L24 13L24 15L23 15L23 14L22 14L22 13L21 13L21 14L20 14L20 13L19 13L19 12L18 12L18 13L17 13L17 10L18 10L18 9L19 9L19 11L20 11L20 12L21 12L21 8L20 8L20 6ZM28 6L28 8L29 8L29 6ZM19 8L19 9L20 9L20 8ZM22 9L22 10L23 10L23 9ZM24 9L24 10L25 10L25 9ZM28 11L28 15L29 15L29 16L32 16L32 17L33 17L33 16L34 16L34 14L33 14L33 15L32 15L32 13L29 13L29 11ZM36 11L36 13L37 13L37 11ZM3 12L3 13L4 13L4 12ZM5 12L5 13L7 13L7 14L6 14L6 15L7 15L7 14L8 14L8 12ZM12 12L12 13L13 13L13 15L12 15L12 16L11 16L11 17L12 17L12 18L11 18L11 20L9 20L9 21L8 21L8 23L9 23L9 24L10 24L10 25L9 25L9 28L11 28L11 31L10 31L10 32L11 32L11 31L12 31L12 28L13 28L13 23L15 23L15 24L14 24L14 25L15 25L15 24L16 24L16 26L15 26L15 27L16 27L16 28L17 28L17 29L18 29L18 28L20 28L20 29L21 29L21 30L20 30L20 31L19 31L19 32L20 32L20 33L22 33L22 32L25 32L25 30L26 30L26 31L27 31L27 29L25 29L25 27L24 27L24 26L25 26L25 24L24 24L24 25L23 25L23 26L22 26L22 27L21 27L21 26L20 26L20 27L19 27L19 25L18 25L18 24L20 24L20 23L17 23L17 21L16 21L16 20L15 20L15 19L16 19L16 18L18 18L18 17L17 17L17 16L16 16L16 18L14 18L14 17L15 17L15 16L14 16L14 17L12 17L12 16L13 16L13 15L14 15L14 13L13 13L13 12ZM24 15L24 16L25 16L25 15ZM12 19L12 20L11 20L11 22L10 22L10 21L9 21L9 23L11 23L11 24L12 24L12 23L13 23L13 21L14 21L14 22L16 22L16 21L14 21L14 19ZM12 20L12 21L13 21L13 20ZM0 21L0 22L1 22L1 23L0 23L0 24L1 24L1 25L0 25L0 26L2 26L2 25L3 25L3 24L1 24L1 23L2 23L2 21ZM18 21L18 22L19 22L19 21ZM23 21L23 23L24 23L24 21ZM16 23L16 24L17 24L17 23ZM5 25L5 26L7 26L7 25ZM10 25L10 27L11 27L11 26L12 26L12 25ZM28 25L28 26L29 26L29 28L30 28L30 26L29 26L29 25ZM17 26L17 27L18 27L18 26ZM20 27L20 28L21 28L21 27ZM26 27L26 28L27 28L27 27ZM0 28L0 29L3 29L3 28ZM14 28L14 29L15 29L15 28ZM22 28L22 29L23 29L23 28ZM29 29L29 32L32 32L32 29ZM34 29L34 30L35 30L35 29ZM21 30L21 31L20 31L20 32L21 32L21 31L22 31L22 30ZM30 30L30 31L31 31L31 30ZM20 34L20 35L21 35L21 34ZM0 0L0 7L7 7L7 0ZM1 1L1 6L6 6L6 1ZM2 2L2 5L5 5L5 2ZM30 0L30 7L37 7L37 0ZM31 1L31 6L36 6L36 1ZM32 2L32 5L35 5L35 2ZM0 30L0 37L7 37L7 30ZM1 31L1 36L6 36L6 31ZM2 32L2 35L5 35L5 32Z" fill="#000000"/></g></g></svg>
