<?xml version="1.0" encoding="UTF-8"?>
<svg xmlns="http://www.w3.org/2000/svg" version="1.1" width="400" height="400" viewBox="0 0 400 400"><rect x="0" y="0" width="400" height="400" fill="#ffffff"/><g transform="scale(9.756)"><g transform="translate(2,2)"><path fill-rule="evenodd" d="M8 0L8 4L10 4L10 3L11 3L11 4L12 4L12 2L11 2L11 0ZM12 0L12 1L13 1L13 2L14 2L14 1L15 1L15 0ZM16 0L16 2L15 2L15 3L14 3L14 4L13 4L13 5L11 5L11 6L10 6L10 7L9 7L9 5L8 5L8 7L9 7L9 8L10 8L10 7L11 7L11 6L12 6L12 8L11 8L11 9L10 9L10 10L9 10L9 12L12 12L12 13L13 13L13 14L14 14L14 15L15 15L15 16L16 16L16 18L15 18L15 17L14 17L14 16L13 16L13 15L12 15L12 16L11 16L11 17L12 17L12 18L11 18L11 20L12 20L12 21L13 21L13 23L12 23L12 24L11 24L11 23L9 23L9 24L6 24L6 23L8 23L8 22L5 22L5 21L4 21L4 22L3 22L3 21L2 21L2 22L0 22L0 26L2 26L2 27L3 27L3 29L7 29L7 28L8 28L8 30L10 30L10 32L9 32L9 31L8 31L8 33L9 33L9 35L8 35L8 37L10 37L10 36L12 36L12 37L14 37L14 36L12 36L12 35L13 35L13 34L14 34L14 35L16 35L16 36L17 36L17 37L24 37L24 36L23 36L23 35L24 35L24 34L25 34L25 35L26 35L26 34L27 34L27 32L28 32L28 33L29 33L29 34L28 34L28 35L27 35L27 36L26 36L26 37L28 37L28 35L29 35L29 37L32 37L32 36L33 36L33 37L37 37L37 36L36 36L36 35L34 35L34 34L33 34L33 35L32 35L32 36L31 36L31 33L33 33L33 32L34 32L34 33L35 33L35 32L36 32L36 33L37 33L37 31L35 31L35 30L36 30L36 29L35 29L35 27L36 27L36 28L37 28L37 27L36 27L36 26L35 26L35 24L36 24L36 25L37 25L37 23L34 23L34 29L33 29L33 28L32 28L32 27L33 27L33 25L31 25L31 24L30 24L30 23L29 23L29 22L30 22L30 21L31 21L31 22L36 22L36 21L37 21L37 20L36 20L36 19L35 19L35 18L34 18L34 17L35 17L35 14L34 14L34 13L35 13L35 11L34 11L34 13L32 13L32 10L33 10L33 9L34 9L34 10L35 10L35 9L37 9L37 8L33 8L33 9L32 9L32 8L31 8L31 9L32 9L32 10L31 10L31 11L29 11L29 10L30 10L30 9L29 9L29 10L28 10L28 9L27 9L27 11L26 11L26 9L25 9L25 5L26 5L26 7L27 7L27 5L29 5L29 4L28 4L28 3L29 3L29 2L26 2L26 1L29 1L29 0L25 0L25 1L24 1L24 2L23 2L23 0L21 0L21 3L22 3L22 2L23 2L23 4L22 4L22 7L21 7L21 5L19 5L19 4L20 4L20 3L19 3L19 2L20 2L20 1L19 1L19 0L18 0L18 1L17 1L17 0ZM9 2L9 3L10 3L10 2ZM25 2L25 3L26 3L26 2ZM17 3L17 4L18 4L18 3ZM15 4L15 5L14 5L14 6L13 6L13 8L12 8L12 9L11 9L11 10L10 10L10 11L11 11L11 10L12 10L12 9L14 9L14 10L15 10L15 9L16 9L16 14L19 14L19 15L18 15L18 16L17 16L17 15L16 15L16 16L17 16L17 17L18 17L18 18L16 18L16 19L15 19L15 18L13 18L13 19L12 19L12 20L13 20L13 21L14 21L14 22L16 22L16 21L17 21L17 23L16 23L16 24L15 24L15 23L13 23L13 25L14 25L14 26L13 26L13 28L12 28L12 31L11 31L11 33L12 33L12 32L14 32L14 33L15 33L15 32L16 32L16 31L14 31L14 30L13 30L13 28L14 28L14 29L16 29L16 30L18 30L18 29L19 29L19 31L18 31L18 33L16 33L16 34L18 34L18 33L19 33L19 35L22 35L22 34L23 34L23 33L26 33L26 32L27 32L27 31L28 31L28 27L27 27L27 26L26 26L26 25L27 25L27 24L28 24L28 23L27 23L27 24L26 24L26 23L25 23L25 22L27 22L27 21L28 21L28 22L29 22L29 21L28 21L28 20L27 20L27 19L25 19L25 20L26 20L26 21L24 21L24 20L23 20L23 21L21 21L21 22L20 22L20 21L19 21L19 20L18 20L18 21L17 21L17 20L16 20L16 19L18 19L18 18L19 18L19 19L20 19L20 20L21 20L21 18L20 18L20 15L21 15L21 14L22 14L22 15L23 15L23 17L22 17L22 19L23 19L23 17L24 17L24 18L26 18L26 17L28 17L28 19L30 19L30 18L31 18L31 19L33 19L33 20L32 20L32 21L33 21L33 20L34 20L34 21L35 21L35 20L34 20L34 19L33 19L33 18L31 18L31 17L28 17L28 16L32 16L32 17L33 17L33 16L34 16L34 14L33 14L33 15L32 15L32 13L29 13L29 11L28 11L28 16L26 16L26 15L25 15L25 14L26 14L26 13L27 13L27 12L26 12L26 11L25 11L25 13L24 13L24 12L23 12L23 11L22 11L22 12L23 12L23 13L24 13L24 15L23 15L23 14L22 14L22 13L21 13L21 14L20 14L20 13L19 13L19 12L18 12L18 13L17 13L17 10L18 10L18 9L19 9L19 11L20 11L20 12L21 12L21 8L20 8L20 6L19 6L19 8L18 8L18 9L16 9L16 8L15 8L15 7L16 7L16 4ZM24 4L24 5L23 5L23 8L24 8L24 5L25 5L25 4ZM26 4L26 5L27 5L27 4ZM14 6L14 7L15 7L15 6ZM17 6L17 7L18 7L18 6ZM28 6L28 8L29 8L29 6ZM0 8L0 9L1 9L1 10L0 10L0 12L1 12L1 11L3 11L3 12L2 12L2 13L0 13L0 15L1 15L1 16L2 16L2 17L3 17L3 16L4 16L4 17L5 17L5 16L6 16L6 17L7 17L7 18L6 18L6 19L5 19L5 20L6 20L6 21L9 21L9 22L10 22L10 20L9 20L9 19L7 19L7 18L9 18L9 17L10 17L10 13L9 13L9 14L8 14L8 13L7 13L7 12L6 12L6 11L8 11L8 10L5 10L5 9L7 9L7 8L4 8L4 9L2 9L2 8ZM14 8L14 9L15 9L15 8ZM19 8L19 9L20 9L20 8ZM22 9L22 10L23 10L23 9ZM24 9L24 10L25 10L25 9ZM4 11L4 12L5 12L5 13L6 13L6 14L7 14L7 15L6 15L6 16L7 16L7 15L8 15L8 14L7 14L7 13L6 13L6 12L5 12L5 11ZM12 11L12 12L13 12L13 13L14 13L14 14L15 14L15 13L14 13L14 11ZM36 11L36 13L37 13L37 11ZM2 13L2 16L3 16L3 15L5 15L5 14L4 14L4 13ZM24 15L24 16L25 16L25 15ZM12 16L12 17L13 17L13 16ZM0 17L0 21L1 21L1 20L3 20L3 18L1 18L1 17ZM6 19L6 20L7 20L7 19ZM14 19L14 21L16 21L16 20L15 20L15 19ZM18 21L18 22L19 22L19 21ZM23 21L23 23L24 23L24 21ZM2 22L2 23L1 23L1 24L2 24L2 25L3 25L3 24L2 24L2 23L3 23L3 22ZM21 22L21 23L17 23L17 24L16 24L16 26L14 26L14 28L15 28L15 27L16 27L16 28L17 28L17 29L18 29L18 28L19 28L19 29L21 29L21 30L22 30L22 31L20 31L20 32L19 32L19 33L22 33L22 32L25 32L25 31L24 31L24 30L26 30L26 31L27 31L27 29L25 29L25 27L24 27L24 26L25 26L25 24L24 24L24 25L23 25L23 26L22 26L22 27L19 27L19 25L22 25L22 22ZM5 24L5 25L4 25L4 28L7 28L7 27L8 27L8 28L9 28L9 27L8 27L8 25L6 25L6 24ZM9 24L9 26L12 26L12 25L10 25L10 24ZM14 24L14 25L15 25L15 24ZM18 24L18 25L19 25L19 24ZM5 25L5 26L6 26L6 27L7 27L7 26L6 26L6 25ZM28 25L28 26L29 26L29 28L30 28L30 26L29 26L29 25ZM17 26L17 27L18 27L18 26ZM31 26L31 27L32 27L32 26ZM10 27L10 30L11 30L11 27ZM26 27L26 28L27 28L27 27ZM0 28L0 29L2 29L2 28ZM22 28L22 29L23 29L23 28ZM29 29L29 32L32 32L32 29ZM34 29L34 30L35 30L35 29ZM30 30L30 31L31 31L31 30ZM10 34L10 35L9 35L9 36L10 36L10 35L11 35L11 34ZM0 0L0 7L7 7L7 0ZM1 1L1 6L6 6L6 1ZM2 2L2 5L5 5L5 2ZM30 0L30 7L37 7L37 0ZM31 1L31 6L36 6L36 1ZM32 2L32 5L35 5L35 2ZM0 30L0 37L7 37L7 30ZM1 31L1 36L6 36L6 31ZM2 32L2 35L5 35L5 32Z" fill="#000000"/></g></g></svg>
