<?xml version="1.0" encoding="UTF-8"?>
<svg xmlns="http://www.w3.org/2000/svg" version="1.1" width="400" height="400" viewBox="0 0 400 400"><rect x="0" y="0" width="400" height="400" fill="#ffffff"/><g transform="scale(9.756)"><g transform="translate(2,2)"><path fill-rule="evenodd" d="M8 0L8 4L9 4L9 5L8 5L8 7L9 7L9 6L10 6L10 9L11 9L11 8L12 8L12 9L13 9L13 10L14 10L14 9L15 9L15 11L14 11L14 12L13 12L13 11L12 11L12 12L10 12L10 11L11 11L11 10L6 10L6 11L8 11L8 12L4 12L4 11L1 11L1 10L3 10L3 9L2 9L2 8L0 8L0 11L1 11L1 12L0 12L0 14L1 14L1 15L2 15L2 16L3 16L3 17L2 17L2 18L1 18L1 17L0 17L0 19L1 19L1 20L2 20L2 19L3 19L3 17L4 17L4 16L5 16L5 15L7 15L7 16L6 16L6 17L5 17L5 18L4 18L4 19L7 19L7 18L6 18L6 17L7 17L7 16L8 16L8 15L9 15L9 16L10 16L10 18L9 18L9 17L8 17L8 18L9 18L9 19L8 19L8 20L9 20L9 19L10 19L10 18L11 18L11 16L12 16L12 17L13 17L13 19L12 19L12 20L11 20L11 21L9 21L9 22L10 22L10 24L8 24L8 22L5 22L5 21L7 21L7 20L4 20L4 22L5 22L5 23L4 23L4 26L2 26L2 25L3 25L3 23L2 23L2 24L1 24L1 25L0 25L0 26L2 26L2 27L4 27L4 28L0 28L0 29L5 29L5 27L4 27L4 26L5 26L5 23L7 23L7 24L6 24L6 25L7 25L7 24L8 24L8 25L9 25L9 26L6 26L6 27L7 27L7 28L6 28L6 29L8 29L8 30L9 30L9 31L8 31L8 33L9 33L9 35L8 35L8 37L9 37L9 35L10 35L10 37L11 37L11 35L12 35L12 32L13 32L13 31L16 31L16 32L17 32L17 33L18 33L18 34L19 34L19 32L20 32L20 33L22 33L22 32L25 32L25 30L26 30L26 31L27 31L27 32L26 32L26 33L23 33L23 34L22 34L22 35L21 35L21 34L20 34L20 35L19 35L19 36L18 36L18 35L17 35L17 34L16 34L16 33L15 33L15 32L14 32L14 33L13 33L13 35L16 35L16 36L14 36L14 37L19 37L19 36L20 36L20 37L24 37L24 36L23 36L23 35L24 35L24 34L25 34L25 35L26 35L26 34L27 34L27 32L28 32L28 33L29 33L29 34L28 34L28 35L27 35L27 36L26 36L26 37L28 37L28 35L29 35L29 37L32 37L32 36L33 36L33 37L37 37L37 36L36 36L36 35L34 35L34 34L33 34L33 35L32 35L32 36L31 36L31 33L33 33L33 32L34 32L34 33L35 33L35 30L36 30L36 29L35 29L35 27L36 27L36 28L37 28L37 27L36 27L36 26L35 26L35 24L36 24L36 25L37 25L37 23L34 23L34 29L33 29L33 28L32 28L32 27L31 27L31 26L33 26L33 25L31 25L31 24L30 24L30 23L29 23L29 22L30 22L30 21L31 21L31 23L32 23L32 24L33 24L33 23L32 23L32 22L36 22L36 21L37 21L37 20L36 20L36 19L35 19L35 18L34 18L34 17L35 17L35 14L34 14L34 13L35 13L35 11L34 11L34 13L32 13L32 10L33 10L33 9L34 9L34 10L35 10L35 9L37 9L37 8L33 8L33 9L32 9L32 8L31 8L31 9L32 9L32 10L31 10L31 11L29 11L29 10L30 10L30 9L29 9L29 10L28 10L28 9L27 9L27 11L26 11L26 9L25 9L25 5L26 5L26 7L27 7L27 5L29 5L29 4L28 4L28 3L29 3L29 2L26 2L26 1L29 1L29 0L25 0L25 1L24 1L24 2L23 2L23 0L21 0L21 3L22 3L22 2L23 2L23 4L22 4L22 7L21 7L21 6L20 6L20 5L19 5L19 3L20 3L20 1L19 1L19 0L16 0L16 2L17 2L17 3L18 3L18 5L19 5L19 6L18 6L18 7L17 7L17 6L16 6L16 7L15 7L15 6L14 6L14 7L15 7L15 8L14 8L14 9L13 9L13 8L12 8L12 7L13 7L13 6L12 6L12 7L11 7L11 3L10 3L10 2L9 2L9 0ZM13 0L13 1L11 1L11 2L12 2L12 5L16 5L16 3L15 3L15 2L14 2L14 1L15 1L15 0ZM13 2L13 4L14 4L14 2ZM25 2L25 3L26 3L26 2ZM24 4L24 5L23 5L23 8L24 8L24 5L25 5L25 4ZM26 4L26 5L27 5L27 4ZM19 6L19 8L18 8L18 9L16 9L16 10L19 10L19 11L18 11L18 12L17 12L17 11L15 11L15 12L14 12L14 13L16 13L16 18L17 18L17 19L16 19L16 20L15 20L15 19L13 19L13 20L12 20L12 21L11 21L11 22L12 22L12 21L14 21L14 22L16 22L16 23L12 23L12 24L10 24L10 27L11 27L11 28L10 28L10 29L11 29L11 30L10 30L10 31L11 31L11 30L12 30L12 29L11 29L11 28L12 28L12 27L13 27L13 28L14 28L14 29L15 29L15 30L16 30L16 28L17 28L17 27L16 27L16 28L15 28L15 27L14 27L14 26L13 26L13 25L12 25L12 24L14 24L14 25L15 25L15 26L16 26L16 25L17 25L17 26L18 26L18 25L19 25L19 27L18 27L18 29L17 29L17 30L18 30L18 29L19 29L19 31L20 31L20 32L21 32L21 31L22 31L22 30L21 30L21 29L20 29L20 28L21 28L21 27L22 27L22 26L23 26L23 25L24 25L24 24L25 24L25 26L24 26L24 27L25 27L25 29L27 29L27 31L28 31L28 27L27 27L27 26L26 26L26 25L27 25L27 24L28 24L28 23L27 23L27 24L26 24L26 23L25 23L25 22L27 22L27 21L28 21L28 22L29 22L29 21L28 21L28 20L27 20L27 19L25 19L25 20L26 20L26 21L24 21L24 20L23 20L23 21L21 21L21 22L20 22L20 19L21 19L21 18L20 18L20 17L19 17L19 16L18 16L18 17L17 17L17 15L18 15L18 14L19 14L19 15L20 15L20 16L21 16L21 14L22 14L22 15L23 15L23 17L22 17L22 19L23 19L23 17L24 17L24 18L26 18L26 17L28 17L28 19L30 19L30 18L31 18L31 19L33 19L33 20L32 20L32 21L33 21L33 20L34 20L34 21L35 21L35 20L34 20L34 19L33 19L33 18L31 18L31 17L28 17L28 15L27 15L27 16L26 16L26 15L25 15L25 14L26 14L26 13L27 13L27 12L26 12L26 11L25 11L25 13L24 13L24 12L23 12L23 11L22 11L22 12L23 12L23 13L24 13L24 15L23 15L23 14L22 14L22 13L21 13L21 12L20 12L20 11L21 11L21 9L20 9L20 8L21 8L21 7L20 7L20 6ZM28 6L28 8L29 8L29 6ZM4 8L4 10L5 10L5 9L7 9L7 8ZM22 9L22 10L23 10L23 9ZM24 9L24 10L25 10L25 9ZM28 11L28 14L29 14L29 16L32 16L32 17L33 17L33 16L34 16L34 14L33 14L33 15L32 15L32 13L29 13L29 11ZM36 11L36 13L37 13L37 11ZM1 12L1 14L2 14L2 15L5 15L5 14L4 14L4 12ZM8 12L8 14L9 14L9 13L10 13L10 15L11 15L11 14L12 14L12 13L13 13L13 12L12 12L12 13L10 13L10 12ZM16 12L16 13L17 13L17 14L18 14L18 13L17 13L17 12ZM19 12L19 13L20 13L20 12ZM6 13L6 14L7 14L7 13ZM13 14L13 15L12 15L12 16L13 16L13 17L14 17L14 18L15 18L15 17L14 17L14 16L15 16L15 15L14 15L14 14ZM24 15L24 16L25 16L25 15ZM18 17L18 18L19 18L19 17ZM17 19L17 20L16 20L16 22L18 22L18 23L16 23L16 24L15 24L15 25L16 25L16 24L17 24L17 25L18 25L18 24L19 24L19 25L20 25L20 27L19 27L19 28L20 28L20 27L21 27L21 25L22 25L22 22L21 22L21 24L20 24L20 23L19 23L19 21L18 21L18 20L19 20L19 19ZM14 20L14 21L15 21L15 20ZM23 21L23 23L24 23L24 21ZM0 22L0 23L1 23L1 22ZM28 25L28 26L29 26L29 28L30 28L30 26L29 26L29 25ZM8 27L8 29L9 29L9 27ZM26 27L26 28L27 28L27 27ZM22 28L22 29L23 29L23 28ZM29 29L29 32L32 32L32 29ZM34 29L34 30L35 30L35 29ZM20 30L20 31L21 31L21 30ZM30 30L30 31L31 31L31 30ZM36 32L36 33L37 33L37 32ZM14 33L14 34L15 34L15 33ZM10 34L10 35L11 35L11 34ZM20 35L20 36L21 36L21 35ZM12 36L12 37L13 37L13 36ZM0 0L0 7L7 7L7 0ZM1 1L1 6L6 6L6 1ZM2 2L2 5L5 5L5 2ZM30 0L30 7L37 7L37 0ZM31 1L31 6L36 6L36 1ZM32 2L32 5L35 5L35 2ZM0 30L0 37L7 37L7 30ZM1 31L1 36L6 36L6 31ZM2 32L2 35L5 35L5 32Z" fill="#000000"/></g></g></svg>
