<?xml version="1.0" encoding="UTF-8"?>
<svg xmlns="http://www.w3.org/2000/svg" version="1.1" width="400" height="400" viewBox="0 0 400 400"><rect x="0" y="0" width="400" height="400" fill="#ffffff"/><g transform="scale(9.756)"><g transform="translate(2,2)"><path fill-rule="evenodd" d="M8 0L8 4L9 4L9 5L8 5L8 7L9 7L9 6L10 6L10 9L8 9L8 10L6 10L6 9L7 9L7 8L4 8L4 10L1 10L1 12L0 12L0 14L1 14L1 15L2 15L2 16L4 16L4 15L3 15L3 14L4 14L4 13L3 13L3 14L1 14L1 13L2 13L2 11L4 11L4 12L5 12L5 16L6 16L6 17L7 17L7 18L4 18L4 17L1 17L1 16L0 16L0 19L2 19L2 20L0 20L0 23L2 23L2 22L1 22L1 21L2 21L2 20L3 20L3 24L2 24L2 25L1 25L1 24L0 24L0 26L2 26L2 28L0 28L0 29L3 29L3 27L4 27L4 29L8 29L8 30L9 30L9 31L8 31L8 33L9 33L9 31L10 31L10 32L12 32L12 33L13 33L13 31L15 31L15 32L14 32L14 33L15 33L15 35L14 35L14 36L13 36L13 35L12 35L12 34L11 34L11 33L10 33L10 34L9 34L9 35L8 35L8 37L10 37L10 35L12 35L12 37L14 37L14 36L15 36L15 37L16 37L16 36L15 36L15 35L16 35L16 34L17 34L17 33L18 33L18 34L19 34L19 33L18 33L18 32L20 32L20 31L19 31L19 30L18 30L18 29L15 29L15 28L16 28L16 25L14 25L14 24L13 24L13 25L11 25L11 24L12 24L12 23L14 23L14 21L15 21L15 23L16 23L16 24L17 24L17 25L18 25L18 24L20 24L20 25L21 25L21 26L20 26L20 27L19 27L19 26L17 26L17 28L18 28L18 27L19 27L19 28L20 28L20 29L22 29L22 28L23 28L23 27L24 27L24 25L25 25L25 26L26 26L26 27L28 27L28 31L27 31L27 32L26 32L26 33L27 33L27 32L28 32L28 33L29 33L29 34L28 34L28 35L27 35L27 36L26 36L26 37L28 37L28 35L29 35L29 37L32 37L32 36L33 36L33 37L37 37L37 36L36 36L36 35L34 35L34 34L33 34L33 35L32 35L32 36L31 36L31 33L33 33L33 32L34 32L34 33L37 33L37 32L35 32L35 30L36 30L36 29L35 29L35 27L36 27L36 28L37 28L37 27L36 27L36 26L35 26L35 24L36 24L36 25L37 25L37 23L34 23L34 29L33 29L33 28L31 28L31 27L32 27L32 26L33 26L33 25L31 25L31 24L30 24L30 23L29 23L29 22L30 22L30 21L31 21L31 23L33 23L33 22L36 22L36 21L37 21L37 20L36 20L36 19L35 19L35 18L34 18L34 17L35 17L35 14L34 14L34 13L35 13L35 11L34 11L34 13L32 13L32 10L33 10L33 9L34 9L34 10L35 10L35 9L37 9L37 8L33 8L33 9L32 9L32 8L31 8L31 9L32 9L32 10L31 10L31 11L29 11L29 10L30 10L30 9L29 9L29 6L28 6L28 7L27 7L27 5L29 5L29 3L28 3L28 2L29 2L29 0L27 0L27 1L26 1L26 0L25 0L25 1L26 1L26 2L27 2L27 3L25 3L25 2L24 2L24 4L25 4L25 5L24 5L24 7L23 7L23 6L22 6L22 7L21 7L21 5L22 5L22 4L20 4L20 3L23 3L23 1L24 1L24 0L22 0L22 2L21 2L21 0L20 0L20 1L19 1L19 0L18 0L18 1L17 1L17 3L18 3L18 4L20 4L20 5L19 5L19 6L18 6L18 7L17 7L17 4L16 4L16 2L14 2L14 1L16 1L16 0L14 0L14 1L11 1L11 2L12 2L12 5L13 5L13 6L12 6L12 7L11 7L11 3L10 3L10 2L9 2L9 0ZM27 1L27 2L28 2L28 1ZM13 2L13 4L14 4L14 2ZM18 2L18 3L20 3L20 2ZM15 4L15 5L14 5L14 6L13 6L13 7L12 7L12 8L11 8L11 9L10 9L10 10L11 10L11 12L10 12L10 11L6 11L6 10L4 10L4 11L6 11L6 12L7 12L7 13L6 13L6 14L7 14L7 13L8 13L8 12L9 12L9 14L10 14L10 15L9 15L9 16L7 16L7 15L6 15L6 16L7 16L7 17L8 17L8 18L9 18L9 19L6 19L6 20L5 20L5 21L6 21L6 22L9 22L9 23L6 23L6 24L7 24L7 25L6 25L6 26L4 26L4 27L5 27L5 28L8 28L8 29L10 29L10 30L12 30L12 31L13 31L13 29L14 29L14 30L15 30L15 29L14 29L14 28L15 28L15 27L14 27L14 26L12 26L12 27L13 27L13 29L12 29L12 28L11 28L11 27L9 27L9 25L10 25L10 24L11 24L11 23L10 23L10 22L9 22L9 21L6 21L6 20L10 20L10 21L12 21L12 20L13 20L13 21L14 21L14 19L15 19L15 20L16 20L16 19L15 19L15 18L13 18L13 16L14 16L14 17L16 17L16 18L17 18L17 19L21 19L21 18L22 18L22 21L19 21L19 20L18 20L18 21L16 21L16 22L18 22L18 21L19 21L19 23L20 23L20 24L21 24L21 23L22 23L22 22L23 22L23 21L24 21L24 22L25 22L25 25L27 25L27 24L28 24L28 23L27 23L27 22L26 22L26 21L28 21L28 22L29 22L29 21L28 21L28 20L29 20L29 19L30 19L30 18L31 18L31 19L33 19L33 20L32 20L32 21L33 21L33 20L34 20L34 21L35 21L35 20L34 20L34 19L33 19L33 18L31 18L31 17L29 17L29 16L32 16L32 17L33 17L33 16L34 16L34 14L33 14L33 15L32 15L32 13L29 13L29 12L28 12L28 11L27 11L27 12L26 12L26 11L25 11L25 10L26 10L26 9L28 9L28 8L26 8L26 5L27 5L27 4L26 4L26 5L25 5L25 8L23 8L23 7L22 7L22 8L23 8L23 9L24 9L24 11L23 11L23 10L22 10L22 9L21 9L21 10L22 10L22 11L23 11L23 12L24 12L24 11L25 11L25 13L24 13L24 14L26 14L26 13L28 13L28 14L29 14L29 15L28 15L28 18L29 18L29 19L28 19L28 20L26 20L26 19L25 19L25 18L27 18L27 15L25 15L25 16L26 16L26 17L24 17L24 16L23 16L23 17L19 17L19 16L20 16L20 14L21 14L21 13L20 13L20 12L21 12L21 11L20 11L20 9L19 9L19 7L20 7L20 8L21 8L21 7L20 7L20 6L19 6L19 7L18 7L18 9L19 9L19 10L18 10L18 11L20 11L20 12L18 12L18 13L17 13L17 15L19 15L19 16L18 16L18 17L19 17L19 18L17 18L17 16L16 16L16 15L15 15L15 16L14 16L14 15L13 15L13 16L12 16L12 19L10 19L10 18L11 18L11 17L10 17L10 16L11 16L11 14L12 14L12 13L11 13L11 12L12 12L12 11L13 11L13 13L14 13L14 14L16 14L16 12L17 12L17 11L16 11L16 12L15 12L15 13L14 13L14 10L16 10L16 9L17 9L17 8L16 8L16 4ZM14 6L14 9L13 9L13 8L12 8L12 9L13 9L13 10L14 10L14 9L16 9L16 8L15 8L15 6ZM0 8L0 9L2 9L2 8ZM36 11L36 13L37 13L37 11ZM18 13L18 14L19 14L19 13ZM22 13L22 15L23 15L23 13ZM9 17L9 18L10 18L10 17ZM23 17L23 19L24 19L24 20L25 20L25 19L24 19L24 17ZM3 19L3 20L4 20L4 19ZM20 22L20 23L21 23L21 22ZM26 23L26 24L27 24L27 23ZM8 24L8 25L9 25L9 24ZM22 24L22 25L24 25L24 24ZM2 25L2 26L3 26L3 25ZM28 25L28 26L29 26L29 28L30 28L30 26L29 26L29 25ZM6 26L6 27L7 27L7 26ZM21 26L21 27L20 27L20 28L21 28L21 27L22 27L22 26ZM10 28L10 29L11 29L11 28ZM24 28L24 29L23 29L23 30L22 30L22 31L21 31L21 34L20 34L20 36L19 36L19 35L17 35L17 37L18 37L18 36L19 36L19 37L23 37L23 35L24 35L24 34L25 34L25 35L26 35L26 34L25 34L25 31L26 31L26 30L27 30L27 28L26 28L26 29L25 29L25 28ZM29 29L29 32L32 32L32 29ZM34 29L34 30L35 30L35 29ZM17 30L17 31L16 31L16 32L15 32L15 33L17 33L17 31L18 31L18 30ZM24 30L24 31L25 31L25 30ZM30 30L30 31L31 31L31 30ZM22 33L22 34L21 34L21 35L22 35L22 34L23 34L23 33ZM0 0L0 7L7 7L7 0ZM1 1L1 6L6 6L6 1ZM2 2L2 5L5 5L5 2ZM30 0L30 7L37 7L37 0ZM31 1L31 6L36 6L36 1ZM32 2L32 5L35 5L35 2ZM0 30L0 37L7 37L7 30ZM1 31L1 36L6 36L6 31ZM2 32L2 35L5 35L5 32Z" fill="#000000"/></g></g></svg>
