<?xml version="1.0" encoding="UTF-8"?>
<svg xmlns="http://www.w3.org/2000/svg" version="1.1" width="400" height="400" viewBox="0 0 400 400"><rect x="0" y="0" width="400" height="400" fill="#ffffff"/><g transform="scale(9.756)"><g transform="translate(2,2)"><path fill-rule="evenodd" d="M9 0L9 1L8 1L8 2L9 2L9 3L8 3L8 4L10 4L10 7L11 7L11 4L12 4L12 5L13 5L13 6L12 6L12 9L13 9L13 10L10 10L10 11L8 11L8 12L4 12L4 10L5 10L5 11L7 11L7 10L9 10L9 9L11 9L11 8L6 8L6 9L5 9L5 8L0 8L0 14L1 14L1 17L0 17L0 18L1 18L1 17L3 17L3 18L2 18L2 19L4 19L4 20L6 20L6 21L5 21L5 22L6 22L6 23L5 23L5 25L8 25L8 26L9 26L9 27L10 27L10 29L12 29L12 30L13 30L13 31L14 31L14 30L15 30L15 31L16 31L16 30L17 30L17 29L18 29L18 30L20 30L20 31L19 31L19 32L17 32L17 33L18 33L18 34L17 34L17 35L18 35L18 36L16 36L16 37L20 37L20 35L21 35L21 36L22 36L22 37L24 37L24 36L25 36L25 37L26 37L26 36L25 36L25 35L26 35L26 34L25 34L25 33L26 33L26 32L25 32L25 31L23 31L23 32L25 32L25 33L23 33L23 34L24 34L24 35L23 35L23 36L22 36L22 35L21 35L21 34L22 34L22 33L20 33L20 31L21 31L21 32L22 32L22 31L21 31L21 29L20 29L20 27L21 27L21 28L22 28L22 27L21 27L21 26L22 26L22 25L21 25L21 26L20 26L20 25L18 25L18 24L17 24L17 25L14 25L14 24L13 24L13 23L12 23L12 25L14 25L14 28L12 28L12 27L13 27L13 26L11 26L11 27L10 27L10 25L9 25L9 22L8 22L8 21L10 21L10 22L11 22L11 21L12 21L12 22L13 22L13 21L14 21L14 23L18 23L18 22L20 22L20 20L22 20L22 21L21 21L21 24L24 24L24 25L23 25L23 26L24 26L24 27L25 27L25 26L26 26L26 25L27 25L27 23L28 23L28 22L27 22L27 21L29 21L29 23L30 23L30 24L28 24L28 25L29 25L29 28L27 28L27 27L28 27L28 26L27 26L27 27L26 27L26 28L23 28L23 29L22 29L22 30L25 30L25 29L27 29L27 30L26 30L26 31L27 31L27 34L28 34L28 33L29 33L29 34L33 34L33 35L32 35L32 37L33 37L33 36L34 36L34 37L37 37L37 34L34 34L34 33L35 33L35 32L36 32L36 33L37 33L37 30L36 30L36 29L35 29L35 28L36 28L36 27L37 27L37 26L36 26L36 27L35 27L35 28L32 28L32 27L31 27L31 28L30 28L30 26L31 26L31 25L33 25L33 26L35 26L35 24L32 24L32 23L33 23L33 22L30 22L30 21L31 21L31 20L32 20L32 21L33 21L33 19L34 19L34 18L33 18L33 19L31 19L31 20L28 20L28 19L30 19L30 18L26 18L26 17L31 17L31 14L32 14L32 15L33 15L33 14L32 14L32 13L35 13L35 12L36 12L36 13L37 13L37 12L36 12L36 11L37 11L37 10L35 10L35 9L36 9L36 8L35 8L35 9L34 9L34 8L33 8L33 10L34 10L34 11L35 11L35 12L32 12L32 8L31 8L31 10L30 10L30 8L29 8L29 11L28 11L28 10L27 10L27 9L28 9L28 8L24 8L24 7L25 7L25 6L26 6L26 7L27 7L27 6L28 6L28 7L29 7L29 6L28 6L28 5L29 5L29 3L28 3L28 1L29 1L29 0L28 0L28 1L26 1L26 3L25 3L25 4L26 4L26 5L24 5L24 4L23 4L23 0L22 0L22 2L21 2L21 0L17 0L17 1L15 1L15 0L14 0L14 1L11 1L11 2L10 2L10 0ZM19 1L19 2L17 2L17 3L18 3L18 4L15 4L15 3L16 3L16 2L12 2L12 4L13 4L13 5L14 5L14 6L13 6L13 8L14 8L14 9L15 9L15 10L13 10L13 11L12 11L12 13L11 13L11 11L10 11L10 12L8 12L8 13L6 13L6 14L7 14L7 15L4 15L4 17L5 17L5 16L7 16L7 17L6 17L6 18L10 18L10 16L11 16L11 18L13 18L13 19L12 19L12 21L13 21L13 20L14 20L14 21L15 21L15 19L14 19L14 18L16 18L16 19L17 19L17 20L18 20L18 21L19 21L19 20L20 20L20 19L21 19L21 18L23 18L23 19L22 19L22 20L23 20L23 21L22 21L22 22L23 22L23 23L24 23L24 22L25 22L25 21L26 21L26 20L27 20L27 19L25 19L25 16L26 16L26 15L24 15L24 14L25 14L25 13L24 13L24 12L26 12L26 11L27 11L27 10L26 10L26 9L24 9L24 10L23 10L23 9L22 9L22 8L23 8L23 7L24 7L24 5L23 5L23 7L22 7L22 6L21 6L21 7L20 7L20 5L18 5L18 4L22 4L22 3L21 3L21 2L20 2L20 1ZM24 1L24 2L25 2L25 1ZM19 2L19 3L20 3L20 2ZM10 3L10 4L11 4L11 3ZM13 3L13 4L14 4L14 5L15 5L15 6L14 6L14 7L15 7L15 9L18 9L18 8L17 8L17 6L16 6L16 5L15 5L15 4L14 4L14 3ZM27 4L27 5L26 5L26 6L27 6L27 5L28 5L28 4ZM8 5L8 7L9 7L9 5ZM15 6L15 7L16 7L16 6ZM18 6L18 7L19 7L19 6ZM21 7L21 8L22 8L22 7ZM19 8L19 10L21 10L21 11L20 11L20 13L19 13L19 14L21 14L21 16L22 16L22 17L23 17L23 18L24 18L24 17L23 17L23 16L24 16L24 15L23 15L23 14L24 14L24 13L23 13L23 11L22 11L22 10L21 10L21 9L20 9L20 8ZM1 9L1 11L2 11L2 10L4 10L4 9ZM6 9L6 10L7 10L7 9ZM15 10L15 11L14 11L14 13L17 13L17 14L15 14L15 15L14 15L14 17L15 17L15 16L17 16L17 17L18 17L18 18L17 18L17 19L19 19L19 18L20 18L20 17L18 17L18 16L17 16L17 15L18 15L18 13L17 13L17 10ZM25 10L25 11L26 11L26 10ZM15 11L15 12L16 12L16 11ZM18 11L18 12L19 12L19 11ZM29 11L29 12L27 12L27 13L26 13L26 14L28 14L28 15L27 15L27 16L29 16L29 14L31 14L31 13L32 13L32 12L31 12L31 11ZM3 12L3 13L1 13L1 14L2 14L2 15L3 15L3 14L4 14L4 12ZM21 12L21 13L22 13L22 12ZM29 12L29 13L31 13L31 12ZM9 13L9 16L10 16L10 15L11 15L11 14L10 14L10 13ZM12 13L12 14L13 14L13 13ZM35 14L35 16L34 16L34 17L35 17L35 16L37 16L37 14ZM12 15L12 17L13 17L13 15ZM19 15L19 16L20 16L20 15ZM22 15L22 16L23 16L23 15ZM32 16L32 17L33 17L33 16ZM35 18L35 19L36 19L36 20L35 20L35 21L34 21L34 23L37 23L37 22L36 22L36 21L37 21L37 18ZM6 19L6 20L7 20L7 21L6 21L6 22L7 22L7 23L6 23L6 24L7 24L7 23L8 23L8 22L7 22L7 21L8 21L8 20L7 20L7 19ZM0 20L0 24L1 24L1 25L0 25L0 29L1 29L1 26L2 26L2 28L3 28L3 29L4 29L4 28L5 28L5 27L4 27L4 23L3 23L3 22L1 22L1 20ZM10 20L10 21L11 21L11 20ZM24 20L24 21L23 21L23 22L24 22L24 21L25 21L25 20ZM1 23L1 24L2 24L2 26L3 26L3 24L2 24L2 23ZM19 23L19 24L20 24L20 23ZM25 23L25 24L26 24L26 23ZM36 24L36 25L37 25L37 24ZM17 25L17 26L16 26L16 27L17 27L17 28L18 28L18 29L19 29L19 28L18 28L18 27L20 27L20 26L18 26L18 25ZM6 26L6 27L7 27L7 26ZM3 27L3 28L4 28L4 27ZM6 28L6 29L7 29L7 28ZM8 28L8 31L9 31L9 28ZM14 28L14 29L13 29L13 30L14 30L14 29L15 29L15 28ZM29 29L29 32L32 32L32 29ZM33 29L33 30L34 30L34 32L35 32L35 29ZM10 30L10 31L11 31L11 30ZM27 30L27 31L28 31L28 30ZM30 30L30 31L31 31L31 30ZM8 32L8 37L11 37L11 36L12 36L12 37L14 37L14 36L15 36L15 35L16 35L16 34L15 34L15 33L16 33L16 32L15 32L15 33L14 33L14 32L13 32L13 33L14 33L14 34L15 34L15 35L14 35L14 36L13 36L13 34L12 34L12 32L11 32L11 34L10 34L10 33L9 33L9 32ZM9 34L9 36L11 36L11 35L12 35L12 34L11 34L11 35L10 35L10 34ZM19 34L19 35L20 35L20 34ZM27 35L27 36L29 36L29 37L31 37L31 36L29 36L29 35ZM34 35L34 36L36 36L36 35ZM0 0L0 7L7 7L7 0ZM1 1L1 6L6 6L6 1ZM2 2L2 5L5 5L5 2ZM30 0L30 7L37 7L37 0ZM31 1L31 6L36 6L36 1ZM32 2L32 5L35 5L35 2ZM0 30L0 37L7 37L7 30ZM1 31L1 36L6 36L6 31ZM2 32L2 35L5 35L5 32Z" fill="#000000"/></g></g></svg>
